M48
INCH
T70C0.028
T69C0.020
T68C0.038
T67C0.035
T66C0.045
T65C0.129
T64C0.128
T63C0.030
T62C0.048
%
T69
X013750Y012150
X013750Y011350
X014000Y011750
X014000Y010950
X017900Y003100
X018250Y003450
X018300Y004600
X018300Y004150
X018600Y003800
X019150Y004600
X019200Y007550
X019200Y007100
X019200Y006650
X019500Y004250
X020750Y007100
X020750Y006650
X022850Y009350
X022850Y007650
X023300Y009350
X023300Y007650
X024400Y012650
X024800Y009400
X024850Y003950
X024900Y012650
X025300Y003950
X025400Y012650
X025550Y002850
X025650Y004500
X025900Y012650
X026200Y007600
X027700Y009300
X028050Y007600
X028350Y009350
X030800Y006100
X031350Y006150
X031450Y011000
X031500Y009100
X031850Y006150
X031950Y011000
X033500Y012100
X033950Y012100
X034450Y006250
X036150Y007800
X036200Y009700
X037850Y004800
X038400Y012300
X038900Y012300
X038900Y006450
X039000Y007550
X039200Y011000
X039250Y006100
X039650Y011000
X039950Y004950
X039950Y004500
X040100Y011000
X040389Y011800
X040450Y012500
X040700Y005550
X040900Y012500
X041200Y007550
X041350Y012500
X041650Y007550
X041800Y012500
X041900Y005550
X042250Y012500
X042250Y007550
X042311Y011800
X042550Y010500
X043000Y010500
X043450Y010500
X043450Y004900
X043900Y011800
X043900Y011350
X043900Y010950
X043900Y010500
X043900Y004350
X044450Y008100
X044550Y006350
X044550Y005750
X046300Y005250
X048600Y011600
X048600Y011150
X051650Y006450
X051800Y009750
X056450Y016400
X056450Y015950
X056450Y015500
X056550Y001500
X056650Y004200
X056650Y003750
X056900Y012400
X056900Y011800
X056900Y011200
X057000Y016400
X057000Y015950
X057000Y015500
X057000Y001500
X057100Y004200
X057100Y003750
X057250Y004800
X057450Y001500
X057700Y004800
X057900Y001500
X058150Y004800
X058350Y001500
X058800Y001500
X058850Y004550
X058850Y004100
X058850Y003650
X058900Y016450
X058900Y015850
X058900Y015200
X058900Y014550
X058900Y013950
X058900Y013350
X058900Y012400
X058900Y011800
X058900Y011200
X059250Y001500
T70
X051250Y012300
X051250Y011300
X051250Y010300
X051250Y009300
X054250Y012300
X054250Y011300
X054250Y010300
X054250Y009300
T63
X006800Y013350
X006800Y004650
X007300Y012350
X007300Y003650
X007800Y013350
X007800Y004650
X008300Y012350
X008300Y003650
X008800Y013350
X008800Y004650
X009300Y012350
X009300Y003650
X014800Y013350
X014800Y004650
X015300Y012350
X015300Y003650
X015800Y013350
X015800Y004650
X016300Y012350
X016300Y003650
X016800Y013350
X016800Y004650
X017300Y012350
X017300Y003650
X026800Y013350
X026800Y004650
X027300Y012350
X027300Y003650
X027800Y013350
X027800Y004650
X028300Y012350
X028300Y003650
X028800Y013350
X028800Y004650
X029300Y012350
X029300Y003650
X034800Y013350
X034800Y004650
X035300Y012350
X035300Y003650
X035800Y013350
X035800Y004650
X036300Y012350
X036300Y003650
X036800Y013350
X036800Y004650
X037300Y012350
X037300Y003650
T67
X029450Y009200
X029450Y008200
X029450Y007200
X030450Y009700
X030450Y008700
X030450Y007700
T68
X036600Y010750
X037000Y008550
X037000Y007550
X037000Y006550
X037600Y010750
X038000Y008550
X038000Y007550
X038000Y006550
T66
X016650Y008650
X017650Y008650
X018650Y008650
T62
X001050Y014750
X001050Y002250
X002250Y009500
X002250Y007500
X003050Y014750
X003050Y002250
X005050Y014750
X005050Y002250
X007050Y014750
X007050Y002250
X009050Y014750
X009050Y002250
X011050Y014750
X011050Y002250
X013050Y014750
X013050Y002250
X015050Y014750
X015050Y002250
X017050Y014750
X017050Y002250
X019050Y014750
X019050Y002250
X021050Y014750
X021050Y002250
X023050Y014750
X023050Y002250
X025050Y014750
X025050Y002250
X027050Y014750
X027050Y002250
X029050Y014750
X029050Y002250
X031050Y014750
X031050Y002250
X033050Y014750
X033050Y002250
X035050Y014750
X035050Y002250
X037050Y014750
X037050Y002250
X039050Y014750
X039050Y002250
X041050Y014750
X041050Y002250
X043050Y014750
X043050Y002250
X045050Y014750
X045050Y002250
X047050Y014750
X047050Y002250
X049050Y014750
X049050Y002250
X051050Y014750
X051050Y002250
X053050Y014750
X053050Y002250
X055050Y014750
X055050Y002250
X057950Y015750
X057950Y013750
X057950Y011750
X057950Y009750
T64
X006050Y015850
X006050Y001150
X010050Y015850
X010050Y001150
X014050Y015850
X014050Y001150
X018050Y015850
X018050Y001150
X026050Y015850
X026050Y001150
X030050Y015850
X030050Y001150
X032950Y010450
X032950Y006450
X034050Y015850
X034050Y001150
X038050Y015850
X038050Y001150
T65
X005700Y008500
X046700Y008500
M30
