G04 start of page 6 for group -4062 idx -4062 *
G04 Title: (unknown), soldermask *
G04 Creator: pcb 20140316 *
G04 CreationDate: Fri 09 Jan 2015 09:25:45 PM GMT UTC *
G04 For: ndholmes *
G04 Format: Gerber/RS-274X *
G04 PCB-Dimensions (mil): 6000.00 1700.00 *
G04 PCB-Coordinate-Origin: lower left *
%MOIN*%
%FSLAX25Y25*%
%LNBOTTOMMASK*%
%ADD95C,0.0760*%
%ADD94C,0.0660*%
%ADD93C,0.0900*%
%ADD92C,0.2997*%
%ADD91C,0.0001*%
%ADD90C,0.1500*%
%ADD89C,0.0750*%
%ADD88C,0.0860*%
G54D88*X30500Y147500D03*
X10500D03*
X70500D03*
X50500D03*
G54D89*X93000Y123500D03*
X83000D03*
X73000D03*
X88000Y133500D03*
X78000D03*
X68000D03*
G54D90*X100500Y158500D03*
X60500D03*
G54D88*X90500Y147500D03*
X110500Y22500D03*
X130500D03*
X150500D03*
G54D90*X140500Y11500D03*
G54D88*X190500Y22500D03*
X210500D03*
G54D89*X148000Y46500D03*
X153000Y36500D03*
X158000Y46500D03*
X163000Y36500D03*
G54D88*X170500Y22500D03*
G54D89*X168000Y46500D03*
X173000Y36500D03*
G54D90*X180500Y11500D03*
G54D91*G36*
X18200Y99300D02*Y90700D01*
X26800D01*
Y99300D01*
X18200D01*
G37*
G54D92*X57000Y85000D03*
G54D88*X22500Y75000D03*
G54D91*G36*
X46200Y26800D02*Y18200D01*
X54800D01*
Y26800D01*
X46200D01*
G37*
G54D90*X60500Y11500D03*
G54D91*G36*
X66200Y26800D02*Y18200D01*
X74800D01*
Y26800D01*
X66200D01*
G37*
G54D88*X90500Y22500D03*
X10500D03*
X30500D03*
G54D89*X68000Y46500D03*
X73000Y36500D03*
X78000Y46500D03*
X83000Y36500D03*
X88000Y46500D03*
X93000Y36500D03*
G54D90*X100500Y11500D03*
G54D93*X186500Y86500D03*
X176500D03*
G54D91*G36*
X162000Y91000D02*Y82000D01*
X171000D01*
Y91000D01*
X162000D01*
G37*
G54D88*X150500Y147500D03*
X130500D03*
X210500D03*
X190500D03*
X170500D03*
X110500D03*
G54D90*X140500Y158500D03*
G54D89*X173000Y123500D03*
G54D90*X180500Y158500D03*
G54D89*X168000Y133500D03*
X158000D03*
X148000D03*
X163000Y123500D03*
X153000D03*
G54D88*X290500Y22500D03*
X310500D03*
X250500D03*
X270500D03*
X230500D03*
G54D89*X268000Y46500D03*
X273000Y36500D03*
X278000Y46500D03*
X283000Y36500D03*
X288000Y46500D03*
X293000Y36500D03*
G54D90*X260500Y11500D03*
G54D89*X294500Y72000D03*
Y82000D03*
Y92000D03*
X304500Y77000D03*
Y87000D03*
Y97000D03*
G54D90*X329500Y64500D03*
Y104500D03*
G54D88*X230500Y147500D03*
X270500D03*
X250500D03*
G54D90*X260500Y158500D03*
G54D88*X350500Y147500D03*
X330500D03*
X310500D03*
X290500D03*
G54D89*X293000Y123500D03*
X288000Y133500D03*
G54D90*X300500Y158500D03*
G54D89*X283000Y123500D03*
X273000D03*
X278000Y133500D03*
X268000D03*
G54D88*X370500Y22500D03*
X390500D03*
G54D89*X368000Y46500D03*
X373000Y36500D03*
G54D91*G36*
X376700Y68800D02*Y62200D01*
X383300D01*
Y68800D01*
X376700D01*
G37*
G54D94*X380000Y75500D03*
Y85500D03*
X370000Y65500D03*
Y75500D03*
Y85500D03*
G54D88*X430500Y147500D03*
G54D91*G36*
X419306Y121800D02*Y114200D01*
X426906D01*
Y121800D01*
X419306D01*
G37*
G54D88*X410500Y147500D03*
G54D95*X403894Y118000D03*
G54D88*X390500Y147500D03*
X370500D03*
G54D89*X373000Y123500D03*
G54D90*X380500Y158500D03*
G54D91*G36*
X372700Y110800D02*Y104200D01*
X379300D01*
Y110800D01*
X372700D01*
G37*
G54D94*X366000Y107500D03*
G54D89*X368000Y133500D03*
X358000D03*
X348000D03*
G54D90*X340500Y158500D03*
G54D89*X363000Y123500D03*
X353000D03*
G54D90*X300500Y11500D03*
X340500D03*
X380500D03*
G54D89*X348000Y46500D03*
X353000Y36500D03*
X358000Y46500D03*
X363000Y36500D03*
G54D88*X330500Y22500D03*
X350500D03*
X410500D03*
X430500D03*
X510500Y147500D03*
Y22500D03*
G54D91*G36*
X509200Y126300D02*Y119700D01*
X515800D01*
Y126300D01*
X509200D01*
G37*
G54D94*X512500Y113000D03*
Y103000D03*
Y93000D03*
G54D88*X490500Y147500D03*
Y22500D03*
X470500Y147500D03*
X450500D03*
Y22500D03*
X470500D03*
G54D92*X467000Y85000D03*
G54D88*X530500Y22500D03*
X550500D03*
Y147500D03*
X530500D03*
G54D91*G36*
X575200Y141800D02*Y133200D01*
X583800D01*
Y141800D01*
X575200D01*
G37*
G54D88*X579500Y157500D03*
G54D91*G36*
X575200Y101800D02*Y93200D01*
X583800D01*
Y101800D01*
X575200D01*
G37*
G54D88*X579500Y117500D03*
G54D94*X542500Y93000D03*
Y103000D03*
Y113000D03*
Y123000D03*
M02*
