G04 start of page 2 for group 0 idx 0 *
G04 Title: (unknown), component *
G04 Creator: pcb 20140316 *
G04 CreationDate: Fri 09 Jan 2015 10:12:06 PM GMT UTC *
G04 For: ndholmes *
G04 Format: Gerber/RS-274X *
G04 PCB-Dimensions (mil): 6000.00 1700.00 *
G04 PCB-Coordinate-Origin: lower left *
%MOIN*%
%FSLAX25Y25*%
%LNTOP*%
%ADD41C,0.0280*%
%ADD40C,0.0380*%
%ADD39C,0.0350*%
%ADD38C,0.1285*%
%ADD37C,0.1280*%
%ADD36C,0.0300*%
%ADD35C,0.0480*%
%ADD34C,0.0360*%
%ADD33R,0.0157X0.0157*%
%ADD32R,0.0945X0.0945*%
%ADD31R,0.0630X0.0630*%
%ADD30R,0.0378X0.0378*%
%ADD29R,0.0360X0.0360*%
%ADD28R,0.0430X0.0430*%
%ADD27R,0.0512X0.0512*%
%ADD26R,0.0100X0.0100*%
%ADD25R,0.0116X0.0116*%
%ADD24R,0.0490X0.0490*%
%ADD23C,0.0600*%
%ADD22C,0.0787*%
%ADD21C,0.2937*%
%ADD20C,0.1440*%
%ADD19C,0.0800*%
%ADD18C,0.0700*%
%ADD17C,0.0250*%
%ADD16C,0.0200*%
%ADD15C,0.0450*%
%ADD14C,0.0400*%
%ADD13C,0.0500*%
%ADD12C,0.0100*%
%ADD11C,0.0001*%
G54D11*G36*
X183000Y63000D02*Y76500D01*
X220000D01*
Y63000D01*
X183000D01*
G37*
G36*
X236000Y74000D02*Y81500D01*
X272500D01*
Y74000D01*
X263970D01*
X263986Y74014D01*
X264272Y74349D01*
X264503Y74725D01*
X264671Y75132D01*
X264774Y75561D01*
X264800Y76000D01*
X264774Y76439D01*
X264671Y76868D01*
X264503Y77275D01*
X264272Y77651D01*
X263986Y77986D01*
X263651Y78272D01*
X263275Y78503D01*
X262868Y78671D01*
X262439Y78774D01*
X262000Y78809D01*
X261561Y78774D01*
X261132Y78671D01*
X260725Y78503D01*
X260349Y78272D01*
X260014Y77986D01*
X259728Y77651D01*
X259497Y77275D01*
X259329Y76868D01*
X259226Y76439D01*
X259191Y76000D01*
X259226Y75561D01*
X259329Y75132D01*
X259497Y74725D01*
X259728Y74349D01*
X260014Y74014D01*
X260030Y74000D01*
X236000D01*
G37*
G36*
X272500Y89500D02*X236000D01*
Y96000D01*
X246030D01*
X246014Y95986D01*
X245728Y95651D01*
X245497Y95275D01*
X245329Y94868D01*
X245226Y94439D01*
X245191Y94000D01*
X245226Y93561D01*
X245329Y93132D01*
X245497Y92725D01*
X245728Y92349D01*
X246014Y92014D01*
X246349Y91728D01*
X246725Y91497D01*
X247132Y91329D01*
X247561Y91226D01*
X248000Y91191D01*
X248439Y91226D01*
X248868Y91329D01*
X249275Y91497D01*
X249651Y91728D01*
X249986Y92014D01*
X250272Y92349D01*
X250503Y92725D01*
X250671Y93132D01*
X250774Y93561D01*
X250800Y94000D01*
X250774Y94439D01*
X250671Y94868D01*
X250503Y95275D01*
X250272Y95651D01*
X249986Y95986D01*
X249970Y96000D01*
X272500D01*
Y89500D01*
G37*
G36*
X221000Y91000D02*X227221D01*
X227225Y90997D01*
X227632Y90829D01*
X228061Y90726D01*
X228500Y90691D01*
X228939Y90726D01*
X229368Y90829D01*
X229775Y90997D01*
X229779Y91000D01*
X231721D01*
X231725Y90997D01*
X232132Y90829D01*
X232561Y90726D01*
X233000Y90691D01*
X233439Y90726D01*
X233868Y90829D01*
X234275Y90997D01*
X234279Y91000D01*
X272500D01*
Y79000D01*
X234279D01*
X234275Y79003D01*
X233868Y79171D01*
X233439Y79274D01*
X233000Y79309D01*
X232561Y79274D01*
X232132Y79171D01*
X231725Y79003D01*
X231721Y79000D01*
X229779D01*
X229775Y79003D01*
X229368Y79171D01*
X228939Y79274D01*
X228500Y79309D01*
X228061Y79274D01*
X227632Y79171D01*
X227225Y79003D01*
X227221Y79000D01*
X224617D01*
X224824Y79176D01*
X225028Y79416D01*
X225193Y79684D01*
X225313Y79975D01*
X225387Y80281D01*
X225411Y80595D01*
X225387Y80909D01*
X225313Y81215D01*
X225193Y81506D01*
X225028Y81774D01*
X224824Y82014D01*
X224584Y82218D01*
X224316Y82383D01*
X224025Y82503D01*
X223719Y82576D01*
X223405Y82595D01*
X221000D01*
Y91000D01*
G37*
G36*
X191261Y96000D02*X203000D01*
Y74500D01*
X191261D01*
Y83683D01*
X191331Y83695D01*
X191480Y83746D01*
X191619Y83819D01*
X191745Y83913D01*
X191855Y84025D01*
X191946Y84154D01*
X192013Y84296D01*
X192204Y84828D01*
X192337Y85377D01*
X192417Y85936D01*
X192444Y86500D01*
X192417Y87064D01*
X192337Y87623D01*
X192204Y88172D01*
X192019Y88706D01*
X191950Y88848D01*
X191858Y88977D01*
X191748Y89091D01*
X191621Y89185D01*
X191481Y89259D01*
X191332Y89309D01*
X191261Y89321D01*
Y96000D01*
G37*
G36*
X186502D02*X191261D01*
Y89321D01*
X191176Y89336D01*
X191018Y89338D01*
X190861Y89315D01*
X190710Y89268D01*
X190569Y89198D01*
X190439Y89107D01*
X190326Y88996D01*
X190232Y88870D01*
X190158Y88730D01*
X190108Y88580D01*
X190081Y88424D01*
X190079Y88266D01*
X190102Y88110D01*
X190152Y87960D01*
X190278Y87608D01*
X190366Y87244D01*
X190419Y86874D01*
X190437Y86500D01*
X190419Y86126D01*
X190366Y85756D01*
X190278Y85392D01*
X190156Y85039D01*
X190106Y84889D01*
X190083Y84734D01*
X190085Y84576D01*
X190112Y84421D01*
X190162Y84272D01*
X190236Y84133D01*
X190330Y84007D01*
X190442Y83897D01*
X190571Y83806D01*
X190712Y83736D01*
X190862Y83689D01*
X191018Y83667D01*
X191175Y83668D01*
X191261Y83683D01*
Y74500D01*
X186502D01*
Y80556D01*
X187064Y80583D01*
X187623Y80663D01*
X188172Y80796D01*
X188706Y80981D01*
X188848Y81050D01*
X188977Y81142D01*
X189091Y81252D01*
X189185Y81379D01*
X189259Y81519D01*
X189309Y81668D01*
X189336Y81824D01*
X189338Y81982D01*
X189315Y82139D01*
X189268Y82290D01*
X189198Y82431D01*
X189107Y82561D01*
X188996Y82674D01*
X188870Y82768D01*
X188730Y82842D01*
X188580Y82892D01*
X188424Y82919D01*
X188266Y82921D01*
X188110Y82898D01*
X187960Y82848D01*
X187608Y82722D01*
X187244Y82634D01*
X186874Y82581D01*
X186502Y82563D01*
Y90437D01*
X186874Y90419D01*
X187244Y90366D01*
X187608Y90278D01*
X187961Y90156D01*
X188111Y90106D01*
X188266Y90083D01*
X188424Y90085D01*
X188579Y90112D01*
X188728Y90162D01*
X188867Y90236D01*
X188993Y90330D01*
X189103Y90442D01*
X189194Y90571D01*
X189264Y90712D01*
X189311Y90862D01*
X189333Y91018D01*
X189332Y91175D01*
X189305Y91331D01*
X189254Y91480D01*
X189181Y91619D01*
X189087Y91745D01*
X188975Y91855D01*
X188846Y91946D01*
X188704Y92013D01*
X188172Y92204D01*
X187623Y92337D01*
X187064Y92417D01*
X186502Y92444D01*
Y96000D01*
G37*
G36*
X183000Y74500D02*Y96000D01*
X186502D01*
Y92444D01*
X186500Y92444D01*
X185936Y92417D01*
X185377Y92337D01*
X184828Y92204D01*
X184294Y92019D01*
X184152Y91950D01*
X184023Y91858D01*
X183909Y91748D01*
X183815Y91621D01*
X183741Y91481D01*
X183691Y91332D01*
X183664Y91176D01*
X183662Y91018D01*
X183685Y90861D01*
X183732Y90710D01*
X183802Y90569D01*
X183893Y90439D01*
X184004Y90326D01*
X184130Y90232D01*
X184270Y90158D01*
X184420Y90108D01*
X184576Y90081D01*
X184734Y90079D01*
X184890Y90102D01*
X185040Y90152D01*
X185392Y90278D01*
X185756Y90366D01*
X186126Y90419D01*
X186500Y90437D01*
X186502Y90437D01*
Y82563D01*
X186500Y82563D01*
X186126Y82581D01*
X185756Y82634D01*
X185392Y82722D01*
X185039Y82844D01*
X184889Y82894D01*
X184734Y82917D01*
X184576Y82915D01*
X184421Y82888D01*
X184272Y82838D01*
X184133Y82764D01*
X184007Y82670D01*
X183897Y82558D01*
X183806Y82429D01*
X183736Y82288D01*
X183689Y82138D01*
X183667Y81982D01*
X183668Y81825D01*
X183695Y81669D01*
X183746Y81520D01*
X183819Y81381D01*
X183913Y81255D01*
X184025Y81145D01*
X184154Y81054D01*
X184296Y80987D01*
X184828Y80796D01*
X185377Y80663D01*
X185936Y80583D01*
X186500Y80556D01*
X186502Y80556D01*
Y74500D01*
X183000D01*
G37*
G36*
X226500Y61000D02*Y51621D01*
X225379Y50500D01*
X170085D01*
X170049Y50522D01*
X169395Y50793D01*
X168706Y50958D01*
X168000Y51014D01*
X167294Y50958D01*
X166605Y50793D01*
X165951Y50522D01*
X165915Y50500D01*
X160085D01*
X160049Y50522D01*
X159395Y50793D01*
X158706Y50958D01*
X158000Y51014D01*
X157294Y50958D01*
X156605Y50793D01*
X155951Y50522D01*
X155915Y50500D01*
X150085D01*
X150049Y50522D01*
X149395Y50793D01*
X148706Y50958D01*
X148000Y51014D01*
X147294Y50958D01*
X146605Y50793D01*
X145951Y50522D01*
X145915Y50500D01*
X129000D01*
Y61000D01*
X159186D01*
X159195Y55879D01*
X159232Y55726D01*
X159292Y55581D01*
X159374Y55446D01*
X159477Y55327D01*
X159596Y55224D01*
X159731Y55142D01*
X159876Y55082D01*
X160029Y55045D01*
X160186Y55036D01*
X170971Y55045D01*
X171124Y55082D01*
X171269Y55142D01*
X171404Y55224D01*
X171523Y55327D01*
X171626Y55446D01*
X171708Y55581D01*
X171768Y55726D01*
X171805Y55879D01*
X171814Y56036D01*
X171805Y61000D01*
X182048D01*
X182057Y55741D01*
X182094Y55588D01*
X182154Y55443D01*
X182236Y55308D01*
X182339Y55189D01*
X182458Y55086D01*
X182593Y55004D01*
X182738Y54944D01*
X182891Y54907D01*
X183048Y54898D01*
X189109Y54907D01*
X189262Y54944D01*
X189407Y55004D01*
X189542Y55086D01*
X189661Y55189D01*
X189764Y55308D01*
X189846Y55443D01*
X189906Y55588D01*
X189943Y55741D01*
X189952Y55898D01*
X189943Y61000D01*
X194253D01*
X194250Y60950D01*
X194259Y55893D01*
X194296Y55740D01*
X194356Y55595D01*
X194438Y55460D01*
X194541Y55341D01*
X194660Y55238D01*
X194795Y55156D01*
X194940Y55096D01*
X195093Y55059D01*
X195250Y55050D01*
X203907Y55059D01*
X204060Y55096D01*
X204205Y55156D01*
X204340Y55238D01*
X204459Y55341D01*
X204562Y55460D01*
X204644Y55595D01*
X204704Y55740D01*
X204741Y55893D01*
X204750Y56050D01*
X204741Y61000D01*
X210253D01*
X210250Y60950D01*
X210259Y55893D01*
X210296Y55740D01*
X210356Y55595D01*
X210438Y55460D01*
X210541Y55341D01*
X210660Y55238D01*
X210795Y55156D01*
X210940Y55096D01*
X211093Y55059D01*
X211250Y55050D01*
X219907Y55059D01*
X220060Y55096D01*
X220205Y55156D01*
X220340Y55238D01*
X220459Y55341D01*
X220562Y55460D01*
X220644Y55595D01*
X220704Y55740D01*
X220741Y55893D01*
X220750Y56050D01*
X220741Y61000D01*
X226500D01*
G37*
G36*
X157500D02*X222000D01*
Y54000D01*
X157500D01*
Y61000D01*
G37*
G36*
X430502Y22500D02*X434500D01*
X434482Y22125D01*
X434430Y21753D01*
X434342Y21388D01*
X434221Y21032D01*
X434067Y20690D01*
X434020Y20582D01*
X433993Y20467D01*
X433983Y20349D01*
X433993Y20232D01*
X434021Y20117D01*
X434066Y20008D01*
X434128Y19907D01*
X434205Y19818D01*
X434295Y19741D01*
X434395Y19680D01*
X434504Y19635D01*
X434619Y19607D01*
X434737Y19598D01*
X434855Y19608D01*
X434969Y19635D01*
X435078Y19681D01*
X435179Y19743D01*
X435269Y19819D01*
X435345Y19909D01*
X435405Y20011D01*
X435622Y20480D01*
X435789Y20969D01*
X435909Y21472D01*
X435982Y21984D01*
X436006Y22500D01*
X440500D01*
Y1000D01*
X430502D01*
Y16994D01*
X431016Y17018D01*
X431528Y17091D01*
X432031Y17211D01*
X432520Y17378D01*
X432992Y17590D01*
X433093Y17651D01*
X433184Y17728D01*
X433261Y17818D01*
X433323Y17920D01*
X433369Y18029D01*
X433397Y18145D01*
X433406Y18263D01*
X433397Y18381D01*
X433370Y18497D01*
X433324Y18607D01*
X433262Y18708D01*
X433186Y18798D01*
X433095Y18876D01*
X432994Y18938D01*
X432885Y18984D01*
X432769Y19011D01*
X432651Y19021D01*
X432532Y19012D01*
X432417Y18984D01*
X432308Y18937D01*
X431968Y18779D01*
X431612Y18658D01*
X431247Y18570D01*
X430875Y18518D01*
X430502Y18500D01*
Y22500D01*
G37*
G36*
X410502D02*X414500D01*
X414482Y22125D01*
X414430Y21753D01*
X414342Y21388D01*
X414221Y21032D01*
X414067Y20690D01*
X414020Y20582D01*
X413993Y20467D01*
X413983Y20349D01*
X413993Y20232D01*
X414021Y20117D01*
X414066Y20008D01*
X414128Y19907D01*
X414205Y19818D01*
X414295Y19741D01*
X414395Y19680D01*
X414504Y19635D01*
X414619Y19607D01*
X414737Y19598D01*
X414855Y19608D01*
X414969Y19635D01*
X415078Y19681D01*
X415179Y19743D01*
X415269Y19819D01*
X415345Y19909D01*
X415405Y20011D01*
X415622Y20480D01*
X415789Y20969D01*
X415909Y21472D01*
X415982Y21984D01*
X416006Y22500D01*
X424994D01*
X425018Y21984D01*
X425091Y21472D01*
X425211Y20969D01*
X425378Y20480D01*
X425590Y20008D01*
X425651Y19907D01*
X425728Y19816D01*
X425818Y19739D01*
X425920Y19677D01*
X426029Y19631D01*
X426145Y19603D01*
X426263Y19594D01*
X426381Y19603D01*
X426497Y19630D01*
X426607Y19676D01*
X426708Y19738D01*
X426798Y19814D01*
X426876Y19905D01*
X426938Y20006D01*
X426984Y20115D01*
X427011Y20231D01*
X427021Y20349D01*
X427012Y20468D01*
X426984Y20583D01*
X426937Y20692D01*
X426779Y21032D01*
X426658Y21388D01*
X426570Y21753D01*
X426518Y22125D01*
X426500Y22500D01*
X430502D01*
Y18500D01*
X430500Y18500D01*
X430125Y18518D01*
X429753Y18570D01*
X429388Y18658D01*
X429032Y18779D01*
X428690Y18933D01*
X428582Y18980D01*
X428467Y19007D01*
X428349Y19017D01*
X428232Y19007D01*
X428117Y18979D01*
X428008Y18934D01*
X427907Y18872D01*
X427818Y18795D01*
X427741Y18705D01*
X427680Y18605D01*
X427635Y18496D01*
X427607Y18381D01*
X427598Y18263D01*
X427608Y18145D01*
X427635Y18031D01*
X427681Y17922D01*
X427743Y17821D01*
X427819Y17731D01*
X427909Y17655D01*
X428011Y17595D01*
X428480Y17378D01*
X428969Y17211D01*
X429472Y17091D01*
X429984Y17018D01*
X430500Y16994D01*
X430502Y16994D01*
Y1000D01*
X410502D01*
Y16994D01*
X411016Y17018D01*
X411528Y17091D01*
X412031Y17211D01*
X412520Y17378D01*
X412992Y17590D01*
X413093Y17651D01*
X413184Y17728D01*
X413261Y17818D01*
X413323Y17920D01*
X413369Y18029D01*
X413397Y18145D01*
X413406Y18263D01*
X413397Y18381D01*
X413370Y18497D01*
X413324Y18607D01*
X413262Y18708D01*
X413186Y18798D01*
X413095Y18876D01*
X412994Y18938D01*
X412885Y18984D01*
X412769Y19011D01*
X412651Y19021D01*
X412532Y19012D01*
X412417Y18984D01*
X412308Y18937D01*
X411968Y18779D01*
X411612Y18658D01*
X411247Y18570D01*
X410875Y18518D01*
X410502Y18500D01*
Y22500D01*
G37*
G36*
X380487Y21000D02*X385204D01*
X385253Y20795D01*
X385584Y19995D01*
X386037Y19257D01*
X386599Y18599D01*
X387257Y18037D01*
X387995Y17584D01*
X388795Y17253D01*
X389637Y17051D01*
X390500Y16983D01*
X391363Y17051D01*
X392205Y17253D01*
X393005Y17584D01*
X393743Y18037D01*
X394401Y18599D01*
X394963Y19257D01*
X395416Y19995D01*
X395747Y20795D01*
X395949Y21637D01*
X396000Y22500D01*
X404994D01*
X405018Y21984D01*
X405091Y21472D01*
X405211Y20969D01*
X405378Y20480D01*
X405590Y20008D01*
X405651Y19907D01*
X405728Y19816D01*
X405818Y19739D01*
X405920Y19677D01*
X406029Y19631D01*
X406145Y19603D01*
X406263Y19594D01*
X406381Y19603D01*
X406497Y19630D01*
X406607Y19676D01*
X406708Y19738D01*
X406798Y19814D01*
X406876Y19905D01*
X406938Y20006D01*
X406984Y20115D01*
X407011Y20231D01*
X407021Y20349D01*
X407012Y20468D01*
X406984Y20583D01*
X406937Y20692D01*
X406779Y21032D01*
X406658Y21388D01*
X406570Y21753D01*
X406518Y22125D01*
X406500Y22500D01*
X410502D01*
Y18500D01*
X410500Y18500D01*
X410125Y18518D01*
X409753Y18570D01*
X409388Y18658D01*
X409032Y18779D01*
X408690Y18933D01*
X408582Y18980D01*
X408467Y19007D01*
X408349Y19017D01*
X408232Y19007D01*
X408117Y18979D01*
X408008Y18934D01*
X407907Y18872D01*
X407818Y18795D01*
X407741Y18705D01*
X407680Y18605D01*
X407635Y18496D01*
X407607Y18381D01*
X407598Y18263D01*
X407608Y18145D01*
X407635Y18031D01*
X407681Y17922D01*
X407743Y17821D01*
X407819Y17731D01*
X407909Y17655D01*
X408011Y17595D01*
X408480Y17378D01*
X408969Y17211D01*
X409472Y17091D01*
X409984Y17018D01*
X410500Y16994D01*
X410502Y16994D01*
Y1000D01*
X380487D01*
Y3276D01*
X380500Y3275D01*
X381787Y3376D01*
X383042Y3677D01*
X384234Y4171D01*
X385335Y4846D01*
X386316Y5684D01*
X387154Y6665D01*
X387829Y7766D01*
X388323Y8958D01*
X388624Y10213D01*
X388700Y11500D01*
X388624Y12787D01*
X388323Y14042D01*
X387829Y15234D01*
X387154Y16335D01*
X386316Y17316D01*
X385335Y18154D01*
X384234Y18829D01*
X383042Y19323D01*
X381787Y19624D01*
X380500Y19725D01*
X380487Y19724D01*
Y21000D01*
G37*
G36*
X340487Y22500D02*X344983D01*
X345051Y21637D01*
X345253Y20795D01*
X345584Y19995D01*
X346037Y19257D01*
X346599Y18599D01*
X347257Y18037D01*
X347995Y17584D01*
X348795Y17253D01*
X349637Y17051D01*
X350500Y16983D01*
X351363Y17051D01*
X352205Y17253D01*
X353005Y17584D01*
X353743Y18037D01*
X354401Y18599D01*
X354963Y19257D01*
X355416Y19995D01*
X355747Y20795D01*
X355949Y21637D01*
X356000Y22500D01*
X364983D01*
X365051Y21637D01*
X365253Y20795D01*
X365584Y19995D01*
X366037Y19257D01*
X366599Y18599D01*
X367257Y18037D01*
X367995Y17584D01*
X368795Y17253D01*
X369637Y17051D01*
X370500Y16983D01*
X371363Y17051D01*
X372205Y17253D01*
X373005Y17584D01*
X373743Y18037D01*
X374401Y18599D01*
X374963Y19257D01*
X375416Y19995D01*
X375747Y20795D01*
X375949Y21637D01*
X376000Y22500D01*
X377379D01*
X378398Y21481D01*
X378436Y21436D01*
X378616Y21283D01*
X378817Y21159D01*
X379035Y21069D01*
X379265Y21014D01*
X379500Y20995D01*
X379559Y21000D01*
X380487D01*
Y19724D01*
X379213Y19624D01*
X377958Y19323D01*
X376766Y18829D01*
X375665Y18154D01*
X374684Y17316D01*
X373846Y16335D01*
X373171Y15234D01*
X372677Y14042D01*
X372376Y12787D01*
X372275Y11500D01*
X372376Y10213D01*
X372677Y8958D01*
X373171Y7766D01*
X373846Y6665D01*
X374684Y5684D01*
X375665Y4846D01*
X376766Y4171D01*
X377958Y3677D01*
X379213Y3376D01*
X380487Y3276D01*
Y1000D01*
X340487D01*
Y3276D01*
X340500Y3275D01*
X341787Y3376D01*
X343042Y3677D01*
X344234Y4171D01*
X345335Y4846D01*
X346316Y5684D01*
X347154Y6665D01*
X347829Y7766D01*
X348323Y8958D01*
X348624Y10213D01*
X348700Y11500D01*
X348624Y12787D01*
X348323Y14042D01*
X347829Y15234D01*
X347154Y16335D01*
X346316Y17316D01*
X345335Y18154D01*
X344234Y18829D01*
X343042Y19323D01*
X341787Y19624D01*
X340500Y19725D01*
X340487Y19724D01*
Y22500D01*
G37*
G36*
X300487Y21000D02*X305204D01*
X305253Y20795D01*
X305584Y19995D01*
X306037Y19257D01*
X306599Y18599D01*
X307257Y18037D01*
X307995Y17584D01*
X308795Y17253D01*
X309637Y17051D01*
X310500Y16983D01*
X311363Y17051D01*
X312205Y17253D01*
X313005Y17584D01*
X313743Y18037D01*
X314401Y18599D01*
X314963Y19257D01*
X315416Y19995D01*
X315747Y20795D01*
X315949Y21637D01*
X316000Y22500D01*
X324983D01*
X325051Y21637D01*
X325253Y20795D01*
X325584Y19995D01*
X326037Y19257D01*
X326599Y18599D01*
X327257Y18037D01*
X327995Y17584D01*
X328795Y17253D01*
X329637Y17051D01*
X330500Y16983D01*
X331363Y17051D01*
X332205Y17253D01*
X333005Y17584D01*
X333743Y18037D01*
X334401Y18599D01*
X334963Y19257D01*
X335416Y19995D01*
X335747Y20795D01*
X335949Y21637D01*
X336000Y22500D01*
X340487D01*
Y19724D01*
X339213Y19624D01*
X337958Y19323D01*
X336766Y18829D01*
X335665Y18154D01*
X334684Y17316D01*
X333846Y16335D01*
X333171Y15234D01*
X332677Y14042D01*
X332376Y12787D01*
X332275Y11500D01*
X332376Y10213D01*
X332677Y8958D01*
X333171Y7766D01*
X333846Y6665D01*
X334684Y5684D01*
X335665Y4846D01*
X336766Y4171D01*
X337958Y3677D01*
X339213Y3376D01*
X340487Y3276D01*
Y1000D01*
X300487D01*
Y3276D01*
X300500Y3275D01*
X301787Y3376D01*
X303042Y3677D01*
X304234Y4171D01*
X305335Y4846D01*
X306316Y5684D01*
X307154Y6665D01*
X307829Y7766D01*
X308323Y8958D01*
X308624Y10213D01*
X308700Y11500D01*
X308624Y12787D01*
X308323Y14042D01*
X307829Y15234D01*
X307154Y16335D01*
X306316Y17316D01*
X305335Y18154D01*
X304234Y18829D01*
X303042Y19323D01*
X301787Y19624D01*
X300500Y19725D01*
X300487Y19724D01*
Y21000D01*
G37*
G36*
X260487Y22500D02*X264983D01*
X265051Y21637D01*
X265253Y20795D01*
X265584Y19995D01*
X266037Y19257D01*
X266599Y18599D01*
X267257Y18037D01*
X267995Y17584D01*
X268795Y17253D01*
X269637Y17051D01*
X270500Y16983D01*
X271363Y17051D01*
X272205Y17253D01*
X273005Y17584D01*
X273743Y18037D01*
X274401Y18599D01*
X274963Y19257D01*
X275416Y19995D01*
X275747Y20795D01*
X275949Y21637D01*
X276000Y22500D01*
X284983D01*
X285051Y21637D01*
X285253Y20795D01*
X285584Y19995D01*
X286037Y19257D01*
X286599Y18599D01*
X287257Y18037D01*
X287995Y17584D01*
X288795Y17253D01*
X289637Y17051D01*
X290500Y16983D01*
X291363Y17051D01*
X292205Y17253D01*
X293005Y17584D01*
X293743Y18037D01*
X294401Y18599D01*
X294963Y19257D01*
X295416Y19995D01*
X295747Y20795D01*
X295949Y21637D01*
X296000Y22500D01*
X297379D01*
X298398Y21481D01*
X298436Y21436D01*
X298616Y21283D01*
X298817Y21159D01*
X299035Y21069D01*
X299265Y21014D01*
X299500Y20995D01*
X299559Y21000D01*
X300487D01*
Y19724D01*
X299213Y19624D01*
X297958Y19323D01*
X296766Y18829D01*
X295665Y18154D01*
X294684Y17316D01*
X293846Y16335D01*
X293171Y15234D01*
X292677Y14042D01*
X292376Y12787D01*
X292275Y11500D01*
X292376Y10213D01*
X292677Y8958D01*
X293171Y7766D01*
X293846Y6665D01*
X294684Y5684D01*
X295665Y4846D01*
X296766Y4171D01*
X297958Y3677D01*
X299213Y3376D01*
X300487Y3276D01*
Y1000D01*
X260487D01*
Y3276D01*
X260500Y3275D01*
X261787Y3376D01*
X263042Y3677D01*
X264234Y4171D01*
X265335Y4846D01*
X266316Y5684D01*
X267154Y6665D01*
X267829Y7766D01*
X268323Y8958D01*
X268624Y10213D01*
X268700Y11500D01*
X268624Y12787D01*
X268323Y14042D01*
X267829Y15234D01*
X267154Y16335D01*
X266316Y17316D01*
X265335Y18154D01*
X264234Y18829D01*
X263042Y19323D01*
X261787Y19624D01*
X260500Y19725D01*
X260487Y19724D01*
Y22500D01*
G37*
G36*
X180487Y21000D02*X185204D01*
X185253Y20795D01*
X185584Y19995D01*
X186037Y19257D01*
X186599Y18599D01*
X187257Y18037D01*
X187995Y17584D01*
X188795Y17253D01*
X189637Y17051D01*
X190500Y16983D01*
X191363Y17051D01*
X192205Y17253D01*
X193005Y17584D01*
X193743Y18037D01*
X194401Y18599D01*
X194963Y19257D01*
X195416Y19995D01*
X195747Y20795D01*
X195949Y21637D01*
X196000Y22500D01*
X204983D01*
X205051Y21637D01*
X205253Y20795D01*
X205584Y19995D01*
X206037Y19257D01*
X206599Y18599D01*
X207257Y18037D01*
X207995Y17584D01*
X208795Y17253D01*
X209637Y17051D01*
X210500Y16983D01*
X211363Y17051D01*
X212205Y17253D01*
X213005Y17584D01*
X213743Y18037D01*
X214401Y18599D01*
X214963Y19257D01*
X215416Y19995D01*
X215747Y20795D01*
X215949Y21637D01*
X216000Y22500D01*
X224983D01*
X225051Y21637D01*
X225253Y20795D01*
X225584Y19995D01*
X226037Y19257D01*
X226599Y18599D01*
X227257Y18037D01*
X227995Y17584D01*
X228795Y17253D01*
X229637Y17051D01*
X230500Y16983D01*
X231363Y17051D01*
X232205Y17253D01*
X233005Y17584D01*
X233743Y18037D01*
X234401Y18599D01*
X234963Y19257D01*
X235416Y19995D01*
X235747Y20795D01*
X235949Y21637D01*
X236000Y22500D01*
X244983D01*
X245051Y21637D01*
X245253Y20795D01*
X245584Y19995D01*
X246037Y19257D01*
X246599Y18599D01*
X247257Y18037D01*
X247995Y17584D01*
X248795Y17253D01*
X249637Y17051D01*
X250500Y16983D01*
X251363Y17051D01*
X252205Y17253D01*
X253005Y17584D01*
X253743Y18037D01*
X254401Y18599D01*
X254963Y19257D01*
X255416Y19995D01*
X255747Y20795D01*
X255949Y21637D01*
X256000Y22500D01*
X260487D01*
Y19724D01*
X259213Y19624D01*
X257958Y19323D01*
X256766Y18829D01*
X255665Y18154D01*
X254684Y17316D01*
X253846Y16335D01*
X253171Y15234D01*
X252677Y14042D01*
X252376Y12787D01*
X252275Y11500D01*
X252376Y10213D01*
X252677Y8958D01*
X253171Y7766D01*
X253846Y6665D01*
X254684Y5684D01*
X255665Y4846D01*
X256766Y4171D01*
X257958Y3677D01*
X259213Y3376D01*
X260487Y3276D01*
Y1000D01*
X180487D01*
Y3276D01*
X180500Y3275D01*
X181787Y3376D01*
X183042Y3677D01*
X184234Y4171D01*
X185335Y4846D01*
X186316Y5684D01*
X187154Y6665D01*
X187829Y7766D01*
X188323Y8958D01*
X188624Y10213D01*
X188700Y11500D01*
X188624Y12787D01*
X188323Y14042D01*
X187829Y15234D01*
X187154Y16335D01*
X186316Y17316D01*
X185335Y18154D01*
X184234Y18829D01*
X183042Y19323D01*
X181787Y19624D01*
X180500Y19725D01*
X180487Y19724D01*
Y21000D01*
G37*
G36*
X140487Y22500D02*X144983D01*
X145051Y21637D01*
X145253Y20795D01*
X145584Y19995D01*
X146037Y19257D01*
X146599Y18599D01*
X147257Y18037D01*
X147995Y17584D01*
X148795Y17253D01*
X149637Y17051D01*
X150500Y16983D01*
X151363Y17051D01*
X152205Y17253D01*
X153005Y17584D01*
X153743Y18037D01*
X154401Y18599D01*
X154963Y19257D01*
X155416Y19995D01*
X155747Y20795D01*
X155949Y21637D01*
X156000Y22500D01*
X164983D01*
X165051Y21637D01*
X165253Y20795D01*
X165584Y19995D01*
X166037Y19257D01*
X166599Y18599D01*
X167257Y18037D01*
X167995Y17584D01*
X168795Y17253D01*
X169637Y17051D01*
X170500Y16983D01*
X171363Y17051D01*
X172205Y17253D01*
X173005Y17584D01*
X173743Y18037D01*
X174401Y18599D01*
X174963Y19257D01*
X175416Y19995D01*
X175747Y20795D01*
X175949Y21637D01*
X176000Y22500D01*
X177379D01*
X178398Y21481D01*
X178436Y21436D01*
X178616Y21283D01*
X178817Y21159D01*
X179035Y21069D01*
X179265Y21014D01*
X179500Y20995D01*
X179559Y21000D01*
X180487D01*
Y19724D01*
X179213Y19624D01*
X177958Y19323D01*
X176766Y18829D01*
X175665Y18154D01*
X174684Y17316D01*
X173846Y16335D01*
X173171Y15234D01*
X172677Y14042D01*
X172376Y12787D01*
X172275Y11500D01*
X172376Y10213D01*
X172677Y8958D01*
X173171Y7766D01*
X173846Y6665D01*
X174684Y5684D01*
X175665Y4846D01*
X176766Y4171D01*
X177958Y3677D01*
X179213Y3376D01*
X180487Y3276D01*
Y1000D01*
X140487D01*
Y3276D01*
X140500Y3275D01*
X141787Y3376D01*
X143042Y3677D01*
X144234Y4171D01*
X145335Y4846D01*
X146316Y5684D01*
X147154Y6665D01*
X147829Y7766D01*
X148323Y8958D01*
X148624Y10213D01*
X148700Y11500D01*
X148624Y12787D01*
X148323Y14042D01*
X147829Y15234D01*
X147154Y16335D01*
X146316Y17316D01*
X145335Y18154D01*
X144234Y18829D01*
X143042Y19323D01*
X141787Y19624D01*
X140500Y19725D01*
X140487Y19724D01*
Y22500D01*
G37*
G36*
X110500Y1000D02*Y16983D01*
X111363Y17051D01*
X112205Y17253D01*
X113005Y17584D01*
X113743Y18037D01*
X114401Y18599D01*
X114963Y19257D01*
X115416Y19995D01*
X115747Y20795D01*
X115949Y21637D01*
X116000Y22500D01*
X124983D01*
X125051Y21637D01*
X125253Y20795D01*
X125584Y19995D01*
X126037Y19257D01*
X126599Y18599D01*
X127257Y18037D01*
X127995Y17584D01*
X128795Y17253D01*
X129637Y17051D01*
X130500Y16983D01*
X131363Y17051D01*
X132205Y17253D01*
X133005Y17584D01*
X133743Y18037D01*
X134401Y18599D01*
X134963Y19257D01*
X135416Y19995D01*
X135747Y20795D01*
X135949Y21637D01*
X136000Y22500D01*
X140487D01*
Y19724D01*
X139213Y19624D01*
X137958Y19323D01*
X136766Y18829D01*
X135665Y18154D01*
X134684Y17316D01*
X133846Y16335D01*
X133171Y15234D01*
X132677Y14042D01*
X132376Y12787D01*
X132275Y11500D01*
X132376Y10213D01*
X132677Y8958D01*
X133171Y7766D01*
X133846Y6665D01*
X134684Y5684D01*
X135665Y4846D01*
X136766Y4171D01*
X137958Y3677D01*
X139213Y3376D01*
X140487Y3276D01*
Y1000D01*
X110500D01*
G37*
G36*
Y16983D01*
X111363Y17051D01*
X112205Y17253D01*
X113005Y17584D01*
X113743Y18037D01*
X114401Y18599D01*
X114963Y19257D01*
X115416Y19995D01*
X115747Y20795D01*
X115949Y21637D01*
X116000Y22500D01*
X115949Y23363D01*
X115747Y24205D01*
X115416Y25005D01*
X114963Y25743D01*
X114401Y26401D01*
X113743Y26963D01*
X113005Y27416D01*
X112205Y27747D01*
X111363Y27949D01*
X110500Y28017D01*
Y54000D01*
X130500D01*
Y28017D01*
X129637Y27949D01*
X128795Y27747D01*
X127995Y27416D01*
X127257Y26963D01*
X126599Y26401D01*
X126037Y25743D01*
X125584Y25005D01*
X125253Y24205D01*
X125051Y23363D01*
X124983Y22500D01*
X125051Y21637D01*
X125253Y20795D01*
X125584Y19995D01*
X126037Y19257D01*
X126599Y18599D01*
X127257Y18037D01*
X127995Y17584D01*
X128795Y17253D01*
X129637Y17051D01*
X130500Y16983D01*
Y1000D01*
X110500D01*
G37*
G36*
X434993Y29500D02*X440500D01*
Y18000D01*
X434993D01*
Y19645D01*
X435078Y19681D01*
X435179Y19743D01*
X435269Y19819D01*
X435345Y19909D01*
X435405Y20011D01*
X435622Y20480D01*
X435789Y20969D01*
X435909Y21472D01*
X435982Y21984D01*
X436006Y22500D01*
X435982Y23016D01*
X435909Y23528D01*
X435789Y24031D01*
X435622Y24520D01*
X435410Y24992D01*
X435349Y25093D01*
X435272Y25184D01*
X435182Y25261D01*
X435080Y25323D01*
X434993Y25360D01*
Y29500D01*
G37*
G36*
X430498D02*X434993D01*
Y25360D01*
X434971Y25369D01*
X434855Y25397D01*
X434737Y25406D01*
X434619Y25397D01*
X434503Y25370D01*
X434393Y25324D01*
X434292Y25262D01*
X434202Y25186D01*
X434124Y25095D01*
X434062Y24994D01*
X434016Y24885D01*
X433989Y24769D01*
X433979Y24651D01*
X433988Y24532D01*
X434016Y24417D01*
X434063Y24308D01*
X434221Y23968D01*
X434342Y23612D01*
X434430Y23247D01*
X434482Y22875D01*
X434500Y22500D01*
X434482Y22125D01*
X434430Y21753D01*
X434342Y21388D01*
X434221Y21032D01*
X434067Y20690D01*
X434020Y20582D01*
X433993Y20467D01*
X433983Y20349D01*
X433993Y20232D01*
X434021Y20117D01*
X434066Y20008D01*
X434128Y19907D01*
X434205Y19818D01*
X434295Y19741D01*
X434395Y19680D01*
X434504Y19635D01*
X434619Y19607D01*
X434737Y19598D01*
X434855Y19608D01*
X434969Y19635D01*
X434993Y19645D01*
Y18000D01*
X433357D01*
X433369Y18029D01*
X433397Y18145D01*
X433406Y18263D01*
X433397Y18381D01*
X433370Y18497D01*
X433324Y18607D01*
X433262Y18708D01*
X433186Y18798D01*
X433095Y18876D01*
X432994Y18938D01*
X432885Y18984D01*
X432769Y19011D01*
X432651Y19021D01*
X432532Y19012D01*
X432417Y18984D01*
X432308Y18937D01*
X431968Y18779D01*
X431612Y18658D01*
X431247Y18570D01*
X430875Y18518D01*
X430500Y18500D01*
X430498Y18500D01*
Y26500D01*
X430500Y26500D01*
X430875Y26482D01*
X431247Y26430D01*
X431612Y26342D01*
X431968Y26221D01*
X432310Y26067D01*
X432418Y26020D01*
X432533Y25993D01*
X432651Y25983D01*
X432768Y25993D01*
X432883Y26021D01*
X432992Y26066D01*
X433093Y26128D01*
X433182Y26205D01*
X433259Y26295D01*
X433320Y26395D01*
X433365Y26504D01*
X433393Y26619D01*
X433402Y26737D01*
X433392Y26855D01*
X433365Y26969D01*
X433319Y27078D01*
X433257Y27179D01*
X433181Y27269D01*
X433091Y27345D01*
X432989Y27405D01*
X432520Y27622D01*
X432031Y27789D01*
X431528Y27909D01*
X431016Y27982D01*
X430500Y28006D01*
X430498Y28006D01*
Y29500D01*
G37*
G36*
X426007D02*X430498D01*
Y28006D01*
X429984Y27982D01*
X429472Y27909D01*
X428969Y27789D01*
X428480Y27622D01*
X428008Y27410D01*
X427907Y27349D01*
X427816Y27272D01*
X427739Y27182D01*
X427677Y27080D01*
X427631Y26971D01*
X427603Y26855D01*
X427594Y26737D01*
X427603Y26619D01*
X427630Y26503D01*
X427676Y26393D01*
X427738Y26292D01*
X427814Y26202D01*
X427905Y26124D01*
X428006Y26062D01*
X428115Y26016D01*
X428231Y25989D01*
X428349Y25979D01*
X428468Y25988D01*
X428583Y26016D01*
X428692Y26063D01*
X429032Y26221D01*
X429388Y26342D01*
X429753Y26430D01*
X430125Y26482D01*
X430498Y26500D01*
Y18500D01*
X430125Y18518D01*
X429753Y18570D01*
X429388Y18658D01*
X429032Y18779D01*
X428690Y18933D01*
X428582Y18980D01*
X428467Y19007D01*
X428349Y19017D01*
X428232Y19007D01*
X428117Y18979D01*
X428008Y18934D01*
X427907Y18872D01*
X427818Y18795D01*
X427741Y18705D01*
X427680Y18605D01*
X427635Y18496D01*
X427607Y18381D01*
X427598Y18263D01*
X427608Y18145D01*
X427635Y18031D01*
X427648Y18000D01*
X426007D01*
Y19640D01*
X426029Y19631D01*
X426145Y19603D01*
X426263Y19594D01*
X426381Y19603D01*
X426497Y19630D01*
X426607Y19676D01*
X426708Y19738D01*
X426798Y19814D01*
X426876Y19905D01*
X426938Y20006D01*
X426984Y20115D01*
X427011Y20231D01*
X427021Y20349D01*
X427012Y20468D01*
X426984Y20583D01*
X426937Y20692D01*
X426779Y21032D01*
X426658Y21388D01*
X426570Y21753D01*
X426518Y22125D01*
X426500Y22500D01*
X426518Y22875D01*
X426570Y23247D01*
X426658Y23612D01*
X426779Y23968D01*
X426933Y24310D01*
X426980Y24418D01*
X427007Y24533D01*
X427017Y24651D01*
X427007Y24768D01*
X426979Y24883D01*
X426934Y24992D01*
X426872Y25093D01*
X426795Y25182D01*
X426705Y25259D01*
X426605Y25320D01*
X426496Y25365D01*
X426381Y25393D01*
X426263Y25402D01*
X426145Y25392D01*
X426031Y25365D01*
X426007Y25355D01*
Y29500D01*
G37*
G36*
X414993D02*X426007D01*
Y25355D01*
X425922Y25319D01*
X425821Y25257D01*
X425731Y25181D01*
X425655Y25091D01*
X425595Y24989D01*
X425378Y24520D01*
X425211Y24031D01*
X425091Y23528D01*
X425018Y23016D01*
X424994Y22500D01*
X425018Y21984D01*
X425091Y21472D01*
X425211Y20969D01*
X425378Y20480D01*
X425590Y20008D01*
X425651Y19907D01*
X425728Y19816D01*
X425818Y19739D01*
X425920Y19677D01*
X426007Y19640D01*
Y18000D01*
X414993D01*
Y19645D01*
X415078Y19681D01*
X415179Y19743D01*
X415269Y19819D01*
X415345Y19909D01*
X415405Y20011D01*
X415622Y20480D01*
X415789Y20969D01*
X415909Y21472D01*
X415982Y21984D01*
X416006Y22500D01*
X415982Y23016D01*
X415909Y23528D01*
X415789Y24031D01*
X415622Y24520D01*
X415410Y24992D01*
X415349Y25093D01*
X415272Y25184D01*
X415182Y25261D01*
X415080Y25323D01*
X414993Y25360D01*
Y29500D01*
G37*
G36*
X410498D02*X414993D01*
Y25360D01*
X414971Y25369D01*
X414855Y25397D01*
X414737Y25406D01*
X414619Y25397D01*
X414503Y25370D01*
X414393Y25324D01*
X414292Y25262D01*
X414202Y25186D01*
X414124Y25095D01*
X414062Y24994D01*
X414016Y24885D01*
X413989Y24769D01*
X413979Y24651D01*
X413988Y24532D01*
X414016Y24417D01*
X414063Y24308D01*
X414221Y23968D01*
X414342Y23612D01*
X414430Y23247D01*
X414482Y22875D01*
X414500Y22500D01*
X414482Y22125D01*
X414430Y21753D01*
X414342Y21388D01*
X414221Y21032D01*
X414067Y20690D01*
X414020Y20582D01*
X413993Y20467D01*
X413983Y20349D01*
X413993Y20232D01*
X414021Y20117D01*
X414066Y20008D01*
X414128Y19907D01*
X414205Y19818D01*
X414295Y19741D01*
X414395Y19680D01*
X414504Y19635D01*
X414619Y19607D01*
X414737Y19598D01*
X414855Y19608D01*
X414969Y19635D01*
X414993Y19645D01*
Y18000D01*
X413357D01*
X413369Y18029D01*
X413397Y18145D01*
X413406Y18263D01*
X413397Y18381D01*
X413370Y18497D01*
X413324Y18607D01*
X413262Y18708D01*
X413186Y18798D01*
X413095Y18876D01*
X412994Y18938D01*
X412885Y18984D01*
X412769Y19011D01*
X412651Y19021D01*
X412532Y19012D01*
X412417Y18984D01*
X412308Y18937D01*
X411968Y18779D01*
X411612Y18658D01*
X411247Y18570D01*
X410875Y18518D01*
X410500Y18500D01*
X410498Y18500D01*
Y26500D01*
X410500Y26500D01*
X410875Y26482D01*
X411247Y26430D01*
X411612Y26342D01*
X411968Y26221D01*
X412310Y26067D01*
X412418Y26020D01*
X412533Y25993D01*
X412651Y25983D01*
X412768Y25993D01*
X412883Y26021D01*
X412992Y26066D01*
X413093Y26128D01*
X413182Y26205D01*
X413259Y26295D01*
X413320Y26395D01*
X413365Y26504D01*
X413393Y26619D01*
X413402Y26737D01*
X413392Y26855D01*
X413365Y26969D01*
X413319Y27078D01*
X413257Y27179D01*
X413181Y27269D01*
X413091Y27345D01*
X412989Y27405D01*
X412520Y27622D01*
X412031Y27789D01*
X411528Y27909D01*
X411016Y27982D01*
X410500Y28006D01*
X410498Y28006D01*
Y29500D01*
G37*
G36*
X406007D02*X410498D01*
Y28006D01*
X409984Y27982D01*
X409472Y27909D01*
X408969Y27789D01*
X408480Y27622D01*
X408008Y27410D01*
X407907Y27349D01*
X407816Y27272D01*
X407739Y27182D01*
X407677Y27080D01*
X407631Y26971D01*
X407603Y26855D01*
X407594Y26737D01*
X407603Y26619D01*
X407630Y26503D01*
X407676Y26393D01*
X407738Y26292D01*
X407814Y26202D01*
X407905Y26124D01*
X408006Y26062D01*
X408115Y26016D01*
X408231Y25989D01*
X408349Y25979D01*
X408468Y25988D01*
X408583Y26016D01*
X408692Y26063D01*
X409032Y26221D01*
X409388Y26342D01*
X409753Y26430D01*
X410125Y26482D01*
X410498Y26500D01*
Y18500D01*
X410125Y18518D01*
X409753Y18570D01*
X409388Y18658D01*
X409032Y18779D01*
X408690Y18933D01*
X408582Y18980D01*
X408467Y19007D01*
X408349Y19017D01*
X408232Y19007D01*
X408117Y18979D01*
X408008Y18934D01*
X407907Y18872D01*
X407818Y18795D01*
X407741Y18705D01*
X407680Y18605D01*
X407635Y18496D01*
X407607Y18381D01*
X407598Y18263D01*
X407608Y18145D01*
X407635Y18031D01*
X407648Y18000D01*
X406007D01*
Y19640D01*
X406029Y19631D01*
X406145Y19603D01*
X406263Y19594D01*
X406381Y19603D01*
X406497Y19630D01*
X406607Y19676D01*
X406708Y19738D01*
X406798Y19814D01*
X406876Y19905D01*
X406938Y20006D01*
X406984Y20115D01*
X407011Y20231D01*
X407021Y20349D01*
X407012Y20468D01*
X406984Y20583D01*
X406937Y20692D01*
X406779Y21032D01*
X406658Y21388D01*
X406570Y21753D01*
X406518Y22125D01*
X406500Y22500D01*
X406518Y22875D01*
X406570Y23247D01*
X406658Y23612D01*
X406779Y23968D01*
X406933Y24310D01*
X406980Y24418D01*
X407007Y24533D01*
X407017Y24651D01*
X407007Y24768D01*
X406979Y24883D01*
X406934Y24992D01*
X406872Y25093D01*
X406795Y25182D01*
X406705Y25259D01*
X406605Y25320D01*
X406496Y25365D01*
X406381Y25393D01*
X406263Y25402D01*
X406145Y25392D01*
X406031Y25365D01*
X406007Y25355D01*
Y29500D01*
G37*
G36*
X399500D02*X406007D01*
Y25355D01*
X405922Y25319D01*
X405821Y25257D01*
X405731Y25181D01*
X405655Y25091D01*
X405595Y24989D01*
X405378Y24520D01*
X405211Y24031D01*
X405091Y23528D01*
X405018Y23016D01*
X404994Y22500D01*
X405018Y21984D01*
X405091Y21472D01*
X405211Y20969D01*
X405378Y20480D01*
X405590Y20008D01*
X405651Y19907D01*
X405728Y19816D01*
X405818Y19739D01*
X405920Y19677D01*
X406007Y19640D01*
Y18000D01*
X399500D01*
Y29500D01*
G37*
G36*
X221000Y84500D02*X226500D01*
Y78470D01*
X226228Y78151D01*
X225997Y77775D01*
X225829Y77368D01*
X225726Y76939D01*
X225691Y76500D01*
X225726Y76061D01*
X225829Y75632D01*
X225997Y75225D01*
X226228Y74849D01*
X226500Y74530D01*
Y56000D01*
X221000D01*
Y78595D01*
X223405D01*
X223719Y78614D01*
X224025Y78687D01*
X224316Y78807D01*
X224584Y78972D01*
X224824Y79176D01*
X225028Y79416D01*
X225193Y79684D01*
X225313Y79975D01*
X225387Y80281D01*
X225411Y80595D01*
X225387Y80909D01*
X225313Y81215D01*
X225193Y81506D01*
X225028Y81774D01*
X224824Y82014D01*
X224584Y82218D01*
X224316Y82383D01*
X224025Y82503D01*
X223719Y82576D01*
X223405Y82595D01*
X221000D01*
Y84500D01*
G37*
G36*
Y83000D02*X226000D01*
Y78000D01*
X221000D01*
Y83000D01*
G37*
G36*
X430500Y22500D02*X434500D01*
X434482Y22125D01*
X434430Y21753D01*
X434342Y21388D01*
X434221Y21032D01*
X434067Y20690D01*
X434020Y20582D01*
X433993Y20467D01*
X433983Y20349D01*
X433993Y20232D01*
X434021Y20117D01*
X434066Y20008D01*
X434128Y19907D01*
X434205Y19818D01*
X434295Y19741D01*
X434395Y19680D01*
X434504Y19635D01*
X434619Y19607D01*
X434737Y19598D01*
X434855Y19608D01*
X434969Y19635D01*
X435078Y19681D01*
X435179Y19743D01*
X435269Y19819D01*
X435345Y19909D01*
X435405Y20011D01*
X435622Y20480D01*
X435789Y20969D01*
X435909Y21472D01*
X435982Y21984D01*
X436006Y22500D01*
X444983D01*
X445051Y21637D01*
X445253Y20795D01*
X445584Y19995D01*
X446037Y19257D01*
X446599Y18599D01*
X447257Y18037D01*
X447995Y17584D01*
X448795Y17253D01*
X449637Y17051D01*
X450500Y16983D01*
X451363Y17051D01*
X452205Y17253D01*
X453005Y17584D01*
X453743Y18037D01*
X454401Y18599D01*
X454963Y19257D01*
X455416Y19995D01*
X455747Y20795D01*
X455949Y21637D01*
X456000Y22500D01*
X464983D01*
X465051Y21637D01*
X465253Y20795D01*
X465584Y19995D01*
X466037Y19257D01*
X466599Y18599D01*
X467257Y18037D01*
X467995Y17584D01*
X468795Y17253D01*
X469637Y17051D01*
X470500Y16983D01*
X471363Y17051D01*
X472205Y17253D01*
X473005Y17584D01*
X473743Y18037D01*
X474401Y18599D01*
X474963Y19257D01*
X475416Y19995D01*
X475747Y20795D01*
X475949Y21637D01*
X476000Y22500D01*
X484983D01*
X485051Y21637D01*
X485253Y20795D01*
X485584Y19995D01*
X486037Y19257D01*
X486599Y18599D01*
X487257Y18037D01*
X487995Y17584D01*
X488795Y17253D01*
X489637Y17051D01*
X490500Y16983D01*
X491363Y17051D01*
X492205Y17253D01*
X493005Y17584D01*
X493743Y18037D01*
X494401Y18599D01*
X494963Y19257D01*
X495416Y19995D01*
X495747Y20795D01*
X495949Y21637D01*
X496000Y22500D01*
X504983D01*
X505051Y21637D01*
X505253Y20795D01*
X505584Y19995D01*
X506037Y19257D01*
X506599Y18599D01*
X507257Y18037D01*
X507995Y17584D01*
X508795Y17253D01*
X509637Y17051D01*
X510500Y16983D01*
X511363Y17051D01*
X512205Y17253D01*
X513005Y17584D01*
X513743Y18037D01*
X514401Y18599D01*
X514963Y19257D01*
X515416Y19995D01*
X515747Y20795D01*
X515949Y21637D01*
X516000Y22500D01*
X524983D01*
X525051Y21637D01*
X525253Y20795D01*
X525584Y19995D01*
X526037Y19257D01*
X526599Y18599D01*
X527257Y18037D01*
X527995Y17584D01*
X528795Y17253D01*
X529637Y17051D01*
X530500Y16983D01*
X531363Y17051D01*
X532205Y17253D01*
X533005Y17584D01*
X533743Y18037D01*
X534401Y18599D01*
X534963Y19257D01*
X535416Y19995D01*
X535747Y20795D01*
X535949Y21637D01*
X536000Y22500D01*
X544983D01*
X545051Y21637D01*
X545253Y20795D01*
X545584Y19995D01*
X546037Y19257D01*
X546599Y18599D01*
X547257Y18037D01*
X547995Y17584D01*
X548795Y17253D01*
X549637Y17051D01*
X550500Y16983D01*
X551363Y17051D01*
X552205Y17253D01*
X553005Y17584D01*
X553743Y18037D01*
X554401Y18599D01*
X554963Y19257D01*
X555416Y19995D01*
X555747Y20795D01*
X555949Y21637D01*
X556000Y22500D01*
X558050D01*
X558428Y22122D01*
X558517Y22017D01*
X558936Y21660D01*
X559406Y21372D01*
X559915Y21161D01*
X560451Y21032D01*
X560451D01*
X561000Y20989D01*
X561137Y21000D01*
X570211D01*
X570213Y18969D01*
X570250Y18816D01*
X570310Y18671D01*
X570392Y18536D01*
X570495Y18417D01*
X570614Y18314D01*
X570749Y18232D01*
X570894Y18172D01*
X571047Y18135D01*
X571204Y18126D01*
X575141Y18135D01*
X575294Y18172D01*
X575439Y18232D01*
X575574Y18314D01*
X575693Y18417D01*
X575796Y18536D01*
X575878Y18671D01*
X575938Y18816D01*
X575975Y18969D01*
X575984Y19126D01*
X575980Y22500D01*
X581858D01*
X581902Y21935D01*
X582022Y21435D01*
X582025Y18969D01*
X582062Y18816D01*
X582122Y18671D01*
X582204Y18536D01*
X582307Y18417D01*
X582426Y18314D01*
X582561Y18232D01*
X582706Y18172D01*
X582859Y18135D01*
X583016Y18126D01*
X586953Y18135D01*
X587106Y18172D01*
X587251Y18232D01*
X587386Y18314D01*
X587505Y18417D01*
X587608Y18536D01*
X587690Y18671D01*
X587750Y18816D01*
X587770Y18900D01*
X592500D01*
X593065Y18933D01*
X593616Y19066D01*
X594139Y19282D01*
X594623Y19579D01*
X595053Y19947D01*
X595421Y20377D01*
X595718Y20861D01*
X595934Y21384D01*
X596032Y21789D01*
X596743Y22500D01*
X598500D01*
Y1000D01*
X430500D01*
Y16994D01*
X431016Y17018D01*
X431528Y17091D01*
X432031Y17211D01*
X432520Y17378D01*
X432992Y17590D01*
X433093Y17651D01*
X433184Y17728D01*
X433261Y17818D01*
X433323Y17920D01*
X433369Y18029D01*
X433397Y18145D01*
X433406Y18263D01*
X433397Y18381D01*
X433370Y18497D01*
X433324Y18607D01*
X433262Y18708D01*
X433186Y18798D01*
X433095Y18876D01*
X432994Y18938D01*
X432885Y18984D01*
X432769Y19011D01*
X432651Y19021D01*
X432532Y19012D01*
X432417Y18984D01*
X432308Y18937D01*
X431968Y18779D01*
X431612Y18658D01*
X431247Y18570D01*
X430875Y18518D01*
X430500Y18500D01*
Y22500D01*
G37*
G36*
X591500Y26500D02*X587787D01*
X587787Y27157D01*
X587750Y27310D01*
X587690Y27455D01*
X587608Y27590D01*
X587505Y27709D01*
X587386Y27812D01*
X587251Y27894D01*
X587106Y27954D01*
X586953Y27991D01*
X586796Y28000D01*
X582859Y27991D01*
X582706Y27954D01*
X582561Y27894D01*
X582426Y27812D01*
X582307Y27709D01*
X582204Y27590D01*
X582122Y27455D01*
X582062Y27310D01*
X582025Y27157D01*
X582016Y27000D01*
X582017Y26500D01*
X575975D01*
X575975Y27157D01*
X575938Y27310D01*
X575878Y27455D01*
X575796Y27590D01*
X575693Y27709D01*
X575574Y27812D01*
X575439Y27894D01*
X575294Y27954D01*
X575141Y27991D01*
X574984Y28000D01*
X572114Y27993D01*
X572000Y28000D01*
X562450D01*
X562000Y28450D01*
Y51000D01*
X591500D01*
Y26500D01*
G37*
G36*
X555000Y65500D02*X573000D01*
Y43500D01*
X555000D01*
Y65500D01*
G37*
G36*
Y46500D02*X565000D01*
Y28000D01*
X562450D01*
X555000Y35450D01*
Y46500D01*
G37*
G36*
X579000Y88000D02*X597500D01*
Y54500D01*
X595618D01*
X595500Y54509D01*
X595382Y54500D01*
X579000D01*
Y88000D01*
G37*
G36*
X30000Y86000D02*X27250D01*
Y91748D01*
X27368Y91757D01*
X27482Y91785D01*
X27592Y91830D01*
X27692Y91891D01*
X27782Y91968D01*
X27859Y92058D01*
X27920Y92158D01*
X27965Y92268D01*
X27993Y92382D01*
X28000Y92500D01*
Y97500D01*
X27993Y97618D01*
X27965Y97732D01*
X27920Y97842D01*
X27859Y97942D01*
X27782Y98032D01*
X27692Y98109D01*
X27592Y98170D01*
X27482Y98215D01*
X27368Y98243D01*
X27250Y98252D01*
Y119500D01*
X30000D01*
Y86000D01*
G37*
G36*
X27250D02*X22500D01*
Y89500D01*
X25000D01*
X25118Y89507D01*
X25232Y89535D01*
X25342Y89580D01*
X25442Y89641D01*
X25532Y89718D01*
X25609Y89808D01*
X25670Y89908D01*
X25715Y90018D01*
X25743Y90132D01*
X25752Y90250D01*
X25743Y90368D01*
X25715Y90482D01*
X25670Y90592D01*
X25609Y90692D01*
X25532Y90782D01*
X25442Y90859D01*
X25342Y90920D01*
X25232Y90965D01*
X25118Y90993D01*
X25000Y91000D01*
X22500D01*
Y99000D01*
X25000D01*
X25118Y99007D01*
X25232Y99035D01*
X25342Y99080D01*
X25442Y99141D01*
X25532Y99218D01*
X25609Y99308D01*
X25670Y99408D01*
X25715Y99518D01*
X25743Y99632D01*
X25752Y99750D01*
X25743Y99868D01*
X25715Y99982D01*
X25670Y100092D01*
X25609Y100192D01*
X25532Y100282D01*
X25442Y100359D01*
X25342Y100420D01*
X25232Y100465D01*
X25118Y100493D01*
X25000Y100500D01*
X22500D01*
Y112102D01*
X25457Y112109D01*
X25610Y112146D01*
X25755Y112206D01*
X25890Y112288D01*
X26009Y112391D01*
X26112Y112510D01*
X26194Y112645D01*
X26254Y112790D01*
X26291Y112943D01*
X26300Y113100D01*
X26291Y118057D01*
X26254Y118210D01*
X26194Y118355D01*
X26112Y118490D01*
X26009Y118609D01*
X25890Y118712D01*
X25755Y118794D01*
X25610Y118854D01*
X25457Y118891D01*
X25300Y118900D01*
X22500Y118893D01*
Y119500D01*
X27250D01*
Y98252D01*
X27132Y98243D01*
X27018Y98215D01*
X26908Y98170D01*
X26808Y98109D01*
X26718Y98032D01*
X26641Y97942D01*
X26580Y97842D01*
X26535Y97732D01*
X26507Y97618D01*
X26500Y97500D01*
Y92500D01*
X26507Y92382D01*
X26535Y92268D01*
X26580Y92158D01*
X26641Y92058D01*
X26718Y91968D01*
X26808Y91891D01*
X26908Y91830D01*
X27018Y91785D01*
X27132Y91757D01*
X27250Y91748D01*
Y86000D01*
G37*
G36*
X22500D02*X17750D01*
Y91748D01*
X17868Y91757D01*
X17982Y91785D01*
X18092Y91830D01*
X18192Y91891D01*
X18282Y91968D01*
X18359Y92058D01*
X18420Y92158D01*
X18465Y92268D01*
X18493Y92382D01*
X18500Y92500D01*
Y97500D01*
X18493Y97618D01*
X18465Y97732D01*
X18420Y97842D01*
X18359Y97942D01*
X18282Y98032D01*
X18192Y98109D01*
X18092Y98170D01*
X17982Y98215D01*
X17868Y98243D01*
X17750Y98252D01*
Y119500D01*
X22500D01*
Y118893D01*
X21543Y118891D01*
X21390Y118854D01*
X21245Y118794D01*
X21110Y118712D01*
X20991Y118609D01*
X20888Y118490D01*
X20806Y118355D01*
X20746Y118210D01*
X20709Y118057D01*
X20700Y117900D01*
X20709Y112943D01*
X20746Y112790D01*
X20806Y112645D01*
X20888Y112510D01*
X20991Y112391D01*
X21110Y112288D01*
X21245Y112206D01*
X21390Y112146D01*
X21543Y112109D01*
X21700Y112100D01*
X22500Y112102D01*
Y100500D01*
X20000D01*
X19882Y100493D01*
X19768Y100465D01*
X19658Y100420D01*
X19558Y100359D01*
X19468Y100282D01*
X19391Y100192D01*
X19330Y100092D01*
X19285Y99982D01*
X19257Y99868D01*
X19248Y99750D01*
X19257Y99632D01*
X19285Y99518D01*
X19330Y99408D01*
X19391Y99308D01*
X19468Y99218D01*
X19558Y99141D01*
X19658Y99080D01*
X19768Y99035D01*
X19882Y99007D01*
X20000Y99000D01*
X22500D01*
Y91000D01*
X20000D01*
X19882Y90993D01*
X19768Y90965D01*
X19658Y90920D01*
X19558Y90859D01*
X19468Y90782D01*
X19391Y90692D01*
X19330Y90592D01*
X19285Y90482D01*
X19257Y90368D01*
X19248Y90250D01*
X19257Y90132D01*
X19285Y90018D01*
X19330Y89908D01*
X19391Y89808D01*
X19468Y89718D01*
X19558Y89641D01*
X19658Y89580D01*
X19768Y89535D01*
X19882Y89507D01*
X20000Y89500D01*
X22500D01*
Y86000D01*
G37*
G36*
X17750D02*X15000D01*
Y119500D01*
X17750D01*
Y98252D01*
X17632Y98243D01*
X17518Y98215D01*
X17408Y98170D01*
X17308Y98109D01*
X17218Y98032D01*
X17141Y97942D01*
X17080Y97842D01*
X17035Y97732D01*
X17007Y97618D01*
X17000Y97500D01*
Y92500D01*
X17007Y92382D01*
X17035Y92268D01*
X17080Y92158D01*
X17141Y92058D01*
X17218Y91968D01*
X17308Y91891D01*
X17408Y91830D01*
X17518Y91785D01*
X17632Y91757D01*
X17750Y91748D01*
Y86000D01*
G37*
G36*
X15000Y119500D02*X30000D01*
Y109000D01*
X15000D01*
Y119500D01*
G37*
G36*
X33000D02*X42500D01*
Y109500D01*
X33000D01*
Y119500D01*
G37*
G36*
X92500Y119025D02*X93000Y118986D01*
X93706Y119042D01*
X94395Y119207D01*
X95049Y119478D01*
X95085Y119500D01*
X133500D01*
Y105888D01*
X133333Y105991D01*
X133115Y106081D01*
X132885Y106136D01*
X132650Y106150D01*
X128115Y106136D01*
X127885Y106081D01*
X127667Y105991D01*
X127466Y105867D01*
X127286Y105714D01*
X127133Y105534D01*
X127009Y105333D01*
X126919Y105115D01*
X126864Y104885D01*
X126850Y104650D01*
X126864Y91115D01*
X126919Y90885D01*
X127009Y90667D01*
X127133Y90466D01*
X127286Y90286D01*
X127466Y90133D01*
X127667Y90009D01*
X127885Y89919D01*
X128115Y89864D01*
X128350Y89850D01*
X132885Y89864D01*
X133115Y89919D01*
X133333Y90009D01*
X133500Y90112D01*
Y86000D01*
X92500D01*
Y89857D01*
X94885Y89864D01*
X95115Y89919D01*
X95333Y90009D01*
X95534Y90133D01*
X95714Y90286D01*
X95867Y90466D01*
X95991Y90667D01*
X96081Y90885D01*
X96136Y91115D01*
X96150Y91350D01*
X96136Y104885D01*
X96081Y105115D01*
X95991Y105333D01*
X95867Y105534D01*
X95714Y105714D01*
X95534Y105867D01*
X95333Y105991D01*
X95115Y106081D01*
X94885Y106136D01*
X94650Y106150D01*
X92500Y106143D01*
Y119025D01*
G37*
G36*
X36400Y119500D02*X70915D01*
X70951Y119478D01*
X71605Y119207D01*
X72294Y119042D01*
X73000Y118986D01*
X73706Y119042D01*
X74395Y119207D01*
X75049Y119478D01*
X75085Y119500D01*
X80915D01*
X80951Y119478D01*
X81605Y119207D01*
X82294Y119042D01*
X83000Y118986D01*
X83706Y119042D01*
X84395Y119207D01*
X85049Y119478D01*
X85085Y119500D01*
X90915D01*
X90951Y119478D01*
X91605Y119207D01*
X92294Y119042D01*
X92500Y119025D01*
Y106143D01*
X90115Y106136D01*
X89885Y106081D01*
X89667Y105991D01*
X89466Y105867D01*
X89286Y105714D01*
X89133Y105534D01*
X89009Y105333D01*
X88919Y105115D01*
X88864Y104885D01*
X88850Y104650D01*
X88864Y91115D01*
X88919Y90885D01*
X89009Y90667D01*
X89133Y90466D01*
X89286Y90286D01*
X89466Y90133D01*
X89667Y90009D01*
X89885Y89919D01*
X90115Y89864D01*
X90350Y89850D01*
X92500Y89857D01*
Y86000D01*
X72625D01*
X72539Y87461D01*
X71962Y89862D01*
X71018Y92142D01*
X69728Y94247D01*
X68124Y96124D01*
X66247Y97728D01*
X64142Y99018D01*
X61862Y99962D01*
X59461Y100539D01*
X57000Y100732D01*
X54539Y100539D01*
X54378Y100500D01*
X36400D01*
Y112104D01*
X38357Y112109D01*
X38510Y112146D01*
X38655Y112206D01*
X38790Y112288D01*
X38909Y112391D01*
X39012Y112510D01*
X39094Y112645D01*
X39154Y112790D01*
X39191Y112943D01*
X39200Y113100D01*
X39191Y118057D01*
X39154Y118210D01*
X39094Y118355D01*
X39012Y118490D01*
X38909Y118609D01*
X38790Y118712D01*
X38655Y118794D01*
X38510Y118854D01*
X38357Y118891D01*
X38200Y118900D01*
X36400Y118896D01*
Y119500D01*
G37*
G36*
X33000D02*X36400D01*
Y118896D01*
X34443Y118891D01*
X34290Y118854D01*
X34145Y118794D01*
X34010Y118712D01*
X33891Y118609D01*
X33788Y118490D01*
X33706Y118355D01*
X33646Y118210D01*
X33609Y118057D01*
X33600Y117900D01*
X33609Y112943D01*
X33646Y112790D01*
X33706Y112645D01*
X33788Y112510D01*
X33891Y112391D01*
X34010Y112288D01*
X34145Y112206D01*
X34290Y112146D01*
X34443Y112109D01*
X34600Y112100D01*
X36400Y112104D01*
Y100500D01*
X33000D01*
Y119500D01*
G37*
G36*
X82500Y86000D02*Y106500D01*
X135000D01*
Y86000D01*
X82500D01*
G37*
G36*
X92500Y84000D02*X133500D01*
Y80388D01*
X133333Y80491D01*
X133115Y80581D01*
X132885Y80636D01*
X132650Y80650D01*
X128115Y80636D01*
X127885Y80581D01*
X127667Y80491D01*
X127466Y80367D01*
X127286Y80214D01*
X127133Y80034D01*
X127009Y79833D01*
X126919Y79615D01*
X126864Y79385D01*
X126850Y79150D01*
X126864Y65515D01*
X126919Y65285D01*
X127009Y65067D01*
X127133Y64866D01*
X127286Y64686D01*
X127466Y64533D01*
X127667Y64409D01*
X127885Y64319D01*
X128115Y64264D01*
X128350Y64250D01*
X132885Y64264D01*
X133115Y64319D01*
X133333Y64409D01*
X133500Y64512D01*
Y50500D01*
X92500D01*
Y64257D01*
X94885Y64264D01*
X95115Y64319D01*
X95333Y64409D01*
X95534Y64533D01*
X95714Y64686D01*
X95867Y64866D01*
X95991Y65067D01*
X96081Y65285D01*
X96136Y65515D01*
X96150Y65750D01*
X96136Y79385D01*
X96081Y79615D01*
X95991Y79833D01*
X95867Y80034D01*
X95714Y80214D01*
X95534Y80367D01*
X95333Y80491D01*
X95115Y80581D01*
X94885Y80636D01*
X94650Y80650D01*
X92500Y80643D01*
Y84000D01*
G37*
G36*
X33000Y50500D02*Y69500D01*
X54378D01*
X54539Y69461D01*
X57000Y69268D01*
X59461Y69461D01*
X61862Y70038D01*
X64142Y70982D01*
X66247Y72272D01*
X68124Y73876D01*
X69728Y75753D01*
X71018Y77858D01*
X71962Y80138D01*
X72539Y82539D01*
X72625Y84000D01*
X92500D01*
Y80643D01*
X90115Y80636D01*
X89885Y80581D01*
X89667Y80491D01*
X89466Y80367D01*
X89286Y80214D01*
X89133Y80034D01*
X89009Y79833D01*
X88919Y79615D01*
X88864Y79385D01*
X88850Y79150D01*
X88864Y65515D01*
X88919Y65285D01*
X89009Y65067D01*
X89133Y64866D01*
X89286Y64686D01*
X89466Y64533D01*
X89667Y64409D01*
X89885Y64319D01*
X90115Y64264D01*
X90350Y64250D01*
X92500Y64257D01*
Y50500D01*
X90085D01*
X90049Y50522D01*
X89395Y50793D01*
X88706Y50958D01*
X88000Y51014D01*
X87294Y50958D01*
X86605Y50793D01*
X85951Y50522D01*
X85915Y50500D01*
X80085D01*
X80049Y50522D01*
X79395Y50793D01*
X78706Y50958D01*
X78000Y51014D01*
X77294Y50958D01*
X76605Y50793D01*
X75951Y50522D01*
X75915Y50500D01*
X70085D01*
X70049Y50522D01*
X69395Y50793D01*
X68706Y50958D01*
X68000Y51014D01*
X67294Y50958D01*
X66605Y50793D01*
X65951Y50522D01*
X65915Y50500D01*
X33000D01*
G37*
G36*
X82500Y63000D02*Y84000D01*
X133500D01*
Y63000D01*
X82500D01*
G37*
G36*
X131500Y112500D02*X141000Y103000D01*
X134138D01*
X134136Y104885D01*
X134081Y105115D01*
X133991Y105333D01*
X133867Y105534D01*
X133714Y105714D01*
X133534Y105867D01*
X133333Y105991D01*
X133115Y106081D01*
X132885Y106136D01*
X132650Y106150D01*
X131500Y106146D01*
Y112500D01*
G37*
G36*
X34993Y84500D02*X41000D01*
Y10500D01*
X34993D01*
Y19645D01*
X35078Y19681D01*
X35179Y19743D01*
X35269Y19819D01*
X35345Y19909D01*
X35405Y20011D01*
X35622Y20480D01*
X35789Y20969D01*
X35909Y21472D01*
X35982Y21984D01*
X36006Y22500D01*
X35982Y23016D01*
X35909Y23528D01*
X35789Y24031D01*
X35622Y24520D01*
X35410Y24992D01*
X35349Y25093D01*
X35272Y25184D01*
X35182Y25261D01*
X35080Y25323D01*
X34993Y25360D01*
Y84500D01*
G37*
G36*
X30502D02*X34993D01*
Y25360D01*
X34971Y25369D01*
X34855Y25397D01*
X34737Y25406D01*
X34619Y25397D01*
X34503Y25370D01*
X34393Y25324D01*
X34292Y25262D01*
X34202Y25186D01*
X34124Y25095D01*
X34062Y24994D01*
X34016Y24885D01*
X33989Y24769D01*
X33979Y24651D01*
X33988Y24532D01*
X34016Y24417D01*
X34063Y24308D01*
X34221Y23968D01*
X34342Y23612D01*
X34430Y23247D01*
X34482Y22875D01*
X34500Y22500D01*
X34482Y22125D01*
X34430Y21753D01*
X34342Y21388D01*
X34221Y21032D01*
X34067Y20690D01*
X34020Y20582D01*
X33993Y20467D01*
X33983Y20349D01*
X33993Y20232D01*
X34021Y20117D01*
X34066Y20008D01*
X34128Y19907D01*
X34205Y19818D01*
X34295Y19741D01*
X34395Y19680D01*
X34504Y19635D01*
X34619Y19607D01*
X34737Y19598D01*
X34855Y19608D01*
X34969Y19635D01*
X34993Y19645D01*
Y10500D01*
X30502D01*
Y16994D01*
X31016Y17018D01*
X31528Y17091D01*
X32031Y17211D01*
X32520Y17378D01*
X32992Y17590D01*
X33093Y17651D01*
X33184Y17728D01*
X33261Y17818D01*
X33323Y17920D01*
X33369Y18029D01*
X33397Y18145D01*
X33406Y18263D01*
X33397Y18381D01*
X33370Y18497D01*
X33324Y18607D01*
X33262Y18708D01*
X33186Y18798D01*
X33095Y18876D01*
X32994Y18938D01*
X32885Y18984D01*
X32769Y19011D01*
X32651Y19021D01*
X32532Y19012D01*
X32417Y18984D01*
X32308Y18937D01*
X31968Y18779D01*
X31612Y18658D01*
X31247Y18570D01*
X30875Y18518D01*
X30502Y18500D01*
Y26500D01*
X30875Y26482D01*
X31247Y26430D01*
X31612Y26342D01*
X31968Y26221D01*
X32310Y26067D01*
X32418Y26020D01*
X32533Y25993D01*
X32651Y25983D01*
X32768Y25993D01*
X32883Y26021D01*
X32992Y26066D01*
X33093Y26128D01*
X33182Y26205D01*
X33259Y26295D01*
X33320Y26395D01*
X33365Y26504D01*
X33393Y26619D01*
X33402Y26737D01*
X33392Y26855D01*
X33365Y26969D01*
X33319Y27078D01*
X33257Y27179D01*
X33181Y27269D01*
X33091Y27345D01*
X32989Y27405D01*
X32520Y27622D01*
X32031Y27789D01*
X31528Y27909D01*
X31016Y27982D01*
X30502Y28006D01*
Y84500D01*
G37*
G36*
X26993D02*X30502D01*
Y28006D01*
X30500Y28006D01*
X29984Y27982D01*
X29472Y27909D01*
X28969Y27789D01*
X28480Y27622D01*
X28008Y27410D01*
X27907Y27349D01*
X27816Y27272D01*
X27739Y27182D01*
X27677Y27080D01*
X27631Y26971D01*
X27603Y26855D01*
X27594Y26737D01*
X27603Y26619D01*
X27630Y26503D01*
X27676Y26393D01*
X27738Y26292D01*
X27814Y26202D01*
X27905Y26124D01*
X28006Y26062D01*
X28115Y26016D01*
X28231Y25989D01*
X28349Y25979D01*
X28468Y25988D01*
X28583Y26016D01*
X28692Y26063D01*
X29032Y26221D01*
X29388Y26342D01*
X29753Y26430D01*
X30125Y26482D01*
X30500Y26500D01*
X30502Y26500D01*
Y18500D01*
X30500Y18500D01*
X30125Y18518D01*
X29753Y18570D01*
X29388Y18658D01*
X29032Y18779D01*
X28690Y18933D01*
X28582Y18980D01*
X28467Y19007D01*
X28349Y19017D01*
X28232Y19007D01*
X28117Y18979D01*
X28008Y18934D01*
X27907Y18872D01*
X27818Y18795D01*
X27741Y18705D01*
X27680Y18605D01*
X27635Y18496D01*
X27607Y18381D01*
X27598Y18263D01*
X27608Y18145D01*
X27635Y18031D01*
X27681Y17922D01*
X27743Y17821D01*
X27819Y17731D01*
X27909Y17655D01*
X28011Y17595D01*
X28480Y17378D01*
X28969Y17211D01*
X29472Y17091D01*
X29984Y17018D01*
X30500Y16994D01*
X30502Y16994D01*
Y10500D01*
X26993D01*
Y20153D01*
X27011Y20231D01*
X27021Y20349D01*
X27012Y20468D01*
X26993Y20548D01*
Y24471D01*
X27007Y24533D01*
X27017Y24651D01*
X27007Y24768D01*
X26993Y24828D01*
Y72145D01*
X27078Y72181D01*
X27179Y72243D01*
X27269Y72319D01*
X27345Y72409D01*
X27405Y72511D01*
X27622Y72980D01*
X27789Y73469D01*
X27909Y73972D01*
X27982Y74484D01*
X28006Y75000D01*
X27982Y75516D01*
X27909Y76028D01*
X27789Y76531D01*
X27622Y77020D01*
X27410Y77492D01*
X27349Y77593D01*
X27272Y77684D01*
X27182Y77761D01*
X27080Y77823D01*
X26993Y77860D01*
Y84500D01*
G37*
G36*
X26933Y24310D02*X26980Y24418D01*
X26993Y24471D01*
Y20548D01*
X26984Y20583D01*
X26937Y20692D01*
X26779Y21032D01*
X26658Y21388D01*
X26570Y21753D01*
X26518Y22125D01*
X26500Y22500D01*
X26518Y22875D01*
X26570Y23247D01*
X26658Y23612D01*
X26779Y23968D01*
X26933Y24310D01*
G37*
G36*
X22502Y84500D02*X26993D01*
Y77860D01*
X26971Y77869D01*
X26855Y77897D01*
X26737Y77906D01*
X26619Y77897D01*
X26503Y77870D01*
X26393Y77824D01*
X26292Y77762D01*
X26202Y77686D01*
X26124Y77595D01*
X26062Y77494D01*
X26016Y77385D01*
X25989Y77269D01*
X25979Y77151D01*
X25988Y77032D01*
X26016Y76917D01*
X26063Y76808D01*
X26221Y76468D01*
X26342Y76112D01*
X26430Y75747D01*
X26482Y75375D01*
X26500Y75000D01*
X26482Y74625D01*
X26430Y74253D01*
X26342Y73888D01*
X26221Y73532D01*
X26067Y73190D01*
X26020Y73082D01*
X25993Y72967D01*
X25983Y72849D01*
X25993Y72732D01*
X26021Y72617D01*
X26066Y72508D01*
X26128Y72407D01*
X26205Y72318D01*
X26295Y72241D01*
X26395Y72180D01*
X26504Y72135D01*
X26619Y72107D01*
X26737Y72098D01*
X26855Y72108D01*
X26969Y72135D01*
X26993Y72145D01*
Y24828D01*
X26979Y24883D01*
X26934Y24992D01*
X26872Y25093D01*
X26795Y25182D01*
X26705Y25259D01*
X26605Y25320D01*
X26496Y25365D01*
X26381Y25393D01*
X26263Y25402D01*
X26145Y25392D01*
X26031Y25365D01*
X25922Y25319D01*
X25821Y25257D01*
X25731Y25181D01*
X25655Y25091D01*
X25595Y24989D01*
X25378Y24520D01*
X25211Y24031D01*
X25091Y23528D01*
X25018Y23016D01*
X24994Y22500D01*
X25018Y21984D01*
X25091Y21472D01*
X25211Y20969D01*
X25378Y20480D01*
X25590Y20008D01*
X25651Y19907D01*
X25728Y19816D01*
X25818Y19739D01*
X25920Y19677D01*
X26029Y19631D01*
X26145Y19603D01*
X26263Y19594D01*
X26381Y19603D01*
X26497Y19630D01*
X26607Y19676D01*
X26708Y19738D01*
X26798Y19814D01*
X26876Y19905D01*
X26938Y20006D01*
X26984Y20115D01*
X26993Y20153D01*
Y10500D01*
X22502D01*
Y69494D01*
X23016Y69518D01*
X23528Y69591D01*
X24031Y69711D01*
X24520Y69878D01*
X24992Y70090D01*
X25093Y70151D01*
X25184Y70228D01*
X25261Y70318D01*
X25323Y70420D01*
X25369Y70529D01*
X25397Y70645D01*
X25406Y70763D01*
X25397Y70881D01*
X25370Y70997D01*
X25324Y71107D01*
X25262Y71208D01*
X25186Y71298D01*
X25095Y71376D01*
X24994Y71438D01*
X24885Y71484D01*
X24769Y71511D01*
X24651Y71521D01*
X24532Y71512D01*
X24417Y71484D01*
X24308Y71437D01*
X23968Y71279D01*
X23612Y71158D01*
X23247Y71070D01*
X22875Y71018D01*
X22502Y71000D01*
Y79000D01*
X22875Y78982D01*
X23247Y78930D01*
X23612Y78842D01*
X23968Y78721D01*
X24310Y78567D01*
X24418Y78520D01*
X24533Y78493D01*
X24651Y78483D01*
X24768Y78493D01*
X24883Y78521D01*
X24992Y78566D01*
X25093Y78628D01*
X25182Y78705D01*
X25259Y78795D01*
X25320Y78895D01*
X25365Y79004D01*
X25393Y79119D01*
X25402Y79237D01*
X25392Y79355D01*
X25365Y79469D01*
X25319Y79578D01*
X25257Y79679D01*
X25181Y79769D01*
X25091Y79845D01*
X24989Y79905D01*
X24520Y80122D01*
X24031Y80289D01*
X23528Y80409D01*
X23016Y80482D01*
X22502Y80506D01*
Y84500D01*
G37*
G36*
X18007D02*X22502D01*
Y80506D01*
X22500Y80506D01*
X21984Y80482D01*
X21472Y80409D01*
X20969Y80289D01*
X20480Y80122D01*
X20008Y79910D01*
X19907Y79849D01*
X19816Y79772D01*
X19739Y79682D01*
X19677Y79580D01*
X19631Y79471D01*
X19603Y79355D01*
X19594Y79237D01*
X19603Y79119D01*
X19630Y79003D01*
X19676Y78893D01*
X19738Y78792D01*
X19814Y78702D01*
X19905Y78624D01*
X20006Y78562D01*
X20115Y78516D01*
X20231Y78489D01*
X20349Y78479D01*
X20468Y78488D01*
X20583Y78516D01*
X20692Y78563D01*
X21032Y78721D01*
X21388Y78842D01*
X21753Y78930D01*
X22125Y78982D01*
X22500Y79000D01*
X22502Y79000D01*
Y71000D01*
X22500Y71000D01*
X22125Y71018D01*
X21753Y71070D01*
X21388Y71158D01*
X21032Y71279D01*
X20690Y71433D01*
X20582Y71480D01*
X20467Y71507D01*
X20349Y71517D01*
X20232Y71507D01*
X20117Y71479D01*
X20008Y71434D01*
X19907Y71372D01*
X19818Y71295D01*
X19741Y71205D01*
X19680Y71105D01*
X19635Y70996D01*
X19607Y70881D01*
X19598Y70763D01*
X19608Y70645D01*
X19635Y70531D01*
X19681Y70422D01*
X19743Y70321D01*
X19819Y70231D01*
X19909Y70155D01*
X20011Y70095D01*
X20480Y69878D01*
X20969Y69711D01*
X21472Y69591D01*
X21984Y69518D01*
X22500Y69494D01*
X22502Y69494D01*
Y10500D01*
X18007D01*
Y72140D01*
X18029Y72131D01*
X18145Y72103D01*
X18263Y72094D01*
X18381Y72103D01*
X18497Y72130D01*
X18607Y72176D01*
X18708Y72238D01*
X18798Y72314D01*
X18876Y72405D01*
X18938Y72506D01*
X18984Y72615D01*
X19011Y72731D01*
X19021Y72849D01*
X19012Y72968D01*
X18984Y73083D01*
X18937Y73192D01*
X18779Y73532D01*
X18658Y73888D01*
X18570Y74253D01*
X18518Y74625D01*
X18500Y75000D01*
X18518Y75375D01*
X18570Y75747D01*
X18658Y76112D01*
X18779Y76468D01*
X18933Y76810D01*
X18980Y76918D01*
X19007Y77033D01*
X19017Y77151D01*
X19007Y77268D01*
X18979Y77383D01*
X18934Y77492D01*
X18872Y77593D01*
X18795Y77682D01*
X18705Y77759D01*
X18605Y77820D01*
X18496Y77865D01*
X18381Y77893D01*
X18263Y77902D01*
X18145Y77892D01*
X18031Y77865D01*
X18007Y77855D01*
Y84500D01*
G37*
G36*
X14993D02*X18007D01*
Y77855D01*
X17922Y77819D01*
X17821Y77757D01*
X17731Y77681D01*
X17655Y77591D01*
X17595Y77489D01*
X17378Y77020D01*
X17211Y76531D01*
X17091Y76028D01*
X17018Y75516D01*
X16994Y75000D01*
X17018Y74484D01*
X17091Y73972D01*
X17211Y73469D01*
X17378Y72980D01*
X17590Y72508D01*
X17651Y72407D01*
X17728Y72316D01*
X17818Y72239D01*
X17920Y72177D01*
X18007Y72140D01*
Y10500D01*
X14993D01*
Y19645D01*
X15078Y19681D01*
X15179Y19743D01*
X15269Y19819D01*
X15345Y19909D01*
X15405Y20011D01*
X15622Y20480D01*
X15789Y20969D01*
X15909Y21472D01*
X15982Y21984D01*
X16006Y22500D01*
X15982Y23016D01*
X15909Y23528D01*
X15789Y24031D01*
X15622Y24520D01*
X15410Y24992D01*
X15349Y25093D01*
X15272Y25184D01*
X15182Y25261D01*
X15080Y25323D01*
X14993Y25360D01*
Y84500D01*
G37*
G36*
X10502D02*X14993D01*
Y25360D01*
X14971Y25369D01*
X14855Y25397D01*
X14737Y25406D01*
X14619Y25397D01*
X14503Y25370D01*
X14393Y25324D01*
X14292Y25262D01*
X14202Y25186D01*
X14124Y25095D01*
X14062Y24994D01*
X14016Y24885D01*
X13989Y24769D01*
X13979Y24651D01*
X13988Y24532D01*
X14016Y24417D01*
X14063Y24308D01*
X14221Y23968D01*
X14342Y23612D01*
X14430Y23247D01*
X14482Y22875D01*
X14500Y22500D01*
X14482Y22125D01*
X14430Y21753D01*
X14342Y21388D01*
X14221Y21032D01*
X14067Y20690D01*
X14020Y20582D01*
X13993Y20467D01*
X13983Y20349D01*
X13993Y20232D01*
X14021Y20117D01*
X14066Y20008D01*
X14128Y19907D01*
X14205Y19818D01*
X14295Y19741D01*
X14395Y19680D01*
X14504Y19635D01*
X14619Y19607D01*
X14737Y19598D01*
X14855Y19608D01*
X14969Y19635D01*
X14993Y19645D01*
Y10500D01*
X10502D01*
Y16994D01*
X11016Y17018D01*
X11528Y17091D01*
X12031Y17211D01*
X12520Y17378D01*
X12992Y17590D01*
X13093Y17651D01*
X13184Y17728D01*
X13261Y17818D01*
X13323Y17920D01*
X13369Y18029D01*
X13397Y18145D01*
X13406Y18263D01*
X13397Y18381D01*
X13370Y18497D01*
X13324Y18607D01*
X13262Y18708D01*
X13186Y18798D01*
X13095Y18876D01*
X12994Y18938D01*
X12885Y18984D01*
X12769Y19011D01*
X12651Y19021D01*
X12532Y19012D01*
X12417Y18984D01*
X12308Y18937D01*
X11968Y18779D01*
X11612Y18658D01*
X11247Y18570D01*
X10875Y18518D01*
X10502Y18500D01*
Y26500D01*
X10875Y26482D01*
X11247Y26430D01*
X11612Y26342D01*
X11968Y26221D01*
X12310Y26067D01*
X12418Y26020D01*
X12533Y25993D01*
X12651Y25983D01*
X12768Y25993D01*
X12883Y26021D01*
X12992Y26066D01*
X13093Y26128D01*
X13182Y26205D01*
X13259Y26295D01*
X13320Y26395D01*
X13365Y26504D01*
X13393Y26619D01*
X13402Y26737D01*
X13392Y26855D01*
X13365Y26969D01*
X13319Y27078D01*
X13257Y27179D01*
X13181Y27269D01*
X13091Y27345D01*
X12989Y27405D01*
X12520Y27622D01*
X12031Y27789D01*
X11528Y27909D01*
X11016Y27982D01*
X10502Y28006D01*
Y84500D01*
G37*
G36*
X6007D02*X10502D01*
Y28006D01*
X10500Y28006D01*
X9984Y27982D01*
X9472Y27909D01*
X8969Y27789D01*
X8480Y27622D01*
X8008Y27410D01*
X7907Y27349D01*
X7816Y27272D01*
X7739Y27182D01*
X7677Y27080D01*
X7631Y26971D01*
X7603Y26855D01*
X7594Y26737D01*
X7603Y26619D01*
X7630Y26503D01*
X7676Y26393D01*
X7738Y26292D01*
X7814Y26202D01*
X7905Y26124D01*
X8006Y26062D01*
X8115Y26016D01*
X8231Y25989D01*
X8349Y25979D01*
X8468Y25988D01*
X8583Y26016D01*
X8692Y26063D01*
X9032Y26221D01*
X9388Y26342D01*
X9753Y26430D01*
X10125Y26482D01*
X10500Y26500D01*
X10502Y26500D01*
Y18500D01*
X10500Y18500D01*
X10125Y18518D01*
X9753Y18570D01*
X9388Y18658D01*
X9032Y18779D01*
X8690Y18933D01*
X8582Y18980D01*
X8467Y19007D01*
X8349Y19017D01*
X8232Y19007D01*
X8117Y18979D01*
X8008Y18934D01*
X7907Y18872D01*
X7818Y18795D01*
X7741Y18705D01*
X7680Y18605D01*
X7635Y18496D01*
X7607Y18381D01*
X7598Y18263D01*
X7608Y18145D01*
X7635Y18031D01*
X7681Y17922D01*
X7743Y17821D01*
X7819Y17731D01*
X7909Y17655D01*
X8011Y17595D01*
X8480Y17378D01*
X8969Y17211D01*
X9472Y17091D01*
X9984Y17018D01*
X10500Y16994D01*
X10502Y16994D01*
Y10500D01*
X6007D01*
Y19640D01*
X6029Y19631D01*
X6145Y19603D01*
X6263Y19594D01*
X6381Y19603D01*
X6497Y19630D01*
X6607Y19676D01*
X6708Y19738D01*
X6798Y19814D01*
X6876Y19905D01*
X6938Y20006D01*
X6984Y20115D01*
X7011Y20231D01*
X7021Y20349D01*
X7012Y20468D01*
X6984Y20583D01*
X6937Y20692D01*
X6779Y21032D01*
X6658Y21388D01*
X6570Y21753D01*
X6518Y22125D01*
X6500Y22500D01*
X6518Y22875D01*
X6570Y23247D01*
X6658Y23612D01*
X6779Y23968D01*
X6933Y24310D01*
X6980Y24418D01*
X7007Y24533D01*
X7017Y24651D01*
X7007Y24768D01*
X6979Y24883D01*
X6934Y24992D01*
X6872Y25093D01*
X6795Y25182D01*
X6705Y25259D01*
X6605Y25320D01*
X6496Y25365D01*
X6381Y25393D01*
X6263Y25402D01*
X6145Y25392D01*
X6031Y25365D01*
X6007Y25355D01*
Y84500D01*
G37*
G36*
X1000Y10500D02*Y84500D01*
X6007D01*
Y25355D01*
X5922Y25319D01*
X5821Y25257D01*
X5731Y25181D01*
X5655Y25091D01*
X5595Y24989D01*
X5378Y24520D01*
X5211Y24031D01*
X5091Y23528D01*
X5018Y23016D01*
X4994Y22500D01*
X5018Y21984D01*
X5091Y21472D01*
X5211Y20969D01*
X5378Y20480D01*
X5590Y20008D01*
X5651Y19907D01*
X5728Y19816D01*
X5818Y19739D01*
X5920Y19677D01*
X6007Y19640D01*
Y10500D01*
X1000D01*
G37*
G36*
X34993Y160000D02*X41000D01*
Y121500D01*
X34993D01*
Y144645D01*
X35078Y144681D01*
X35179Y144743D01*
X35269Y144819D01*
X35345Y144909D01*
X35405Y145011D01*
X35622Y145480D01*
X35789Y145969D01*
X35909Y146472D01*
X35982Y146984D01*
X36006Y147500D01*
X35982Y148016D01*
X35909Y148528D01*
X35789Y149031D01*
X35622Y149520D01*
X35410Y149992D01*
X35349Y150093D01*
X35272Y150184D01*
X35182Y150261D01*
X35080Y150323D01*
X34993Y150360D01*
Y160000D01*
G37*
G36*
X30502D02*X34993D01*
Y150360D01*
X34971Y150369D01*
X34855Y150397D01*
X34737Y150406D01*
X34619Y150397D01*
X34503Y150370D01*
X34393Y150324D01*
X34292Y150262D01*
X34202Y150186D01*
X34124Y150095D01*
X34062Y149994D01*
X34016Y149885D01*
X33989Y149769D01*
X33979Y149651D01*
X33988Y149532D01*
X34016Y149417D01*
X34063Y149308D01*
X34221Y148968D01*
X34342Y148612D01*
X34430Y148247D01*
X34482Y147875D01*
X34500Y147500D01*
X34482Y147125D01*
X34430Y146753D01*
X34342Y146388D01*
X34221Y146032D01*
X34067Y145690D01*
X34020Y145582D01*
X33993Y145467D01*
X33983Y145349D01*
X33993Y145232D01*
X34021Y145117D01*
X34066Y145008D01*
X34128Y144907D01*
X34205Y144818D01*
X34295Y144741D01*
X34395Y144680D01*
X34504Y144635D01*
X34619Y144607D01*
X34737Y144598D01*
X34855Y144608D01*
X34969Y144635D01*
X34993Y144645D01*
Y121500D01*
X30502D01*
Y141994D01*
X31016Y142018D01*
X31528Y142091D01*
X32031Y142211D01*
X32520Y142378D01*
X32992Y142590D01*
X33093Y142651D01*
X33184Y142728D01*
X33261Y142818D01*
X33323Y142920D01*
X33369Y143029D01*
X33397Y143145D01*
X33406Y143263D01*
X33397Y143381D01*
X33370Y143497D01*
X33324Y143607D01*
X33262Y143708D01*
X33186Y143798D01*
X33095Y143876D01*
X32994Y143938D01*
X32885Y143984D01*
X32769Y144011D01*
X32651Y144021D01*
X32532Y144012D01*
X32417Y143984D01*
X32308Y143937D01*
X31968Y143779D01*
X31612Y143658D01*
X31247Y143570D01*
X30875Y143518D01*
X30502Y143500D01*
Y151500D01*
X30875Y151482D01*
X31247Y151430D01*
X31612Y151342D01*
X31968Y151221D01*
X32310Y151067D01*
X32418Y151020D01*
X32533Y150993D01*
X32651Y150983D01*
X32768Y150993D01*
X32883Y151021D01*
X32992Y151066D01*
X33093Y151128D01*
X33182Y151205D01*
X33259Y151295D01*
X33320Y151395D01*
X33365Y151504D01*
X33393Y151619D01*
X33402Y151737D01*
X33392Y151855D01*
X33365Y151969D01*
X33319Y152078D01*
X33257Y152179D01*
X33181Y152269D01*
X33091Y152345D01*
X32989Y152405D01*
X32520Y152622D01*
X32031Y152789D01*
X31528Y152909D01*
X31016Y152982D01*
X30502Y153006D01*
Y160000D01*
G37*
G36*
X26007D02*X30502D01*
Y153006D01*
X30500Y153006D01*
X29984Y152982D01*
X29472Y152909D01*
X28969Y152789D01*
X28480Y152622D01*
X28008Y152410D01*
X27907Y152349D01*
X27816Y152272D01*
X27739Y152182D01*
X27677Y152080D01*
X27631Y151971D01*
X27603Y151855D01*
X27594Y151737D01*
X27603Y151619D01*
X27630Y151503D01*
X27676Y151393D01*
X27738Y151292D01*
X27814Y151202D01*
X27905Y151124D01*
X28006Y151062D01*
X28115Y151016D01*
X28231Y150989D01*
X28349Y150979D01*
X28468Y150988D01*
X28583Y151016D01*
X28692Y151063D01*
X29032Y151221D01*
X29388Y151342D01*
X29753Y151430D01*
X30125Y151482D01*
X30500Y151500D01*
X30502Y151500D01*
Y143500D01*
X30500Y143500D01*
X30125Y143518D01*
X29753Y143570D01*
X29388Y143658D01*
X29032Y143779D01*
X28690Y143933D01*
X28582Y143980D01*
X28467Y144007D01*
X28349Y144017D01*
X28232Y144007D01*
X28117Y143979D01*
X28008Y143934D01*
X27907Y143872D01*
X27818Y143795D01*
X27741Y143705D01*
X27680Y143605D01*
X27635Y143496D01*
X27607Y143381D01*
X27598Y143263D01*
X27608Y143145D01*
X27635Y143031D01*
X27681Y142922D01*
X27743Y142821D01*
X27819Y142731D01*
X27909Y142655D01*
X28011Y142595D01*
X28480Y142378D01*
X28969Y142211D01*
X29472Y142091D01*
X29984Y142018D01*
X30500Y141994D01*
X30502Y141994D01*
Y121500D01*
X26007D01*
Y144640D01*
X26029Y144631D01*
X26145Y144603D01*
X26263Y144594D01*
X26381Y144603D01*
X26497Y144630D01*
X26607Y144676D01*
X26708Y144738D01*
X26798Y144814D01*
X26876Y144905D01*
X26938Y145006D01*
X26984Y145115D01*
X27011Y145231D01*
X27021Y145349D01*
X27012Y145468D01*
X26984Y145583D01*
X26937Y145692D01*
X26779Y146032D01*
X26658Y146388D01*
X26570Y146753D01*
X26518Y147125D01*
X26500Y147500D01*
X26518Y147875D01*
X26570Y148247D01*
X26658Y148612D01*
X26779Y148968D01*
X26933Y149310D01*
X26980Y149418D01*
X27007Y149533D01*
X27017Y149651D01*
X27007Y149768D01*
X26979Y149883D01*
X26934Y149992D01*
X26872Y150093D01*
X26795Y150182D01*
X26705Y150259D01*
X26605Y150320D01*
X26496Y150365D01*
X26381Y150393D01*
X26263Y150402D01*
X26145Y150392D01*
X26031Y150365D01*
X26007Y150355D01*
Y160000D01*
G37*
G36*
X14993D02*X26007D01*
Y150355D01*
X25922Y150319D01*
X25821Y150257D01*
X25731Y150181D01*
X25655Y150091D01*
X25595Y149989D01*
X25378Y149520D01*
X25211Y149031D01*
X25091Y148528D01*
X25018Y148016D01*
X24994Y147500D01*
X25018Y146984D01*
X25091Y146472D01*
X25211Y145969D01*
X25378Y145480D01*
X25590Y145008D01*
X25651Y144907D01*
X25728Y144816D01*
X25818Y144739D01*
X25920Y144677D01*
X26007Y144640D01*
Y121500D01*
X14993D01*
Y144645D01*
X15078Y144681D01*
X15179Y144743D01*
X15269Y144819D01*
X15345Y144909D01*
X15405Y145011D01*
X15622Y145480D01*
X15789Y145969D01*
X15909Y146472D01*
X15982Y146984D01*
X16006Y147500D01*
X15982Y148016D01*
X15909Y148528D01*
X15789Y149031D01*
X15622Y149520D01*
X15410Y149992D01*
X15349Y150093D01*
X15272Y150184D01*
X15182Y150261D01*
X15080Y150323D01*
X14993Y150360D01*
Y160000D01*
G37*
G36*
X10502D02*X14993D01*
Y150360D01*
X14971Y150369D01*
X14855Y150397D01*
X14737Y150406D01*
X14619Y150397D01*
X14503Y150370D01*
X14393Y150324D01*
X14292Y150262D01*
X14202Y150186D01*
X14124Y150095D01*
X14062Y149994D01*
X14016Y149885D01*
X13989Y149769D01*
X13979Y149651D01*
X13988Y149532D01*
X14016Y149417D01*
X14063Y149308D01*
X14221Y148968D01*
X14342Y148612D01*
X14430Y148247D01*
X14482Y147875D01*
X14500Y147500D01*
X14482Y147125D01*
X14430Y146753D01*
X14342Y146388D01*
X14221Y146032D01*
X14067Y145690D01*
X14020Y145582D01*
X13993Y145467D01*
X13983Y145349D01*
X13993Y145232D01*
X14021Y145117D01*
X14066Y145008D01*
X14128Y144907D01*
X14205Y144818D01*
X14295Y144741D01*
X14395Y144680D01*
X14504Y144635D01*
X14619Y144607D01*
X14737Y144598D01*
X14855Y144608D01*
X14969Y144635D01*
X14993Y144645D01*
Y121500D01*
X10502D01*
Y141994D01*
X11016Y142018D01*
X11528Y142091D01*
X12031Y142211D01*
X12520Y142378D01*
X12992Y142590D01*
X13093Y142651D01*
X13184Y142728D01*
X13261Y142818D01*
X13323Y142920D01*
X13369Y143029D01*
X13397Y143145D01*
X13406Y143263D01*
X13397Y143381D01*
X13370Y143497D01*
X13324Y143607D01*
X13262Y143708D01*
X13186Y143798D01*
X13095Y143876D01*
X12994Y143938D01*
X12885Y143984D01*
X12769Y144011D01*
X12651Y144021D01*
X12532Y144012D01*
X12417Y143984D01*
X12308Y143937D01*
X11968Y143779D01*
X11612Y143658D01*
X11247Y143570D01*
X10875Y143518D01*
X10502Y143500D01*
Y151500D01*
X10875Y151482D01*
X11247Y151430D01*
X11612Y151342D01*
X11968Y151221D01*
X12310Y151067D01*
X12418Y151020D01*
X12533Y150993D01*
X12651Y150983D01*
X12768Y150993D01*
X12883Y151021D01*
X12992Y151066D01*
X13093Y151128D01*
X13182Y151205D01*
X13259Y151295D01*
X13320Y151395D01*
X13365Y151504D01*
X13393Y151619D01*
X13402Y151737D01*
X13392Y151855D01*
X13365Y151969D01*
X13319Y152078D01*
X13257Y152179D01*
X13181Y152269D01*
X13091Y152345D01*
X12989Y152405D01*
X12520Y152622D01*
X12031Y152789D01*
X11528Y152909D01*
X11016Y152982D01*
X10502Y153006D01*
Y160000D01*
G37*
G36*
X6007D02*X10502D01*
Y153006D01*
X10500Y153006D01*
X9984Y152982D01*
X9472Y152909D01*
X8969Y152789D01*
X8480Y152622D01*
X8008Y152410D01*
X7907Y152349D01*
X7816Y152272D01*
X7739Y152182D01*
X7677Y152080D01*
X7631Y151971D01*
X7603Y151855D01*
X7594Y151737D01*
X7603Y151619D01*
X7630Y151503D01*
X7676Y151393D01*
X7738Y151292D01*
X7814Y151202D01*
X7905Y151124D01*
X8006Y151062D01*
X8115Y151016D01*
X8231Y150989D01*
X8349Y150979D01*
X8468Y150988D01*
X8583Y151016D01*
X8692Y151063D01*
X9032Y151221D01*
X9388Y151342D01*
X9753Y151430D01*
X10125Y151482D01*
X10500Y151500D01*
X10502Y151500D01*
Y143500D01*
X10500Y143500D01*
X10125Y143518D01*
X9753Y143570D01*
X9388Y143658D01*
X9032Y143779D01*
X8690Y143933D01*
X8582Y143980D01*
X8467Y144007D01*
X8349Y144017D01*
X8232Y144007D01*
X8117Y143979D01*
X8008Y143934D01*
X7907Y143872D01*
X7818Y143795D01*
X7741Y143705D01*
X7680Y143605D01*
X7635Y143496D01*
X7607Y143381D01*
X7598Y143263D01*
X7608Y143145D01*
X7635Y143031D01*
X7681Y142922D01*
X7743Y142821D01*
X7819Y142731D01*
X7909Y142655D01*
X8011Y142595D01*
X8480Y142378D01*
X8969Y142211D01*
X9472Y142091D01*
X9984Y142018D01*
X10500Y141994D01*
X10502Y141994D01*
Y121500D01*
X6007D01*
Y144640D01*
X6029Y144631D01*
X6145Y144603D01*
X6263Y144594D01*
X6381Y144603D01*
X6497Y144630D01*
X6607Y144676D01*
X6708Y144738D01*
X6798Y144814D01*
X6876Y144905D01*
X6938Y145006D01*
X6984Y145115D01*
X7011Y145231D01*
X7021Y145349D01*
X7012Y145468D01*
X6984Y145583D01*
X6937Y145692D01*
X6779Y146032D01*
X6658Y146388D01*
X6570Y146753D01*
X6518Y147125D01*
X6500Y147500D01*
X6518Y147875D01*
X6570Y148247D01*
X6658Y148612D01*
X6779Y148968D01*
X6933Y149310D01*
X6980Y149418D01*
X7007Y149533D01*
X7017Y149651D01*
X7007Y149768D01*
X6979Y149883D01*
X6934Y149992D01*
X6872Y150093D01*
X6795Y150182D01*
X6705Y150259D01*
X6605Y150320D01*
X6496Y150365D01*
X6381Y150393D01*
X6263Y150402D01*
X6145Y150392D01*
X6031Y150365D01*
X6007Y150355D01*
Y160000D01*
G37*
G36*
X1000D02*X6007D01*
Y150355D01*
X5922Y150319D01*
X5821Y150257D01*
X5731Y150181D01*
X5655Y150091D01*
X5595Y149989D01*
X5378Y149520D01*
X5211Y149031D01*
X5091Y148528D01*
X5018Y148016D01*
X4994Y147500D01*
X5018Y146984D01*
X5091Y146472D01*
X5211Y145969D01*
X5378Y145480D01*
X5590Y145008D01*
X5651Y144907D01*
X5728Y144816D01*
X5818Y144739D01*
X5920Y144677D01*
X6007Y144640D01*
Y121500D01*
X1000D01*
Y160000D01*
G37*
G36*
Y123500D02*X13500D01*
Y81500D01*
X1000D01*
Y123500D01*
G37*
G36*
X121500Y22500D02*Y1000D01*
X100487D01*
Y3276D01*
X100500Y3275D01*
X101787Y3376D01*
X103042Y3677D01*
X104234Y4171D01*
X105335Y4846D01*
X106316Y5684D01*
X107154Y6665D01*
X107829Y7766D01*
X108323Y8958D01*
X108624Y10213D01*
X108700Y11500D01*
X108624Y12787D01*
X108323Y14042D01*
X107829Y15234D01*
X107154Y16335D01*
X106316Y17316D01*
X105335Y18154D01*
X104234Y18829D01*
X103042Y19323D01*
X101787Y19624D01*
X100500Y19725D01*
X100487Y19724D01*
Y21000D01*
X105204D01*
X105253Y20795D01*
X105584Y19995D01*
X106037Y19257D01*
X106599Y18599D01*
X107257Y18037D01*
X107995Y17584D01*
X108795Y17253D01*
X109637Y17051D01*
X110500Y16983D01*
X111363Y17051D01*
X112205Y17253D01*
X113005Y17584D01*
X113743Y18037D01*
X114401Y18599D01*
X114963Y19257D01*
X115416Y19995D01*
X115747Y20795D01*
X115949Y21637D01*
X116000Y22500D01*
X121500D01*
G37*
G36*
X100487Y1000D02*X30502D01*
Y16994D01*
X31016Y17018D01*
X31528Y17091D01*
X32031Y17211D01*
X32520Y17378D01*
X32992Y17590D01*
X33093Y17651D01*
X33184Y17728D01*
X33261Y17818D01*
X33323Y17920D01*
X33369Y18029D01*
X33397Y18145D01*
X33406Y18263D01*
X33397Y18381D01*
X33370Y18497D01*
X33324Y18607D01*
X33262Y18708D01*
X33186Y18798D01*
X33095Y18876D01*
X32994Y18938D01*
X32885Y18984D01*
X32769Y19011D01*
X32651Y19021D01*
X32532Y19012D01*
X32417Y18984D01*
X32308Y18937D01*
X31968Y18779D01*
X31612Y18658D01*
X31247Y18570D01*
X30875Y18518D01*
X30502Y18500D01*
Y22500D01*
X34500D01*
X34482Y22125D01*
X34430Y21753D01*
X34342Y21388D01*
X34221Y21032D01*
X34067Y20690D01*
X34020Y20582D01*
X33993Y20467D01*
X33983Y20349D01*
X33993Y20232D01*
X34021Y20117D01*
X34066Y20008D01*
X34128Y19907D01*
X34205Y19818D01*
X34295Y19741D01*
X34395Y19680D01*
X34504Y19635D01*
X34619Y19607D01*
X34737Y19598D01*
X34855Y19608D01*
X34969Y19635D01*
X35078Y19681D01*
X35179Y19743D01*
X35269Y19819D01*
X35345Y19909D01*
X35405Y20011D01*
X35622Y20480D01*
X35789Y20969D01*
X35909Y21472D01*
X35982Y21984D01*
X36006Y22500D01*
X45007D01*
X45014Y18265D01*
X45069Y18035D01*
X45159Y17817D01*
X45283Y17616D01*
X45436Y17436D01*
X45616Y17283D01*
X45817Y17159D01*
X46035Y17069D01*
X46265Y17014D01*
X46500Y17000D01*
X54425Y17013D01*
X53846Y16335D01*
X53171Y15234D01*
X52677Y14042D01*
X52376Y12787D01*
X52275Y11500D01*
X52376Y10213D01*
X52677Y8958D01*
X53171Y7766D01*
X53846Y6665D01*
X54684Y5684D01*
X55665Y4846D01*
X56766Y4171D01*
X57958Y3677D01*
X59213Y3376D01*
X60500Y3275D01*
X61787Y3376D01*
X63042Y3677D01*
X64234Y4171D01*
X65335Y4846D01*
X66316Y5684D01*
X67154Y6665D01*
X67829Y7766D01*
X68323Y8958D01*
X68624Y10213D01*
X68700Y11500D01*
X68624Y12787D01*
X68323Y14042D01*
X67829Y15234D01*
X67154Y16335D01*
X66586Y17000D01*
X74735Y17014D01*
X74965Y17069D01*
X75183Y17159D01*
X75384Y17283D01*
X75564Y17436D01*
X75717Y17616D01*
X75841Y17817D01*
X75931Y18035D01*
X75986Y18265D01*
X76000Y18500D01*
X75993Y22500D01*
X84983D01*
X85051Y21637D01*
X85253Y20795D01*
X85584Y19995D01*
X86037Y19257D01*
X86599Y18599D01*
X87257Y18037D01*
X87995Y17584D01*
X88795Y17253D01*
X89637Y17051D01*
X90500Y16983D01*
X91363Y17051D01*
X92205Y17253D01*
X93005Y17584D01*
X93743Y18037D01*
X94401Y18599D01*
X94963Y19257D01*
X95416Y19995D01*
X95747Y20795D01*
X95949Y21637D01*
X96000Y22500D01*
X97379D01*
X98398Y21481D01*
X98436Y21436D01*
X98616Y21283D01*
X98817Y21159D01*
X99035Y21069D01*
X99265Y21014D01*
X99500Y20995D01*
X99559Y21000D01*
X100487D01*
Y19724D01*
X99213Y19624D01*
X97958Y19323D01*
X96766Y18829D01*
X95665Y18154D01*
X94684Y17316D01*
X93846Y16335D01*
X93171Y15234D01*
X92677Y14042D01*
X92376Y12787D01*
X92275Y11500D01*
X92376Y10213D01*
X92677Y8958D01*
X93171Y7766D01*
X93846Y6665D01*
X94684Y5684D01*
X95665Y4846D01*
X96766Y4171D01*
X97958Y3677D01*
X99213Y3376D01*
X100487Y3276D01*
Y1000D01*
G37*
G36*
X30502D02*X10502D01*
Y16994D01*
X11016Y17018D01*
X11528Y17091D01*
X12031Y17211D01*
X12520Y17378D01*
X12992Y17590D01*
X13093Y17651D01*
X13184Y17728D01*
X13261Y17818D01*
X13323Y17920D01*
X13369Y18029D01*
X13397Y18145D01*
X13406Y18263D01*
X13397Y18381D01*
X13370Y18497D01*
X13324Y18607D01*
X13262Y18708D01*
X13186Y18798D01*
X13095Y18876D01*
X12994Y18938D01*
X12885Y18984D01*
X12769Y19011D01*
X12651Y19021D01*
X12532Y19012D01*
X12417Y18984D01*
X12308Y18937D01*
X11968Y18779D01*
X11612Y18658D01*
X11247Y18570D01*
X10875Y18518D01*
X10502Y18500D01*
Y22500D01*
X14500D01*
X14482Y22125D01*
X14430Y21753D01*
X14342Y21388D01*
X14221Y21032D01*
X14067Y20690D01*
X14020Y20582D01*
X13993Y20467D01*
X13983Y20349D01*
X13993Y20232D01*
X14021Y20117D01*
X14066Y20008D01*
X14128Y19907D01*
X14205Y19818D01*
X14295Y19741D01*
X14395Y19680D01*
X14504Y19635D01*
X14619Y19607D01*
X14737Y19598D01*
X14855Y19608D01*
X14969Y19635D01*
X15078Y19681D01*
X15179Y19743D01*
X15269Y19819D01*
X15345Y19909D01*
X15405Y20011D01*
X15622Y20480D01*
X15789Y20969D01*
X15909Y21472D01*
X15982Y21984D01*
X16006Y22500D01*
X24994D01*
X25018Y21984D01*
X25091Y21472D01*
X25211Y20969D01*
X25378Y20480D01*
X25590Y20008D01*
X25651Y19907D01*
X25728Y19816D01*
X25818Y19739D01*
X25920Y19677D01*
X26029Y19631D01*
X26145Y19603D01*
X26263Y19594D01*
X26381Y19603D01*
X26497Y19630D01*
X26607Y19676D01*
X26708Y19738D01*
X26798Y19814D01*
X26876Y19905D01*
X26938Y20006D01*
X26984Y20115D01*
X27011Y20231D01*
X27021Y20349D01*
X27012Y20468D01*
X26984Y20583D01*
X26937Y20692D01*
X26779Y21032D01*
X26658Y21388D01*
X26570Y21753D01*
X26518Y22125D01*
X26500Y22500D01*
X30502D01*
Y18500D01*
X30500Y18500D01*
X30125Y18518D01*
X29753Y18570D01*
X29388Y18658D01*
X29032Y18779D01*
X28690Y18933D01*
X28582Y18980D01*
X28467Y19007D01*
X28349Y19017D01*
X28232Y19007D01*
X28117Y18979D01*
X28008Y18934D01*
X27907Y18872D01*
X27818Y18795D01*
X27741Y18705D01*
X27680Y18605D01*
X27635Y18496D01*
X27607Y18381D01*
X27598Y18263D01*
X27608Y18145D01*
X27635Y18031D01*
X27681Y17922D01*
X27743Y17821D01*
X27819Y17731D01*
X27909Y17655D01*
X28011Y17595D01*
X28480Y17378D01*
X28969Y17211D01*
X29472Y17091D01*
X29984Y17018D01*
X30500Y16994D01*
X30502Y16994D01*
Y1000D01*
G37*
G36*
X10502D02*X1000D01*
Y22500D01*
X4994D01*
X5018Y21984D01*
X5091Y21472D01*
X5211Y20969D01*
X5378Y20480D01*
X5590Y20008D01*
X5651Y19907D01*
X5728Y19816D01*
X5818Y19739D01*
X5920Y19677D01*
X6029Y19631D01*
X6145Y19603D01*
X6263Y19594D01*
X6381Y19603D01*
X6497Y19630D01*
X6607Y19676D01*
X6708Y19738D01*
X6798Y19814D01*
X6876Y19905D01*
X6938Y20006D01*
X6984Y20115D01*
X7011Y20231D01*
X7021Y20349D01*
X7012Y20468D01*
X6984Y20583D01*
X6937Y20692D01*
X6779Y21032D01*
X6658Y21388D01*
X6570Y21753D01*
X6518Y22125D01*
X6500Y22500D01*
X10502D01*
Y18500D01*
X10500Y18500D01*
X10125Y18518D01*
X9753Y18570D01*
X9388Y18658D01*
X9032Y18779D01*
X8690Y18933D01*
X8582Y18980D01*
X8467Y19007D01*
X8349Y19017D01*
X8232Y19007D01*
X8117Y18979D01*
X8008Y18934D01*
X7907Y18872D01*
X7818Y18795D01*
X7741Y18705D01*
X7680Y18605D01*
X7635Y18496D01*
X7607Y18381D01*
X7598Y18263D01*
X7608Y18145D01*
X7635Y18031D01*
X7681Y17922D01*
X7743Y17821D01*
X7819Y17731D01*
X7909Y17655D01*
X8011Y17595D01*
X8480Y17378D01*
X8969Y17211D01*
X9472Y17091D01*
X9984Y17018D01*
X10500Y16994D01*
X10502Y16994D01*
Y1000D01*
G37*
G36*
X166500Y105000D02*X171000D01*
Y89338D01*
X170982Y89331D01*
X170847Y89249D01*
X170728Y89146D01*
X170625Y89027D01*
X170543Y88892D01*
X170483Y88747D01*
X170446Y88594D01*
X170437Y88437D01*
Y86000D01*
X166500D01*
Y90437D01*
X168437D01*
X168594Y90446D01*
X168747Y90483D01*
X168892Y90543D01*
X169027Y90625D01*
X169146Y90728D01*
X169249Y90847D01*
X169331Y90982D01*
X169391Y91127D01*
X169428Y91280D01*
X169440Y91437D01*
X169428Y91594D01*
X169391Y91747D01*
X169331Y91892D01*
X169249Y92027D01*
X169146Y92146D01*
X169027Y92249D01*
X168892Y92331D01*
X168747Y92391D01*
X168594Y92428D01*
X168437Y92437D01*
X166500D01*
Y105000D01*
G37*
G36*
X134109D02*X166500D01*
Y92437D01*
X164563D01*
X164406Y92428D01*
X164253Y92391D01*
X164108Y92331D01*
X163973Y92249D01*
X163854Y92146D01*
X163751Y92027D01*
X163669Y91892D01*
X163609Y91747D01*
X163572Y91594D01*
X163560Y91437D01*
X163572Y91280D01*
X163609Y91127D01*
X163669Y90982D01*
X163751Y90847D01*
X163854Y90728D01*
X163973Y90625D01*
X164108Y90543D01*
X164253Y90483D01*
X164406Y90446D01*
X164563Y90437D01*
X166500D01*
Y86000D01*
X162563D01*
Y88437D01*
X162554Y88594D01*
X162517Y88747D01*
X162457Y88892D01*
X162375Y89027D01*
X162272Y89146D01*
X162153Y89249D01*
X162018Y89331D01*
X161873Y89391D01*
X161720Y89428D01*
X161563Y89440D01*
X161406Y89428D01*
X161253Y89391D01*
X161108Y89331D01*
X160973Y89249D01*
X160854Y89146D01*
X160751Y89027D01*
X160669Y88892D01*
X160609Y88747D01*
X160572Y88594D01*
X160563Y88437D01*
Y86000D01*
X128500D01*
Y89850D01*
X132885Y89864D01*
X133115Y89919D01*
X133333Y90009D01*
X133534Y90133D01*
X133714Y90286D01*
X133867Y90466D01*
X133991Y90667D01*
X134081Y90885D01*
X134136Y91115D01*
X134150Y91350D01*
X134136Y104885D01*
X134109Y105000D01*
G37*
G36*
X171000Y94000D02*Y89338D01*
X170982Y89331D01*
X170847Y89249D01*
X170728Y89146D01*
X170625Y89027D01*
X170543Y88892D01*
X170483Y88747D01*
X170446Y88594D01*
X170437Y88437D01*
Y84563D01*
X170446Y84406D01*
X170483Y84253D01*
X170543Y84108D01*
X170625Y83973D01*
X170728Y83854D01*
X170847Y83751D01*
X170982Y83669D01*
X171000Y83662D01*
Y73948D01*
X170971Y73955D01*
X170814Y73964D01*
X166500Y73960D01*
Y80563D01*
X168437D01*
X168594Y80572D01*
X168747Y80609D01*
X168892Y80669D01*
X169027Y80751D01*
X169146Y80854D01*
X169249Y80973D01*
X169331Y81108D01*
X169391Y81253D01*
X169428Y81406D01*
X169440Y81563D01*
X169428Y81720D01*
X169391Y81873D01*
X169331Y82018D01*
X169249Y82153D01*
X169146Y82272D01*
X169027Y82375D01*
X168892Y82457D01*
X168747Y82517D01*
X168594Y82554D01*
X168437Y82563D01*
X166500D01*
Y90437D01*
X168437D01*
X168594Y90446D01*
X168747Y90483D01*
X168892Y90543D01*
X169027Y90625D01*
X169146Y90728D01*
X169249Y90847D01*
X169331Y90982D01*
X169391Y91127D01*
X169428Y91280D01*
X169440Y91437D01*
X169428Y91594D01*
X169391Y91747D01*
X169331Y91892D01*
X169249Y92027D01*
X169146Y92146D01*
X169027Y92249D01*
X168892Y92331D01*
X168747Y92391D01*
X168594Y92428D01*
X168437Y92437D01*
X166500D01*
Y94000D01*
X171000D01*
G37*
G36*
X166500Y73960D02*X161563Y73956D01*
Y83560D01*
X161720Y83572D01*
X161873Y83609D01*
X162018Y83669D01*
X162153Y83751D01*
X162272Y83854D01*
X162375Y83973D01*
X162457Y84108D01*
X162517Y84253D01*
X162554Y84406D01*
X162563Y84563D01*
Y88437D01*
X162554Y88594D01*
X162517Y88747D01*
X162457Y88892D01*
X162375Y89027D01*
X162272Y89146D01*
X162153Y89249D01*
X162018Y89331D01*
X161873Y89391D01*
X161720Y89428D01*
X161563Y89440D01*
Y94000D01*
X166500D01*
Y92437D01*
X164563D01*
X164406Y92428D01*
X164253Y92391D01*
X164108Y92331D01*
X163973Y92249D01*
X163854Y92146D01*
X163751Y92027D01*
X163669Y91892D01*
X163609Y91747D01*
X163572Y91594D01*
X163560Y91437D01*
X163572Y91280D01*
X163609Y91127D01*
X163669Y90982D01*
X163751Y90847D01*
X163854Y90728D01*
X163973Y90625D01*
X164108Y90543D01*
X164253Y90483D01*
X164406Y90446D01*
X164563Y90437D01*
X166500D01*
Y82563D01*
X164563D01*
X164406Y82554D01*
X164253Y82517D01*
X164108Y82457D01*
X163973Y82375D01*
X163854Y82272D01*
X163751Y82153D01*
X163669Y82018D01*
X163609Y81873D01*
X163572Y81720D01*
X163560Y81563D01*
X163572Y81406D01*
X163609Y81253D01*
X163669Y81108D01*
X163751Y80973D01*
X163854Y80854D01*
X163973Y80751D01*
X164108Y80669D01*
X164253Y80609D01*
X164406Y80572D01*
X164563Y80563D01*
X166500D01*
Y73960D01*
G37*
G36*
X161563Y73956D02*X160029Y73955D01*
X159876Y73918D01*
X159731Y73858D01*
X159596Y73776D01*
X159477Y73673D01*
X159374Y73554D01*
X159292Y73419D01*
X159232Y73274D01*
X159195Y73121D01*
X159186Y72964D01*
X159195Y68000D01*
X158500D01*
Y94000D01*
X161563D01*
Y89440D01*
X161406Y89428D01*
X161253Y89391D01*
X161108Y89331D01*
X160973Y89249D01*
X160854Y89146D01*
X160751Y89027D01*
X160669Y88892D01*
X160609Y88747D01*
X160572Y88594D01*
X160563Y88437D01*
Y84563D01*
X160572Y84406D01*
X160609Y84253D01*
X160669Y84108D01*
X160751Y83973D01*
X160854Y83854D01*
X160973Y83751D01*
X161108Y83669D01*
X161253Y83609D01*
X161406Y83572D01*
X161563Y83560D01*
Y73956D01*
G37*
G36*
X158500Y77500D02*X171000D01*
Y68000D01*
X158500D01*
Y77500D01*
G37*
G36*
X122500Y84000D02*X156500D01*
Y57500D01*
X122500D01*
Y84000D01*
G37*
G36*
X176502Y94000D02*X181500D01*
Y89249D01*
X181481Y89259D01*
X181332Y89309D01*
X181176Y89336D01*
X181018Y89338D01*
X180861Y89315D01*
X180710Y89268D01*
X180569Y89198D01*
X180439Y89107D01*
X180326Y88996D01*
X180232Y88870D01*
X180158Y88730D01*
X180108Y88580D01*
X180081Y88424D01*
X180079Y88266D01*
X180102Y88110D01*
X180152Y87960D01*
X180278Y87608D01*
X180366Y87244D01*
X180419Y86874D01*
X180437Y86500D01*
X180419Y86126D01*
X180366Y85756D01*
X180278Y85392D01*
X180156Y85039D01*
X180106Y84889D01*
X180083Y84734D01*
X180085Y84576D01*
X180112Y84421D01*
X180162Y84272D01*
X180236Y84133D01*
X180330Y84007D01*
X180442Y83897D01*
X180571Y83806D01*
X180712Y83736D01*
X180862Y83689D01*
X181018Y83667D01*
X181175Y83668D01*
X181331Y83695D01*
X181480Y83746D01*
X181495Y83754D01*
X181500Y83751D01*
Y58000D01*
X176502D01*
Y80556D01*
X177064Y80583D01*
X177623Y80663D01*
X178172Y80796D01*
X178706Y80981D01*
X178848Y81050D01*
X178977Y81142D01*
X179091Y81252D01*
X179185Y81379D01*
X179259Y81519D01*
X179309Y81668D01*
X179336Y81824D01*
X179338Y81982D01*
X179315Y82139D01*
X179268Y82290D01*
X179198Y82431D01*
X179107Y82561D01*
X178996Y82674D01*
X178870Y82768D01*
X178730Y82842D01*
X178580Y82892D01*
X178424Y82919D01*
X178266Y82921D01*
X178110Y82898D01*
X177960Y82848D01*
X177608Y82722D01*
X177244Y82634D01*
X176874Y82581D01*
X176502Y82563D01*
Y90437D01*
X176874Y90419D01*
X177244Y90366D01*
X177608Y90278D01*
X177961Y90156D01*
X178111Y90106D01*
X178266Y90083D01*
X178424Y90085D01*
X178579Y90112D01*
X178728Y90162D01*
X178867Y90236D01*
X178993Y90330D01*
X179103Y90442D01*
X179194Y90571D01*
X179264Y90712D01*
X179311Y90862D01*
X179333Y91018D01*
X179332Y91175D01*
X179305Y91331D01*
X179254Y91480D01*
X179181Y91619D01*
X179087Y91745D01*
X178975Y91855D01*
X178846Y91946D01*
X178704Y92013D01*
X178172Y92204D01*
X177623Y92337D01*
X177064Y92417D01*
X176502Y92444D01*
Y94000D01*
G37*
G36*
X172000D02*X176502D01*
Y92444D01*
X176500Y92444D01*
X175936Y92417D01*
X175377Y92337D01*
X174828Y92204D01*
X174294Y92019D01*
X174152Y91950D01*
X174023Y91858D01*
X173909Y91748D01*
X173815Y91621D01*
X173741Y91481D01*
X173691Y91332D01*
X173664Y91176D01*
X173662Y91018D01*
X173685Y90861D01*
X173732Y90710D01*
X173802Y90569D01*
X173893Y90439D01*
X174004Y90326D01*
X174130Y90232D01*
X174270Y90158D01*
X174420Y90108D01*
X174576Y90081D01*
X174734Y90079D01*
X174890Y90102D01*
X175040Y90152D01*
X175392Y90278D01*
X175756Y90366D01*
X176126Y90419D01*
X176500Y90437D01*
X176502Y90437D01*
Y82563D01*
X176500Y82563D01*
X176126Y82581D01*
X175756Y82634D01*
X175392Y82722D01*
X175039Y82844D01*
X174889Y82894D01*
X174734Y82917D01*
X174576Y82915D01*
X174421Y82888D01*
X174272Y82838D01*
X174133Y82764D01*
X174007Y82670D01*
X173897Y82558D01*
X173806Y82429D01*
X173736Y82288D01*
X173689Y82138D01*
X173667Y81982D01*
X173668Y81825D01*
X173695Y81669D01*
X173746Y81520D01*
X173819Y81381D01*
X173913Y81255D01*
X174025Y81145D01*
X174154Y81054D01*
X174296Y80987D01*
X174828Y80796D01*
X175377Y80663D01*
X175936Y80583D01*
X176500Y80556D01*
X176502Y80556D01*
Y58000D01*
X172000D01*
Y83665D01*
X172139Y83685D01*
X172290Y83732D01*
X172431Y83802D01*
X172561Y83893D01*
X172674Y84004D01*
X172768Y84130D01*
X172842Y84270D01*
X172892Y84420D01*
X172919Y84576D01*
X172921Y84734D01*
X172898Y84890D01*
X172848Y85040D01*
X172722Y85392D01*
X172634Y85756D01*
X172581Y86126D01*
X172563Y86500D01*
X172581Y86874D01*
X172634Y87244D01*
X172722Y87608D01*
X172844Y87961D01*
X172894Y88111D01*
X172917Y88266D01*
X172915Y88424D01*
X172888Y88579D01*
X172838Y88728D01*
X172764Y88867D01*
X172670Y88993D01*
X172558Y89103D01*
X172429Y89194D01*
X172288Y89264D01*
X172138Y89311D01*
X172000Y89331D01*
Y94000D01*
G37*
G36*
X153500Y66000D02*X176000D01*
Y59000D01*
X153500D01*
Y66000D01*
G37*
G36*
X430498Y169000D02*X440500D01*
Y147500D01*
X436006D01*
X435982Y148016D01*
X435909Y148528D01*
X435789Y149031D01*
X435622Y149520D01*
X435410Y149992D01*
X435349Y150093D01*
X435272Y150184D01*
X435182Y150261D01*
X435080Y150323D01*
X434971Y150369D01*
X434855Y150397D01*
X434737Y150406D01*
X434619Y150397D01*
X434503Y150370D01*
X434393Y150324D01*
X434292Y150262D01*
X434202Y150186D01*
X434124Y150095D01*
X434062Y149994D01*
X434016Y149885D01*
X433989Y149769D01*
X433979Y149651D01*
X433988Y149532D01*
X434016Y149417D01*
X434063Y149308D01*
X434221Y148968D01*
X434342Y148612D01*
X434430Y148247D01*
X434482Y147875D01*
X434500Y147500D01*
X430498D01*
Y151500D01*
X430500Y151500D01*
X430875Y151482D01*
X431247Y151430D01*
X431612Y151342D01*
X431968Y151221D01*
X432310Y151067D01*
X432418Y151020D01*
X432533Y150993D01*
X432651Y150983D01*
X432768Y150993D01*
X432883Y151021D01*
X432992Y151066D01*
X433093Y151128D01*
X433182Y151205D01*
X433259Y151295D01*
X433320Y151395D01*
X433365Y151504D01*
X433393Y151619D01*
X433402Y151737D01*
X433392Y151855D01*
X433365Y151969D01*
X433319Y152078D01*
X433257Y152179D01*
X433181Y152269D01*
X433091Y152345D01*
X432989Y152405D01*
X432520Y152622D01*
X432031Y152789D01*
X431528Y152909D01*
X431016Y152982D01*
X430500Y153006D01*
X430498Y153006D01*
Y169000D01*
G37*
G36*
X410498D02*X430498D01*
Y153006D01*
X429984Y152982D01*
X429472Y152909D01*
X428969Y152789D01*
X428480Y152622D01*
X428008Y152410D01*
X427907Y152349D01*
X427816Y152272D01*
X427739Y152182D01*
X427677Y152080D01*
X427631Y151971D01*
X427603Y151855D01*
X427594Y151737D01*
X427603Y151619D01*
X427630Y151503D01*
X427676Y151393D01*
X427738Y151292D01*
X427814Y151202D01*
X427905Y151124D01*
X428006Y151062D01*
X428115Y151016D01*
X428231Y150989D01*
X428349Y150979D01*
X428468Y150988D01*
X428583Y151016D01*
X428692Y151063D01*
X429032Y151221D01*
X429388Y151342D01*
X429753Y151430D01*
X430125Y151482D01*
X430498Y151500D01*
Y147500D01*
X426500D01*
Y147500D01*
X426518Y147875D01*
X426570Y148247D01*
X426658Y148612D01*
X426779Y148968D01*
X426933Y149310D01*
X426980Y149418D01*
X427007Y149533D01*
X427017Y149651D01*
X427007Y149768D01*
X426979Y149883D01*
X426934Y149992D01*
X426872Y150093D01*
X426795Y150182D01*
X426705Y150259D01*
X426605Y150320D01*
X426496Y150365D01*
X426381Y150393D01*
X426263Y150402D01*
X426145Y150392D01*
X426031Y150365D01*
X425922Y150319D01*
X425821Y150257D01*
X425731Y150181D01*
X425655Y150091D01*
X425595Y149989D01*
X425378Y149520D01*
X425211Y149031D01*
X425091Y148528D01*
X425018Y148016D01*
X424994Y147500D01*
X416006D01*
X415982Y148016D01*
X415909Y148528D01*
X415789Y149031D01*
X415622Y149520D01*
X415410Y149992D01*
X415349Y150093D01*
X415272Y150184D01*
X415182Y150261D01*
X415080Y150323D01*
X414971Y150369D01*
X414855Y150397D01*
X414737Y150406D01*
X414619Y150397D01*
X414503Y150370D01*
X414393Y150324D01*
X414292Y150262D01*
X414202Y150186D01*
X414124Y150095D01*
X414062Y149994D01*
X414016Y149885D01*
X413989Y149769D01*
X413979Y149651D01*
X413988Y149532D01*
X414016Y149417D01*
X414063Y149308D01*
X414221Y148968D01*
X414342Y148612D01*
X414430Y148247D01*
X414482Y147875D01*
X414500Y147500D01*
X410498D01*
Y151500D01*
X410500Y151500D01*
X410875Y151482D01*
X411247Y151430D01*
X411612Y151342D01*
X411968Y151221D01*
X412310Y151067D01*
X412418Y151020D01*
X412533Y150993D01*
X412651Y150983D01*
X412768Y150993D01*
X412883Y151021D01*
X412992Y151066D01*
X413093Y151128D01*
X413182Y151205D01*
X413259Y151295D01*
X413320Y151395D01*
X413365Y151504D01*
X413393Y151619D01*
X413402Y151737D01*
X413392Y151855D01*
X413365Y151969D01*
X413319Y152078D01*
X413257Y152179D01*
X413181Y152269D01*
X413091Y152345D01*
X412989Y152405D01*
X412520Y152622D01*
X412031Y152789D01*
X411528Y152909D01*
X411016Y152982D01*
X410500Y153006D01*
X410498Y153006D01*
Y169000D01*
G37*
G36*
X380487D02*X410498D01*
Y153006D01*
X409984Y152982D01*
X409472Y152909D01*
X408969Y152789D01*
X408480Y152622D01*
X408008Y152410D01*
X407907Y152349D01*
X407816Y152272D01*
X407739Y152182D01*
X407677Y152080D01*
X407631Y151971D01*
X407603Y151855D01*
X407594Y151737D01*
X407603Y151619D01*
X407630Y151503D01*
X407676Y151393D01*
X407738Y151292D01*
X407814Y151202D01*
X407905Y151124D01*
X408006Y151062D01*
X408115Y151016D01*
X408231Y150989D01*
X408349Y150979D01*
X408468Y150988D01*
X408583Y151016D01*
X408692Y151063D01*
X409032Y151221D01*
X409388Y151342D01*
X409753Y151430D01*
X410125Y151482D01*
X410498Y151500D01*
Y147500D01*
X406500D01*
Y147500D01*
X406518Y147875D01*
X406570Y148247D01*
X406658Y148612D01*
X406779Y148968D01*
X406933Y149310D01*
X406980Y149418D01*
X407007Y149533D01*
X407017Y149651D01*
X407007Y149768D01*
X406979Y149883D01*
X406934Y149992D01*
X406872Y150093D01*
X406795Y150182D01*
X406705Y150259D01*
X406605Y150320D01*
X406496Y150365D01*
X406381Y150393D01*
X406263Y150402D01*
X406145Y150392D01*
X406031Y150365D01*
X405922Y150319D01*
X405821Y150257D01*
X405731Y150181D01*
X405655Y150091D01*
X405595Y149989D01*
X405378Y149520D01*
X405211Y149031D01*
X405091Y148528D01*
X405018Y148016D01*
X404994Y147500D01*
X396000D01*
X395949Y148363D01*
X395747Y149205D01*
X395416Y150005D01*
X394963Y150743D01*
X394401Y151401D01*
X393743Y151963D01*
X393005Y152416D01*
X392205Y152747D01*
X391363Y152949D01*
X390500Y153017D01*
X389637Y152949D01*
X388795Y152747D01*
X387995Y152416D01*
X387257Y151963D01*
X386599Y151401D01*
X386037Y150743D01*
X385584Y150005D01*
X385253Y149205D01*
X385051Y148363D01*
X384983Y147500D01*
X380487D01*
Y150276D01*
X380500Y150275D01*
X381787Y150376D01*
X383042Y150677D01*
X384234Y151171D01*
X385335Y151846D01*
X386316Y152684D01*
X387154Y153665D01*
X387829Y154766D01*
X388323Y155958D01*
X388624Y157213D01*
X388700Y158500D01*
X388624Y159787D01*
X388323Y161042D01*
X387829Y162234D01*
X387154Y163335D01*
X386316Y164316D01*
X385335Y165154D01*
X384234Y165829D01*
X383042Y166323D01*
X381787Y166624D01*
X380500Y166725D01*
X380487Y166724D01*
Y169000D01*
G37*
G36*
X340487D02*X380487D01*
Y166724D01*
X379213Y166624D01*
X377958Y166323D01*
X376766Y165829D01*
X375665Y165154D01*
X374684Y164316D01*
X373846Y163335D01*
X373171Y162234D01*
X372677Y161042D01*
X372376Y159787D01*
X372275Y158500D01*
X372376Y157213D01*
X372677Y155958D01*
X373171Y154766D01*
X373846Y153665D01*
X374684Y152684D01*
X375665Y151846D01*
X376766Y151171D01*
X377958Y150677D01*
X379213Y150376D01*
X380487Y150276D01*
Y147500D01*
X376000D01*
X375949Y148363D01*
X375747Y149205D01*
X375416Y150005D01*
X374963Y150743D01*
X374401Y151401D01*
X373743Y151963D01*
X373005Y152416D01*
X372205Y152747D01*
X371363Y152949D01*
X370500Y153017D01*
X369637Y152949D01*
X368795Y152747D01*
X367995Y152416D01*
X367257Y151963D01*
X366599Y151401D01*
X366037Y150743D01*
X365584Y150005D01*
X365253Y149205D01*
X365051Y148363D01*
X364983Y147500D01*
X356000D01*
X355949Y148363D01*
X355747Y149205D01*
X355416Y150005D01*
X354963Y150743D01*
X354401Y151401D01*
X353743Y151963D01*
X353005Y152416D01*
X352205Y152747D01*
X351363Y152949D01*
X350500Y153017D01*
X349637Y152949D01*
X348795Y152747D01*
X347995Y152416D01*
X347257Y151963D01*
X346599Y151401D01*
X346037Y150743D01*
X345584Y150005D01*
X345253Y149205D01*
X345051Y148363D01*
X344983Y147500D01*
X343621D01*
X342602Y148519D01*
X342564Y148564D01*
X342384Y148717D01*
X342183Y148841D01*
X341965Y148931D01*
X341735Y148986D01*
X341735Y148986D01*
X341500Y149005D01*
X341441Y149000D01*
X340487D01*
Y150276D01*
X340500Y150275D01*
X341787Y150376D01*
X343042Y150677D01*
X344234Y151171D01*
X345335Y151846D01*
X346316Y152684D01*
X347154Y153665D01*
X347829Y154766D01*
X348323Y155958D01*
X348624Y157213D01*
X348700Y158500D01*
X348624Y159787D01*
X348323Y161042D01*
X347829Y162234D01*
X347154Y163335D01*
X346316Y164316D01*
X345335Y165154D01*
X344234Y165829D01*
X343042Y166323D01*
X341787Y166624D01*
X340500Y166725D01*
X340487Y166724D01*
Y169000D01*
G37*
G36*
X300487D02*X340487D01*
Y166724D01*
X339213Y166624D01*
X337958Y166323D01*
X336766Y165829D01*
X335665Y165154D01*
X334684Y164316D01*
X333846Y163335D01*
X333171Y162234D01*
X332677Y161042D01*
X332376Y159787D01*
X332275Y158500D01*
X332376Y157213D01*
X332677Y155958D01*
X333171Y154766D01*
X333846Y153665D01*
X334684Y152684D01*
X335665Y151846D01*
X336766Y151171D01*
X337958Y150677D01*
X339213Y150376D01*
X340487Y150276D01*
Y149000D01*
X335796D01*
X335747Y149205D01*
X335416Y150005D01*
X334963Y150743D01*
X334401Y151401D01*
X333743Y151963D01*
X333005Y152416D01*
X332205Y152747D01*
X331363Y152949D01*
X330500Y153017D01*
X329637Y152949D01*
X328795Y152747D01*
X327995Y152416D01*
X327257Y151963D01*
X326599Y151401D01*
X326037Y150743D01*
X325584Y150005D01*
X325253Y149205D01*
X325051Y148363D01*
X324983Y147500D01*
X316000D01*
X315949Y148363D01*
X315747Y149205D01*
X315416Y150005D01*
X314963Y150743D01*
X314401Y151401D01*
X313743Y151963D01*
X313005Y152416D01*
X312205Y152747D01*
X311363Y152949D01*
X310500Y153017D01*
X309637Y152949D01*
X308795Y152747D01*
X307995Y152416D01*
X307257Y151963D01*
X306599Y151401D01*
X306037Y150743D01*
X305584Y150005D01*
X305253Y149205D01*
X305051Y148363D01*
X304983Y147500D01*
X300487D01*
Y150276D01*
X300500Y150275D01*
X301787Y150376D01*
X303042Y150677D01*
X304234Y151171D01*
X305335Y151846D01*
X306316Y152684D01*
X307154Y153665D01*
X307829Y154766D01*
X308323Y155958D01*
X308624Y157213D01*
X308700Y158500D01*
X308624Y159787D01*
X308323Y161042D01*
X307829Y162234D01*
X307154Y163335D01*
X306316Y164316D01*
X305335Y165154D01*
X304234Y165829D01*
X303042Y166323D01*
X301787Y166624D01*
X300500Y166725D01*
X300487Y166724D01*
Y169000D01*
G37*
G36*
X260487D02*X300487D01*
Y166724D01*
X299213Y166624D01*
X297958Y166323D01*
X296766Y165829D01*
X295665Y165154D01*
X294684Y164316D01*
X293846Y163335D01*
X293171Y162234D01*
X292677Y161042D01*
X292376Y159787D01*
X292275Y158500D01*
X292376Y157213D01*
X292677Y155958D01*
X293171Y154766D01*
X293846Y153665D01*
X294684Y152684D01*
X295665Y151846D01*
X296766Y151171D01*
X297958Y150677D01*
X299213Y150376D01*
X300487Y150276D01*
Y147500D01*
X296000D01*
X295949Y148363D01*
X295747Y149205D01*
X295416Y150005D01*
X294963Y150743D01*
X294401Y151401D01*
X293743Y151963D01*
X293005Y152416D01*
X292205Y152747D01*
X291363Y152949D01*
X290500Y153017D01*
X289637Y152949D01*
X288795Y152747D01*
X287995Y152416D01*
X287257Y151963D01*
X286599Y151401D01*
X286037Y150743D01*
X285584Y150005D01*
X285253Y149205D01*
X285051Y148363D01*
X284983Y147500D01*
X276000D01*
X275949Y148363D01*
X275747Y149205D01*
X275416Y150005D01*
X274963Y150743D01*
X274401Y151401D01*
X273743Y151963D01*
X273005Y152416D01*
X272205Y152747D01*
X271363Y152949D01*
X270500Y153017D01*
X269637Y152949D01*
X268795Y152747D01*
X267995Y152416D01*
X267257Y151963D01*
X266599Y151401D01*
X266037Y150743D01*
X265584Y150005D01*
X265253Y149205D01*
X265051Y148363D01*
X264983Y147500D01*
X263621D01*
X262602Y148519D01*
X262564Y148564D01*
X262384Y148717D01*
X262183Y148841D01*
X261965Y148931D01*
X261735Y148986D01*
X261735Y148986D01*
X261500Y149005D01*
X261441Y149000D01*
X260487D01*
Y150276D01*
X260500Y150275D01*
X261787Y150376D01*
X263042Y150677D01*
X264234Y151171D01*
X265335Y151846D01*
X266316Y152684D01*
X267154Y153665D01*
X267829Y154766D01*
X268323Y155958D01*
X268624Y157213D01*
X268700Y158500D01*
X268624Y159787D01*
X268323Y161042D01*
X267829Y162234D01*
X267154Y163335D01*
X266316Y164316D01*
X265335Y165154D01*
X264234Y165829D01*
X263042Y166323D01*
X261787Y166624D01*
X260500Y166725D01*
X260487Y166724D01*
Y169000D01*
G37*
G36*
X180487D02*X260487D01*
Y166724D01*
X259213Y166624D01*
X257958Y166323D01*
X256766Y165829D01*
X255665Y165154D01*
X254684Y164316D01*
X253846Y163335D01*
X253171Y162234D01*
X252677Y161042D01*
X252376Y159787D01*
X252275Y158500D01*
X252376Y157213D01*
X252677Y155958D01*
X253171Y154766D01*
X253846Y153665D01*
X254684Y152684D01*
X255665Y151846D01*
X256766Y151171D01*
X257958Y150677D01*
X259213Y150376D01*
X260487Y150276D01*
Y149000D01*
X255796D01*
X255747Y149205D01*
X255416Y150005D01*
X254963Y150743D01*
X254401Y151401D01*
X253743Y151963D01*
X253005Y152416D01*
X252205Y152747D01*
X251363Y152949D01*
X250500Y153017D01*
X249637Y152949D01*
X248795Y152747D01*
X247995Y152416D01*
X247257Y151963D01*
X246599Y151401D01*
X246037Y150743D01*
X245584Y150005D01*
X245253Y149205D01*
X245051Y148363D01*
X244983Y147500D01*
X236000D01*
X235949Y148363D01*
X235747Y149205D01*
X235416Y150005D01*
X234963Y150743D01*
X234401Y151401D01*
X233743Y151963D01*
X233005Y152416D01*
X232205Y152747D01*
X231363Y152949D01*
X230500Y153017D01*
X229637Y152949D01*
X228795Y152747D01*
X227995Y152416D01*
X227257Y151963D01*
X226599Y151401D01*
X226037Y150743D01*
X225584Y150005D01*
X225253Y149205D01*
X225051Y148363D01*
X224983Y147500D01*
X216000D01*
X215949Y148363D01*
X215747Y149205D01*
X215416Y150005D01*
X214963Y150743D01*
X214401Y151401D01*
X213743Y151963D01*
X213005Y152416D01*
X212205Y152747D01*
X211363Y152949D01*
X210500Y153017D01*
X209637Y152949D01*
X208795Y152747D01*
X207995Y152416D01*
X207257Y151963D01*
X206599Y151401D01*
X206037Y150743D01*
X205584Y150005D01*
X205253Y149205D01*
X205051Y148363D01*
X204983Y147500D01*
X196000D01*
X195949Y148363D01*
X195747Y149205D01*
X195416Y150005D01*
X194963Y150743D01*
X194401Y151401D01*
X193743Y151963D01*
X193005Y152416D01*
X192205Y152747D01*
X191363Y152949D01*
X190500Y153017D01*
X189637Y152949D01*
X188795Y152747D01*
X187995Y152416D01*
X187257Y151963D01*
X186599Y151401D01*
X186037Y150743D01*
X185584Y150005D01*
X185253Y149205D01*
X185051Y148363D01*
X184983Y147500D01*
X180487D01*
Y150276D01*
X180500Y150275D01*
X181787Y150376D01*
X183042Y150677D01*
X184234Y151171D01*
X185335Y151846D01*
X186316Y152684D01*
X187154Y153665D01*
X187829Y154766D01*
X188323Y155958D01*
X188624Y157213D01*
X188700Y158500D01*
X188624Y159787D01*
X188323Y161042D01*
X187829Y162234D01*
X187154Y163335D01*
X186316Y164316D01*
X185335Y165154D01*
X184234Y165829D01*
X183042Y166323D01*
X181787Y166624D01*
X180500Y166725D01*
X180487Y166724D01*
Y169000D01*
G37*
G36*
X140487D02*X180487D01*
Y166724D01*
X179213Y166624D01*
X177958Y166323D01*
X176766Y165829D01*
X175665Y165154D01*
X174684Y164316D01*
X173846Y163335D01*
X173171Y162234D01*
X172677Y161042D01*
X172376Y159787D01*
X172275Y158500D01*
X172376Y157213D01*
X172677Y155958D01*
X173171Y154766D01*
X173846Y153665D01*
X174684Y152684D01*
X175665Y151846D01*
X176766Y151171D01*
X177958Y150677D01*
X179213Y150376D01*
X180487Y150276D01*
Y147500D01*
X176000D01*
X175949Y148363D01*
X175747Y149205D01*
X175416Y150005D01*
X174963Y150743D01*
X174401Y151401D01*
X173743Y151963D01*
X173005Y152416D01*
X172205Y152747D01*
X171363Y152949D01*
X170500Y153017D01*
X169637Y152949D01*
X168795Y152747D01*
X167995Y152416D01*
X167257Y151963D01*
X166599Y151401D01*
X166037Y150743D01*
X165584Y150005D01*
X165253Y149205D01*
X165051Y148363D01*
X164983Y147500D01*
X156000D01*
X155949Y148363D01*
X155747Y149205D01*
X155416Y150005D01*
X154963Y150743D01*
X154401Y151401D01*
X153743Y151963D01*
X153005Y152416D01*
X152205Y152747D01*
X151363Y152949D01*
X150500Y153017D01*
X149637Y152949D01*
X148795Y152747D01*
X147995Y152416D01*
X147257Y151963D01*
X146599Y151401D01*
X146037Y150743D01*
X145584Y150005D01*
X145253Y149205D01*
X145051Y148363D01*
X144983Y147500D01*
X143621D01*
X142602Y148519D01*
X142564Y148564D01*
X142384Y148717D01*
X142183Y148841D01*
X141965Y148931D01*
X141735Y148986D01*
X141735Y148986D01*
X141500Y149005D01*
X141441Y149000D01*
X140487D01*
Y150276D01*
X140500Y150275D01*
X141787Y150376D01*
X143042Y150677D01*
X144234Y151171D01*
X145335Y151846D01*
X146316Y152684D01*
X147154Y153665D01*
X147829Y154766D01*
X148323Y155958D01*
X148624Y157213D01*
X148700Y158500D01*
X148624Y159787D01*
X148323Y161042D01*
X147829Y162234D01*
X147154Y163335D01*
X146316Y164316D01*
X145335Y165154D01*
X144234Y165829D01*
X143042Y166323D01*
X141787Y166624D01*
X140500Y166725D01*
X140487Y166724D01*
Y169000D01*
G37*
G36*
X100487D02*X140487D01*
Y166724D01*
X139213Y166624D01*
X137958Y166323D01*
X136766Y165829D01*
X135665Y165154D01*
X134684Y164316D01*
X133846Y163335D01*
X133171Y162234D01*
X132677Y161042D01*
X132376Y159787D01*
X132275Y158500D01*
X132376Y157213D01*
X132677Y155958D01*
X133171Y154766D01*
X133846Y153665D01*
X134684Y152684D01*
X135665Y151846D01*
X136766Y151171D01*
X137958Y150677D01*
X139213Y150376D01*
X140487Y150276D01*
Y149000D01*
X135796D01*
X135747Y149205D01*
X135416Y150005D01*
X134963Y150743D01*
X134401Y151401D01*
X133743Y151963D01*
X133005Y152416D01*
X132205Y152747D01*
X131363Y152949D01*
X130500Y153017D01*
X129637Y152949D01*
X128795Y152747D01*
X127995Y152416D01*
X127257Y151963D01*
X126599Y151401D01*
X126037Y150743D01*
X125584Y150005D01*
X125253Y149205D01*
X125051Y148363D01*
X124983Y147500D01*
X116000D01*
X115949Y148363D01*
X115747Y149205D01*
X115416Y150005D01*
X114963Y150743D01*
X114401Y151401D01*
X113743Y151963D01*
X113005Y152416D01*
X112205Y152747D01*
X111363Y152949D01*
X110500Y153017D01*
X109637Y152949D01*
X108795Y152747D01*
X107995Y152416D01*
X107257Y151963D01*
X106599Y151401D01*
X106037Y150743D01*
X105584Y150005D01*
X105253Y149205D01*
X105051Y148363D01*
X104983Y147500D01*
X100487D01*
Y150276D01*
X100500Y150275D01*
X101787Y150376D01*
X103042Y150677D01*
X104234Y151171D01*
X105335Y151846D01*
X106316Y152684D01*
X107154Y153665D01*
X107829Y154766D01*
X108323Y155958D01*
X108624Y157213D01*
X108700Y158500D01*
X108624Y159787D01*
X108323Y161042D01*
X107829Y162234D01*
X107154Y163335D01*
X106316Y164316D01*
X105335Y165154D01*
X104234Y165829D01*
X103042Y166323D01*
X101787Y166624D01*
X100500Y166725D01*
X100487Y166724D01*
Y169000D01*
G37*
G36*
X60487D02*X100487D01*
Y166724D01*
X99213Y166624D01*
X97958Y166323D01*
X96766Y165829D01*
X95665Y165154D01*
X94684Y164316D01*
X93846Y163335D01*
X93171Y162234D01*
X92677Y161042D01*
X92376Y159787D01*
X92275Y158500D01*
X92376Y157213D01*
X92677Y155958D01*
X93171Y154766D01*
X93846Y153665D01*
X94684Y152684D01*
X95665Y151846D01*
X96766Y151171D01*
X97958Y150677D01*
X99213Y150376D01*
X100487Y150276D01*
Y147500D01*
X96000D01*
X95949Y148363D01*
X95747Y149205D01*
X95416Y150005D01*
X94963Y150743D01*
X94401Y151401D01*
X93743Y151963D01*
X93005Y152416D01*
X92205Y152747D01*
X91363Y152949D01*
X90500Y153017D01*
X89637Y152949D01*
X88795Y152747D01*
X87995Y152416D01*
X87257Y151963D01*
X86599Y151401D01*
X86037Y150743D01*
X85584Y150005D01*
X85253Y149205D01*
X85051Y148363D01*
X84983Y147500D01*
X76000D01*
X75949Y148363D01*
X75747Y149205D01*
X75416Y150005D01*
X74963Y150743D01*
X74401Y151401D01*
X73743Y151963D01*
X73005Y152416D01*
X72205Y152747D01*
X71363Y152949D01*
X70500Y153017D01*
X69637Y152949D01*
X68795Y152747D01*
X67995Y152416D01*
X67257Y151963D01*
X66599Y151401D01*
X66037Y150743D01*
X65584Y150005D01*
X65253Y149205D01*
X65051Y148363D01*
X64983Y147500D01*
X63621D01*
X62602Y148519D01*
X62564Y148564D01*
X62384Y148717D01*
X62183Y148841D01*
X61965Y148931D01*
X61735Y148986D01*
X61735Y148986D01*
X61500Y149005D01*
X61441Y149000D01*
X60487D01*
Y150276D01*
X60500Y150275D01*
X61787Y150376D01*
X63042Y150677D01*
X64234Y151171D01*
X65335Y151846D01*
X66316Y152684D01*
X67154Y153665D01*
X67829Y154766D01*
X68323Y155958D01*
X68624Y157213D01*
X68700Y158500D01*
X68624Y159787D01*
X68323Y161042D01*
X67829Y162234D01*
X67154Y163335D01*
X66316Y164316D01*
X65335Y165154D01*
X64234Y165829D01*
X63042Y166323D01*
X61787Y166624D01*
X60500Y166725D01*
X60487Y166724D01*
Y169000D01*
G37*
G36*
X30498D02*X60487D01*
Y166724D01*
X59213Y166624D01*
X57958Y166323D01*
X56766Y165829D01*
X55665Y165154D01*
X54684Y164316D01*
X53846Y163335D01*
X53171Y162234D01*
X52677Y161042D01*
X52376Y159787D01*
X52275Y158500D01*
X52376Y157213D01*
X52677Y155958D01*
X53171Y154766D01*
X53846Y153665D01*
X54684Y152684D01*
X55665Y151846D01*
X56766Y151171D01*
X57958Y150677D01*
X59213Y150376D01*
X60487Y150276D01*
Y149000D01*
X55796D01*
X55747Y149205D01*
X55416Y150005D01*
X54963Y150743D01*
X54401Y151401D01*
X53743Y151963D01*
X53005Y152416D01*
X52205Y152747D01*
X51363Y152949D01*
X50500Y153017D01*
X49637Y152949D01*
X48795Y152747D01*
X47995Y152416D01*
X47257Y151963D01*
X46599Y151401D01*
X46037Y150743D01*
X45584Y150005D01*
X45253Y149205D01*
X45051Y148363D01*
X44983Y147500D01*
X36006D01*
X35982Y148016D01*
X35909Y148528D01*
X35789Y149031D01*
X35622Y149520D01*
X35410Y149992D01*
X35349Y150093D01*
X35272Y150184D01*
X35182Y150261D01*
X35080Y150323D01*
X34971Y150369D01*
X34855Y150397D01*
X34737Y150406D01*
X34619Y150397D01*
X34503Y150370D01*
X34393Y150324D01*
X34292Y150262D01*
X34202Y150186D01*
X34124Y150095D01*
X34062Y149994D01*
X34016Y149885D01*
X33989Y149769D01*
X33979Y149651D01*
X33988Y149532D01*
X34016Y149417D01*
X34063Y149308D01*
X34221Y148968D01*
X34342Y148612D01*
X34430Y148247D01*
X34482Y147875D01*
X34500Y147500D01*
X30498D01*
Y151500D01*
X30500Y151500D01*
X30875Y151482D01*
X31247Y151430D01*
X31612Y151342D01*
X31968Y151221D01*
X32310Y151067D01*
X32418Y151020D01*
X32533Y150993D01*
X32651Y150983D01*
X32768Y150993D01*
X32883Y151021D01*
X32992Y151066D01*
X33093Y151128D01*
X33182Y151205D01*
X33259Y151295D01*
X33320Y151395D01*
X33365Y151504D01*
X33393Y151619D01*
X33402Y151737D01*
X33392Y151855D01*
X33365Y151969D01*
X33319Y152078D01*
X33257Y152179D01*
X33181Y152269D01*
X33091Y152345D01*
X32989Y152405D01*
X32520Y152622D01*
X32031Y152789D01*
X31528Y152909D01*
X31016Y152982D01*
X30500Y153006D01*
X30498Y153006D01*
Y169000D01*
G37*
G36*
X10498D02*X30498D01*
Y153006D01*
X29984Y152982D01*
X29472Y152909D01*
X28969Y152789D01*
X28480Y152622D01*
X28008Y152410D01*
X27907Y152349D01*
X27816Y152272D01*
X27739Y152182D01*
X27677Y152080D01*
X27631Y151971D01*
X27603Y151855D01*
X27594Y151737D01*
X27603Y151619D01*
X27630Y151503D01*
X27676Y151393D01*
X27738Y151292D01*
X27814Y151202D01*
X27905Y151124D01*
X28006Y151062D01*
X28115Y151016D01*
X28231Y150989D01*
X28349Y150979D01*
X28468Y150988D01*
X28583Y151016D01*
X28692Y151063D01*
X29032Y151221D01*
X29388Y151342D01*
X29753Y151430D01*
X30125Y151482D01*
X30498Y151500D01*
Y147500D01*
X26500D01*
Y147500D01*
X26518Y147875D01*
X26570Y148247D01*
X26658Y148612D01*
X26779Y148968D01*
X26933Y149310D01*
X26980Y149418D01*
X27007Y149533D01*
X27017Y149651D01*
X27007Y149768D01*
X26979Y149883D01*
X26934Y149992D01*
X26872Y150093D01*
X26795Y150182D01*
X26705Y150259D01*
X26605Y150320D01*
X26496Y150365D01*
X26381Y150393D01*
X26263Y150402D01*
X26145Y150392D01*
X26031Y150365D01*
X25922Y150319D01*
X25821Y150257D01*
X25731Y150181D01*
X25655Y150091D01*
X25595Y149989D01*
X25378Y149520D01*
X25211Y149031D01*
X25091Y148528D01*
X25018Y148016D01*
X24994Y147500D01*
X16006D01*
X15982Y148016D01*
X15909Y148528D01*
X15789Y149031D01*
X15622Y149520D01*
X15410Y149992D01*
X15349Y150093D01*
X15272Y150184D01*
X15182Y150261D01*
X15080Y150323D01*
X14971Y150369D01*
X14855Y150397D01*
X14737Y150406D01*
X14619Y150397D01*
X14503Y150370D01*
X14393Y150324D01*
X14292Y150262D01*
X14202Y150186D01*
X14124Y150095D01*
X14062Y149994D01*
X14016Y149885D01*
X13989Y149769D01*
X13979Y149651D01*
X13988Y149532D01*
X14016Y149417D01*
X14063Y149308D01*
X14221Y148968D01*
X14342Y148612D01*
X14430Y148247D01*
X14482Y147875D01*
X14500Y147500D01*
X10498D01*
Y151500D01*
X10500Y151500D01*
X10875Y151482D01*
X11247Y151430D01*
X11612Y151342D01*
X11968Y151221D01*
X12310Y151067D01*
X12418Y151020D01*
X12533Y150993D01*
X12651Y150983D01*
X12768Y150993D01*
X12883Y151021D01*
X12992Y151066D01*
X13093Y151128D01*
X13182Y151205D01*
X13259Y151295D01*
X13320Y151395D01*
X13365Y151504D01*
X13393Y151619D01*
X13402Y151737D01*
X13392Y151855D01*
X13365Y151969D01*
X13319Y152078D01*
X13257Y152179D01*
X13181Y152269D01*
X13091Y152345D01*
X12989Y152405D01*
X12520Y152622D01*
X12031Y152789D01*
X11528Y152909D01*
X11016Y152982D01*
X10500Y153006D01*
X10498Y153006D01*
Y169000D01*
G37*
G36*
X1000D02*X10498D01*
Y153006D01*
X9984Y152982D01*
X9472Y152909D01*
X8969Y152789D01*
X8480Y152622D01*
X8008Y152410D01*
X7907Y152349D01*
X7816Y152272D01*
X7739Y152182D01*
X7677Y152080D01*
X7631Y151971D01*
X7603Y151855D01*
X7594Y151737D01*
X7603Y151619D01*
X7630Y151503D01*
X7676Y151393D01*
X7738Y151292D01*
X7814Y151202D01*
X7905Y151124D01*
X8006Y151062D01*
X8115Y151016D01*
X8231Y150989D01*
X8349Y150979D01*
X8468Y150988D01*
X8583Y151016D01*
X8692Y151063D01*
X9032Y151221D01*
X9388Y151342D01*
X9753Y151430D01*
X10125Y151482D01*
X10498Y151500D01*
Y147500D01*
X6500D01*
Y147500D01*
X6518Y147875D01*
X6570Y148247D01*
X6658Y148612D01*
X6779Y148968D01*
X6933Y149310D01*
X6980Y149418D01*
X7007Y149533D01*
X7017Y149651D01*
X7007Y149768D01*
X6979Y149883D01*
X6934Y149992D01*
X6872Y150093D01*
X6795Y150182D01*
X6705Y150259D01*
X6605Y150320D01*
X6496Y150365D01*
X6381Y150393D01*
X6263Y150402D01*
X6145Y150392D01*
X6031Y150365D01*
X5922Y150319D01*
X5821Y150257D01*
X5731Y150181D01*
X5655Y150091D01*
X5595Y149989D01*
X5378Y149520D01*
X5211Y149031D01*
X5091Y148528D01*
X5018Y148016D01*
X4994Y147500D01*
X1000D01*
Y169000D01*
G37*
G36*
X434993Y160500D02*X440500D01*
Y130500D01*
X434993D01*
Y144645D01*
X435078Y144681D01*
X435179Y144743D01*
X435269Y144819D01*
X435345Y144909D01*
X435405Y145011D01*
X435622Y145480D01*
X435789Y145969D01*
X435909Y146472D01*
X435982Y146984D01*
X436006Y147500D01*
X435982Y148016D01*
X435909Y148528D01*
X435789Y149031D01*
X435622Y149520D01*
X435410Y149992D01*
X435349Y150093D01*
X435272Y150184D01*
X435182Y150261D01*
X435080Y150323D01*
X434993Y150360D01*
Y160500D01*
G37*
G36*
X430502D02*X434993D01*
Y150360D01*
X434971Y150369D01*
X434855Y150397D01*
X434737Y150406D01*
X434619Y150397D01*
X434503Y150370D01*
X434393Y150324D01*
X434292Y150262D01*
X434202Y150186D01*
X434124Y150095D01*
X434062Y149994D01*
X434016Y149885D01*
X433989Y149769D01*
X433979Y149651D01*
X433988Y149532D01*
X434016Y149417D01*
X434063Y149308D01*
X434221Y148968D01*
X434342Y148612D01*
X434430Y148247D01*
X434482Y147875D01*
X434500Y147500D01*
X434482Y147125D01*
X434430Y146753D01*
X434342Y146388D01*
X434221Y146032D01*
X434067Y145690D01*
X434020Y145582D01*
X433993Y145467D01*
X433983Y145349D01*
X433993Y145232D01*
X434021Y145117D01*
X434066Y145008D01*
X434128Y144907D01*
X434205Y144818D01*
X434295Y144741D01*
X434395Y144680D01*
X434504Y144635D01*
X434619Y144607D01*
X434737Y144598D01*
X434855Y144608D01*
X434969Y144635D01*
X434993Y144645D01*
Y130500D01*
X430502D01*
Y141994D01*
X431016Y142018D01*
X431528Y142091D01*
X432031Y142211D01*
X432520Y142378D01*
X432992Y142590D01*
X433093Y142651D01*
X433184Y142728D01*
X433261Y142818D01*
X433323Y142920D01*
X433369Y143029D01*
X433397Y143145D01*
X433406Y143263D01*
X433397Y143381D01*
X433370Y143497D01*
X433324Y143607D01*
X433262Y143708D01*
X433186Y143798D01*
X433095Y143876D01*
X432994Y143938D01*
X432885Y143984D01*
X432769Y144011D01*
X432651Y144021D01*
X432532Y144012D01*
X432417Y143984D01*
X432308Y143937D01*
X431968Y143779D01*
X431612Y143658D01*
X431247Y143570D01*
X430875Y143518D01*
X430502Y143500D01*
Y151500D01*
X430875Y151482D01*
X431247Y151430D01*
X431612Y151342D01*
X431968Y151221D01*
X432310Y151067D01*
X432418Y151020D01*
X432533Y150993D01*
X432651Y150983D01*
X432768Y150993D01*
X432883Y151021D01*
X432992Y151066D01*
X433093Y151128D01*
X433182Y151205D01*
X433259Y151295D01*
X433320Y151395D01*
X433365Y151504D01*
X433393Y151619D01*
X433402Y151737D01*
X433392Y151855D01*
X433365Y151969D01*
X433319Y152078D01*
X433257Y152179D01*
X433181Y152269D01*
X433091Y152345D01*
X432989Y152405D01*
X432520Y152622D01*
X432031Y152789D01*
X431528Y152909D01*
X431016Y152982D01*
X430502Y153006D01*
Y160500D01*
G37*
G36*
X426007D02*X430502D01*
Y153006D01*
X430500Y153006D01*
X429984Y152982D01*
X429472Y152909D01*
X428969Y152789D01*
X428480Y152622D01*
X428008Y152410D01*
X427907Y152349D01*
X427816Y152272D01*
X427739Y152182D01*
X427677Y152080D01*
X427631Y151971D01*
X427603Y151855D01*
X427594Y151737D01*
X427603Y151619D01*
X427630Y151503D01*
X427676Y151393D01*
X427738Y151292D01*
X427814Y151202D01*
X427905Y151124D01*
X428006Y151062D01*
X428115Y151016D01*
X428231Y150989D01*
X428349Y150979D01*
X428468Y150988D01*
X428583Y151016D01*
X428692Y151063D01*
X429032Y151221D01*
X429388Y151342D01*
X429753Y151430D01*
X430125Y151482D01*
X430500Y151500D01*
X430502Y151500D01*
Y143500D01*
X430500Y143500D01*
X430125Y143518D01*
X429753Y143570D01*
X429388Y143658D01*
X429032Y143779D01*
X428690Y143933D01*
X428582Y143980D01*
X428467Y144007D01*
X428349Y144017D01*
X428232Y144007D01*
X428117Y143979D01*
X428008Y143934D01*
X427907Y143872D01*
X427818Y143795D01*
X427741Y143705D01*
X427680Y143605D01*
X427635Y143496D01*
X427607Y143381D01*
X427598Y143263D01*
X427608Y143145D01*
X427635Y143031D01*
X427681Y142922D01*
X427743Y142821D01*
X427819Y142731D01*
X427909Y142655D01*
X428011Y142595D01*
X428480Y142378D01*
X428969Y142211D01*
X429472Y142091D01*
X429984Y142018D01*
X430500Y141994D01*
X430502Y141994D01*
Y130500D01*
X426007D01*
Y144640D01*
X426029Y144631D01*
X426145Y144603D01*
X426263Y144594D01*
X426381Y144603D01*
X426497Y144630D01*
X426607Y144676D01*
X426708Y144738D01*
X426798Y144814D01*
X426876Y144905D01*
X426938Y145006D01*
X426984Y145115D01*
X427011Y145231D01*
X427021Y145349D01*
X427012Y145468D01*
X426984Y145583D01*
X426937Y145692D01*
X426779Y146032D01*
X426658Y146388D01*
X426570Y146753D01*
X426518Y147125D01*
X426500Y147500D01*
X426518Y147875D01*
X426570Y148247D01*
X426658Y148612D01*
X426779Y148968D01*
X426933Y149310D01*
X426980Y149418D01*
X427007Y149533D01*
X427017Y149651D01*
X427007Y149768D01*
X426979Y149883D01*
X426934Y149992D01*
X426872Y150093D01*
X426795Y150182D01*
X426705Y150259D01*
X426605Y150320D01*
X426496Y150365D01*
X426381Y150393D01*
X426263Y150402D01*
X426145Y150392D01*
X426031Y150365D01*
X426007Y150355D01*
Y160500D01*
G37*
G36*
X414993D02*X426007D01*
Y150355D01*
X425922Y150319D01*
X425821Y150257D01*
X425731Y150181D01*
X425655Y150091D01*
X425595Y149989D01*
X425378Y149520D01*
X425211Y149031D01*
X425091Y148528D01*
X425018Y148016D01*
X424994Y147500D01*
X425018Y146984D01*
X425091Y146472D01*
X425211Y145969D01*
X425378Y145480D01*
X425590Y145008D01*
X425651Y144907D01*
X425728Y144816D01*
X425818Y144739D01*
X425920Y144677D01*
X426007Y144640D01*
Y130500D01*
X414993D01*
Y144645D01*
X415078Y144681D01*
X415179Y144743D01*
X415269Y144819D01*
X415345Y144909D01*
X415405Y145011D01*
X415622Y145480D01*
X415789Y145969D01*
X415909Y146472D01*
X415982Y146984D01*
X416006Y147500D01*
X415982Y148016D01*
X415909Y148528D01*
X415789Y149031D01*
X415622Y149520D01*
X415410Y149992D01*
X415349Y150093D01*
X415272Y150184D01*
X415182Y150261D01*
X415080Y150323D01*
X414993Y150360D01*
Y160500D01*
G37*
G36*
X410502D02*X414993D01*
Y150360D01*
X414971Y150369D01*
X414855Y150397D01*
X414737Y150406D01*
X414619Y150397D01*
X414503Y150370D01*
X414393Y150324D01*
X414292Y150262D01*
X414202Y150186D01*
X414124Y150095D01*
X414062Y149994D01*
X414016Y149885D01*
X413989Y149769D01*
X413979Y149651D01*
X413988Y149532D01*
X414016Y149417D01*
X414063Y149308D01*
X414221Y148968D01*
X414342Y148612D01*
X414430Y148247D01*
X414482Y147875D01*
X414500Y147500D01*
X414482Y147125D01*
X414430Y146753D01*
X414342Y146388D01*
X414221Y146032D01*
X414067Y145690D01*
X414020Y145582D01*
X413993Y145467D01*
X413983Y145349D01*
X413993Y145232D01*
X414021Y145117D01*
X414066Y145008D01*
X414128Y144907D01*
X414205Y144818D01*
X414295Y144741D01*
X414395Y144680D01*
X414504Y144635D01*
X414619Y144607D01*
X414737Y144598D01*
X414855Y144608D01*
X414969Y144635D01*
X414993Y144645D01*
Y130500D01*
X410502D01*
Y141994D01*
X411016Y142018D01*
X411528Y142091D01*
X412031Y142211D01*
X412520Y142378D01*
X412992Y142590D01*
X413093Y142651D01*
X413184Y142728D01*
X413261Y142818D01*
X413323Y142920D01*
X413369Y143029D01*
X413397Y143145D01*
X413406Y143263D01*
X413397Y143381D01*
X413370Y143497D01*
X413324Y143607D01*
X413262Y143708D01*
X413186Y143798D01*
X413095Y143876D01*
X412994Y143938D01*
X412885Y143984D01*
X412769Y144011D01*
X412651Y144021D01*
X412532Y144012D01*
X412417Y143984D01*
X412308Y143937D01*
X411968Y143779D01*
X411612Y143658D01*
X411247Y143570D01*
X410875Y143518D01*
X410502Y143500D01*
Y151500D01*
X410875Y151482D01*
X411247Y151430D01*
X411612Y151342D01*
X411968Y151221D01*
X412310Y151067D01*
X412418Y151020D01*
X412533Y150993D01*
X412651Y150983D01*
X412768Y150993D01*
X412883Y151021D01*
X412992Y151066D01*
X413093Y151128D01*
X413182Y151205D01*
X413259Y151295D01*
X413320Y151395D01*
X413365Y151504D01*
X413393Y151619D01*
X413402Y151737D01*
X413392Y151855D01*
X413365Y151969D01*
X413319Y152078D01*
X413257Y152179D01*
X413181Y152269D01*
X413091Y152345D01*
X412989Y152405D01*
X412520Y152622D01*
X412031Y152789D01*
X411528Y152909D01*
X411016Y152982D01*
X410502Y153006D01*
Y160500D01*
G37*
G36*
X406007D02*X410502D01*
Y153006D01*
X410500Y153006D01*
X409984Y152982D01*
X409472Y152909D01*
X408969Y152789D01*
X408480Y152622D01*
X408008Y152410D01*
X407907Y152349D01*
X407816Y152272D01*
X407739Y152182D01*
X407677Y152080D01*
X407631Y151971D01*
X407603Y151855D01*
X407594Y151737D01*
X407603Y151619D01*
X407630Y151503D01*
X407676Y151393D01*
X407738Y151292D01*
X407814Y151202D01*
X407905Y151124D01*
X408006Y151062D01*
X408115Y151016D01*
X408231Y150989D01*
X408349Y150979D01*
X408468Y150988D01*
X408583Y151016D01*
X408692Y151063D01*
X409032Y151221D01*
X409388Y151342D01*
X409753Y151430D01*
X410125Y151482D01*
X410500Y151500D01*
X410502Y151500D01*
Y143500D01*
X410500Y143500D01*
X410125Y143518D01*
X409753Y143570D01*
X409388Y143658D01*
X409032Y143779D01*
X408690Y143933D01*
X408582Y143980D01*
X408467Y144007D01*
X408349Y144017D01*
X408232Y144007D01*
X408117Y143979D01*
X408008Y143934D01*
X407907Y143872D01*
X407818Y143795D01*
X407741Y143705D01*
X407680Y143605D01*
X407635Y143496D01*
X407607Y143381D01*
X407598Y143263D01*
X407608Y143145D01*
X407635Y143031D01*
X407681Y142922D01*
X407743Y142821D01*
X407819Y142731D01*
X407909Y142655D01*
X408011Y142595D01*
X408480Y142378D01*
X408969Y142211D01*
X409472Y142091D01*
X409984Y142018D01*
X410500Y141994D01*
X410502Y141994D01*
Y130500D01*
X406007D01*
Y144640D01*
X406029Y144631D01*
X406145Y144603D01*
X406263Y144594D01*
X406381Y144603D01*
X406497Y144630D01*
X406607Y144676D01*
X406708Y144738D01*
X406798Y144814D01*
X406876Y144905D01*
X406938Y145006D01*
X406984Y145115D01*
X407011Y145231D01*
X407021Y145349D01*
X407012Y145468D01*
X406984Y145583D01*
X406937Y145692D01*
X406779Y146032D01*
X406658Y146388D01*
X406570Y146753D01*
X406518Y147125D01*
X406500Y147500D01*
X406518Y147875D01*
X406570Y148247D01*
X406658Y148612D01*
X406779Y148968D01*
X406933Y149310D01*
X406980Y149418D01*
X407007Y149533D01*
X407017Y149651D01*
X407007Y149768D01*
X406979Y149883D01*
X406934Y149992D01*
X406872Y150093D01*
X406795Y150182D01*
X406705Y150259D01*
X406605Y150320D01*
X406496Y150365D01*
X406381Y150393D01*
X406263Y150402D01*
X406145Y150392D01*
X406031Y150365D01*
X406007Y150355D01*
Y160500D01*
G37*
G36*
X400500Y130500D02*Y160500D01*
X406007D01*
Y150355D01*
X405922Y150319D01*
X405821Y150257D01*
X405731Y150181D01*
X405655Y150091D01*
X405595Y149989D01*
X405378Y149520D01*
X405211Y149031D01*
X405091Y148528D01*
X405018Y148016D01*
X404994Y147500D01*
X405018Y146984D01*
X405091Y146472D01*
X405211Y145969D01*
X405378Y145480D01*
X405590Y145008D01*
X405651Y144907D01*
X405728Y144816D01*
X405818Y144739D01*
X405920Y144677D01*
X406007Y144640D01*
Y130500D01*
X400500D01*
G37*
G36*
X435500Y169000D02*X598500D01*
Y147500D01*
X572682D01*
X577541Y152359D01*
X577795Y152253D01*
X578637Y152051D01*
X579500Y151983D01*
X580363Y152051D01*
X581205Y152253D01*
X582005Y152584D01*
X582743Y153037D01*
X583401Y153599D01*
X583963Y154257D01*
X584416Y154995D01*
X584747Y155795D01*
X584949Y156637D01*
X585000Y157500D01*
X584949Y158363D01*
X584747Y159205D01*
X584416Y160005D01*
X583963Y160743D01*
X583401Y161401D01*
X582743Y161963D01*
X582005Y162416D01*
X581205Y162747D01*
X580363Y162949D01*
X579500Y163017D01*
X578637Y162949D01*
X577795Y162747D01*
X576995Y162416D01*
X576257Y161963D01*
X575599Y161401D01*
X575037Y160743D01*
X574584Y160005D01*
X574253Y159205D01*
X574051Y158363D01*
X573983Y157500D01*
X574051Y156637D01*
X574253Y155795D01*
X574359Y155541D01*
X566318Y147500D01*
X556000D01*
X555949Y148363D01*
X555747Y149205D01*
X555416Y150005D01*
X554963Y150743D01*
X554401Y151401D01*
X553743Y151963D01*
X553005Y152416D01*
X552205Y152747D01*
X551363Y152949D01*
X550500Y153017D01*
X549637Y152949D01*
X548795Y152747D01*
X547995Y152416D01*
X547257Y151963D01*
X546599Y151401D01*
X546037Y150743D01*
X545584Y150005D01*
X545253Y149205D01*
X545051Y148363D01*
X544983Y147500D01*
X536000D01*
X535949Y148363D01*
X535747Y149205D01*
X535416Y150005D01*
X534963Y150743D01*
X534401Y151401D01*
X533743Y151963D01*
X533005Y152416D01*
X532205Y152747D01*
X531363Y152949D01*
X530500Y153017D01*
X529637Y152949D01*
X528795Y152747D01*
X527995Y152416D01*
X527257Y151963D01*
X526599Y151401D01*
X526037Y150743D01*
X525584Y150005D01*
X525253Y149205D01*
X525051Y148363D01*
X524983Y147500D01*
X516000D01*
X515949Y148363D01*
X515747Y149205D01*
X515416Y150005D01*
X514963Y150743D01*
X514401Y151401D01*
X513743Y151963D01*
X513005Y152416D01*
X512205Y152747D01*
X511363Y152949D01*
X510500Y153017D01*
X509637Y152949D01*
X508795Y152747D01*
X507995Y152416D01*
X507257Y151963D01*
X506599Y151401D01*
X506037Y150743D01*
X505584Y150005D01*
X505253Y149205D01*
X505051Y148363D01*
X504983Y147500D01*
X496000D01*
X495949Y148363D01*
X495747Y149205D01*
X495416Y150005D01*
X494963Y150743D01*
X494401Y151401D01*
X493743Y151963D01*
X493005Y152416D01*
X492205Y152747D01*
X491363Y152949D01*
X490500Y153017D01*
X489637Y152949D01*
X488795Y152747D01*
X487995Y152416D01*
X487257Y151963D01*
X486599Y151401D01*
X486037Y150743D01*
X485584Y150005D01*
X485253Y149205D01*
X485051Y148363D01*
X484983Y147500D01*
X476000D01*
X475949Y148363D01*
X475747Y149205D01*
X475416Y150005D01*
X474963Y150743D01*
X474401Y151401D01*
X473743Y151963D01*
X473005Y152416D01*
X472205Y152747D01*
X471363Y152949D01*
X470500Y153017D01*
X469637Y152949D01*
X468795Y152747D01*
X467995Y152416D01*
X467257Y151963D01*
X466599Y151401D01*
X466037Y150743D01*
X465584Y150005D01*
X465253Y149205D01*
X465051Y148363D01*
X464983Y147500D01*
X456000D01*
X455949Y148363D01*
X455747Y149205D01*
X455416Y150005D01*
X454963Y150743D01*
X454401Y151401D01*
X453743Y151963D01*
X453005Y152416D01*
X452205Y152747D01*
X451363Y152949D01*
X450500Y153017D01*
X449637Y152949D01*
X448795Y152747D01*
X447995Y152416D01*
X447257Y151963D01*
X446599Y151401D01*
X446037Y150743D01*
X445584Y150005D01*
X445253Y149205D01*
X445051Y148363D01*
X444983Y147500D01*
X436006D01*
X435982Y148016D01*
X435909Y148528D01*
X435789Y149031D01*
X435622Y149520D01*
X435500Y149792D01*
Y169000D01*
G37*
G36*
X467500Y142000D02*X470284D01*
X470500Y141983D01*
X470716Y142000D01*
X490284D01*
X490500Y141983D01*
X490716Y142000D01*
X510284D01*
X510500Y141983D01*
X510716Y142000D01*
X530284D01*
X530500Y141983D01*
X530716Y142000D01*
X550284D01*
X550500Y141983D01*
X550716Y142000D01*
X554500D01*
Y133500D01*
X467500D01*
Y142000D01*
G37*
G36*
X574750Y102500D02*X576292D01*
X576285Y102482D01*
X576257Y102368D01*
X576248Y102250D01*
X576257Y102132D01*
X576285Y102018D01*
X576330Y101908D01*
X576391Y101808D01*
X576468Y101718D01*
X576500Y101691D01*
Y93309D01*
X576468Y93282D01*
X576391Y93192D01*
X576330Y93092D01*
X576285Y92982D01*
X576257Y92868D01*
X576248Y92750D01*
X576257Y92632D01*
X576285Y92518D01*
X576330Y92408D01*
X576391Y92308D01*
X576468Y92218D01*
X576500Y92191D01*
Y75000D01*
X574750D01*
Y94248D01*
X574868Y94257D01*
X574982Y94285D01*
X575092Y94330D01*
X575192Y94391D01*
X575282Y94468D01*
X575359Y94558D01*
X575420Y94658D01*
X575465Y94768D01*
X575493Y94882D01*
X575500Y95000D01*
Y100000D01*
X575493Y100118D01*
X575465Y100232D01*
X575420Y100342D01*
X575359Y100442D01*
X575282Y100532D01*
X575192Y100609D01*
X575092Y100670D01*
X574982Y100715D01*
X574868Y100743D01*
X574750Y100752D01*
Y102500D01*
G37*
G36*
X563500D02*X574750D01*
Y100752D01*
X574632Y100743D01*
X574518Y100715D01*
X574408Y100670D01*
X574308Y100609D01*
X574218Y100532D01*
X574141Y100442D01*
X574080Y100342D01*
X574035Y100232D01*
X574007Y100118D01*
X574000Y100000D01*
Y95000D01*
X574007Y94882D01*
X574035Y94768D01*
X574080Y94658D01*
X574141Y94558D01*
X574218Y94468D01*
X574308Y94391D01*
X574408Y94330D01*
X574518Y94285D01*
X574632Y94257D01*
X574750Y94248D01*
Y75000D01*
X563500D01*
Y102500D01*
G37*
G36*
X587000Y90000D02*X584250D01*
Y94248D01*
X584368Y94257D01*
X584482Y94285D01*
X584592Y94330D01*
X584692Y94391D01*
X584782Y94468D01*
X584859Y94558D01*
X584920Y94658D01*
X584965Y94768D01*
X584993Y94882D01*
X585000Y95000D01*
Y100000D01*
X584993Y100118D01*
X584965Y100232D01*
X584920Y100342D01*
X584859Y100442D01*
X584782Y100532D01*
X584692Y100609D01*
X584592Y100670D01*
X584482Y100715D01*
X584368Y100743D01*
X584250Y100752D01*
Y105500D01*
X587000D01*
Y90000D01*
G37*
G36*
X584250D02*X579500D01*
Y92000D01*
X582000D01*
X582118Y92007D01*
X582232Y92035D01*
X582342Y92080D01*
X582442Y92141D01*
X582532Y92218D01*
X582609Y92308D01*
X582670Y92408D01*
X582715Y92518D01*
X582743Y92632D01*
X582752Y92750D01*
X582743Y92868D01*
X582715Y92982D01*
X582670Y93092D01*
X582609Y93192D01*
X582532Y93282D01*
X582442Y93359D01*
X582342Y93420D01*
X582232Y93465D01*
X582118Y93493D01*
X582000Y93500D01*
X579500D01*
Y101500D01*
X582000D01*
X582118Y101507D01*
X582232Y101535D01*
X582342Y101580D01*
X582442Y101641D01*
X582532Y101718D01*
X582609Y101808D01*
X582670Y101908D01*
X582715Y102018D01*
X582743Y102132D01*
X582752Y102250D01*
X582743Y102368D01*
X582715Y102482D01*
X582670Y102592D01*
X582609Y102692D01*
X582532Y102782D01*
X582442Y102859D01*
X582342Y102920D01*
X582232Y102965D01*
X582118Y102993D01*
X582000Y103000D01*
X579500D01*
Y105500D01*
X584250D01*
Y100752D01*
X584132Y100743D01*
X584018Y100715D01*
X583908Y100670D01*
X583808Y100609D01*
X583718Y100532D01*
X583641Y100442D01*
X583580Y100342D01*
X583535Y100232D01*
X583507Y100118D01*
X583500Y100000D01*
Y95000D01*
X583507Y94882D01*
X583535Y94768D01*
X583580Y94658D01*
X583641Y94558D01*
X583718Y94468D01*
X583808Y94391D01*
X583908Y94330D01*
X584018Y94285D01*
X584132Y94257D01*
X584250Y94248D01*
Y90000D01*
G37*
G36*
X579500D02*X574750D01*
Y94248D01*
X574868Y94257D01*
X574982Y94285D01*
X575092Y94330D01*
X575192Y94391D01*
X575282Y94468D01*
X575359Y94558D01*
X575420Y94658D01*
X575465Y94768D01*
X575493Y94882D01*
X575500Y95000D01*
Y100000D01*
X575493Y100118D01*
X575465Y100232D01*
X575420Y100342D01*
X575359Y100442D01*
X575282Y100532D01*
X575192Y100609D01*
X575092Y100670D01*
X574982Y100715D01*
X574868Y100743D01*
X574750Y100752D01*
Y105500D01*
X579500D01*
Y103000D01*
X577000D01*
X576882Y102993D01*
X576768Y102965D01*
X576658Y102920D01*
X576558Y102859D01*
X576468Y102782D01*
X576391Y102692D01*
X576330Y102592D01*
X576285Y102482D01*
X576257Y102368D01*
X576248Y102250D01*
X576257Y102132D01*
X576285Y102018D01*
X576330Y101908D01*
X576391Y101808D01*
X576468Y101718D01*
X576558Y101641D01*
X576658Y101580D01*
X576768Y101535D01*
X576882Y101507D01*
X577000Y101500D01*
X579500D01*
Y93500D01*
X577000D01*
X576882Y93493D01*
X576768Y93465D01*
X576658Y93420D01*
X576558Y93359D01*
X576468Y93282D01*
X576391Y93192D01*
X576330Y93092D01*
X576285Y92982D01*
X576257Y92868D01*
X576248Y92750D01*
X576257Y92632D01*
X576285Y92518D01*
X576330Y92408D01*
X576391Y92308D01*
X576468Y92218D01*
X576558Y92141D01*
X576658Y92080D01*
X576768Y92035D01*
X576882Y92007D01*
X577000Y92000D01*
X579500D01*
Y90000D01*
G37*
G36*
X574750D02*X563500D01*
Y105500D01*
X574750D01*
Y100752D01*
X574632Y100743D01*
X574518Y100715D01*
X574408Y100670D01*
X574308Y100609D01*
X574218Y100532D01*
X574141Y100442D01*
X574080Y100342D01*
X574035Y100232D01*
X574007Y100118D01*
X574000Y100000D01*
Y95000D01*
X574007Y94882D01*
X574035Y94768D01*
X574080Y94658D01*
X574141Y94558D01*
X574218Y94468D01*
X574308Y94391D01*
X574408Y94330D01*
X574518Y94285D01*
X574632Y94257D01*
X574750Y94248D01*
Y90000D01*
G37*
G36*
X583993Y169000D02*X598500D01*
Y108000D01*
X583993D01*
Y114645D01*
X584078Y114681D01*
X584179Y114743D01*
X584269Y114819D01*
X584345Y114909D01*
X584405Y115011D01*
X584622Y115480D01*
X584789Y115969D01*
X584909Y116472D01*
X584982Y116984D01*
X585006Y117500D01*
X584982Y118016D01*
X584909Y118528D01*
X584789Y119031D01*
X584622Y119520D01*
X584410Y119992D01*
X584349Y120093D01*
X584272Y120184D01*
X584182Y120261D01*
X584080Y120323D01*
X583993Y120360D01*
Y132080D01*
X584183Y132159D01*
X584384Y132283D01*
X584564Y132436D01*
X584717Y132616D01*
X584841Y132817D01*
X584931Y133035D01*
X584986Y133265D01*
X585000Y133500D01*
X584986Y141735D01*
X584931Y141965D01*
X584841Y142183D01*
X584717Y142384D01*
X584564Y142564D01*
X584384Y142717D01*
X584183Y142841D01*
X583993Y142920D01*
Y154305D01*
X584416Y154995D01*
X584747Y155795D01*
X584949Y156637D01*
X585000Y157500D01*
X584949Y158363D01*
X584747Y159205D01*
X584416Y160005D01*
X583993Y160695D01*
Y169000D01*
G37*
G36*
Y142920D02*X583965Y142931D01*
X583735Y142986D01*
X583500Y143000D01*
X579502Y142993D01*
Y151983D01*
X580363Y152051D01*
X581205Y152253D01*
X582005Y152584D01*
X582743Y153037D01*
X583401Y153599D01*
X583963Y154257D01*
X583993Y154305D01*
Y142920D01*
G37*
G36*
Y108000D02*X579502D01*
Y111994D01*
X580016Y112018D01*
X580528Y112091D01*
X581031Y112211D01*
X581520Y112378D01*
X581992Y112590D01*
X582093Y112651D01*
X582184Y112728D01*
X582261Y112818D01*
X582323Y112920D01*
X582369Y113029D01*
X582397Y113145D01*
X582406Y113263D01*
X582397Y113381D01*
X582370Y113497D01*
X582324Y113607D01*
X582262Y113708D01*
X582186Y113798D01*
X582095Y113876D01*
X581994Y113938D01*
X581885Y113984D01*
X581769Y114011D01*
X581651Y114021D01*
X581532Y114012D01*
X581417Y113984D01*
X581308Y113937D01*
X580968Y113779D01*
X580612Y113658D01*
X580247Y113570D01*
X579875Y113518D01*
X579502Y113500D01*
Y121500D01*
X579875Y121482D01*
X580247Y121430D01*
X580612Y121342D01*
X580968Y121221D01*
X581310Y121067D01*
X581418Y121020D01*
X581533Y120993D01*
X581651Y120983D01*
X581768Y120993D01*
X581883Y121021D01*
X581992Y121066D01*
X582093Y121128D01*
X582182Y121205D01*
X582259Y121295D01*
X582320Y121395D01*
X582365Y121504D01*
X582393Y121619D01*
X582402Y121737D01*
X582392Y121855D01*
X582365Y121969D01*
X582319Y122078D01*
X582257Y122179D01*
X582181Y122269D01*
X582091Y122345D01*
X581989Y122405D01*
X581520Y122622D01*
X581031Y122789D01*
X580528Y122909D01*
X580016Y122982D01*
X579502Y123006D01*
Y132007D01*
X583735Y132014D01*
X583965Y132069D01*
X583993Y132080D01*
Y120360D01*
X583971Y120369D01*
X583855Y120397D01*
X583737Y120406D01*
X583619Y120397D01*
X583503Y120370D01*
X583393Y120324D01*
X583292Y120262D01*
X583202Y120186D01*
X583124Y120095D01*
X583062Y119994D01*
X583016Y119885D01*
X582989Y119769D01*
X582979Y119651D01*
X582988Y119532D01*
X583016Y119417D01*
X583063Y119308D01*
X583221Y118968D01*
X583342Y118612D01*
X583430Y118247D01*
X583482Y117875D01*
X583500Y117500D01*
X583482Y117125D01*
X583430Y116753D01*
X583342Y116388D01*
X583221Y116032D01*
X583067Y115690D01*
X583020Y115582D01*
X582993Y115467D01*
X582983Y115349D01*
X582993Y115232D01*
X583021Y115117D01*
X583066Y115008D01*
X583128Y114907D01*
X583205Y114818D01*
X583295Y114741D01*
X583395Y114680D01*
X583504Y114635D01*
X583619Y114607D01*
X583737Y114598D01*
X583855Y114608D01*
X583969Y114635D01*
X583993Y114645D01*
Y108000D01*
G37*
G36*
X579502Y169000D02*X583993D01*
Y160695D01*
X583963Y160743D01*
X583401Y161401D01*
X582743Y161963D01*
X582005Y162416D01*
X581205Y162747D01*
X580363Y162949D01*
X579502Y163017D01*
Y169000D01*
G37*
G36*
Y142993D02*X575265Y142986D01*
X575035Y142931D01*
X574817Y142841D01*
X574616Y142717D01*
X574436Y142564D01*
X574283Y142384D01*
X574159Y142183D01*
X574069Y141965D01*
X574014Y141735D01*
X574000Y141500D01*
X574003Y139750D01*
X573088D01*
X573000Y139757D01*
X572647Y139729D01*
X572303Y139646D01*
X571975Y139511D01*
X571673Y139326D01*
X571673Y139326D01*
X571404Y139096D01*
X571347Y139029D01*
X562000Y129682D01*
Y136818D01*
X577541Y152359D01*
X577795Y152253D01*
X578637Y152051D01*
X579500Y151983D01*
X579502Y151983D01*
Y142993D01*
G37*
G36*
Y108000D02*X575007D01*
Y114640D01*
X575029Y114631D01*
X575145Y114603D01*
X575263Y114594D01*
X575381Y114603D01*
X575497Y114630D01*
X575607Y114676D01*
X575708Y114738D01*
X575798Y114814D01*
X575876Y114905D01*
X575938Y115006D01*
X575984Y115115D01*
X576011Y115231D01*
X576021Y115349D01*
X576012Y115468D01*
X575984Y115583D01*
X575937Y115692D01*
X575779Y116032D01*
X575658Y116388D01*
X575570Y116753D01*
X575518Y117125D01*
X575500Y117500D01*
X575518Y117875D01*
X575570Y118247D01*
X575658Y118612D01*
X575779Y118968D01*
X575933Y119310D01*
X575980Y119418D01*
X576007Y119533D01*
X576017Y119651D01*
X576007Y119768D01*
X575979Y119883D01*
X575934Y119992D01*
X575872Y120093D01*
X575795Y120182D01*
X575705Y120259D01*
X575605Y120320D01*
X575496Y120365D01*
X575381Y120393D01*
X575263Y120402D01*
X575145Y120392D01*
X575031Y120365D01*
X575007Y120355D01*
Y132080D01*
X575035Y132069D01*
X575265Y132014D01*
X575500Y132000D01*
X579502Y132007D01*
Y123006D01*
X579500Y123006D01*
X578984Y122982D01*
X578472Y122909D01*
X577969Y122789D01*
X577480Y122622D01*
X577008Y122410D01*
X576907Y122349D01*
X576816Y122272D01*
X576739Y122182D01*
X576677Y122080D01*
X576631Y121971D01*
X576603Y121855D01*
X576594Y121737D01*
X576603Y121619D01*
X576630Y121503D01*
X576676Y121393D01*
X576738Y121292D01*
X576814Y121202D01*
X576905Y121124D01*
X577006Y121062D01*
X577115Y121016D01*
X577231Y120989D01*
X577349Y120979D01*
X577468Y120988D01*
X577583Y121016D01*
X577692Y121063D01*
X578032Y121221D01*
X578388Y121342D01*
X578753Y121430D01*
X579125Y121482D01*
X579500Y121500D01*
X579502Y121500D01*
Y113500D01*
X579500Y113500D01*
X579125Y113518D01*
X578753Y113570D01*
X578388Y113658D01*
X578032Y113779D01*
X577690Y113933D01*
X577582Y113980D01*
X577467Y114007D01*
X577349Y114017D01*
X577232Y114007D01*
X577117Y113979D01*
X577008Y113934D01*
X576907Y113872D01*
X576818Y113795D01*
X576741Y113705D01*
X576680Y113605D01*
X576635Y113496D01*
X576607Y113381D01*
X576598Y113263D01*
X576608Y113145D01*
X576635Y113031D01*
X576681Y112922D01*
X576743Y112821D01*
X576819Y112731D01*
X576909Y112655D01*
X577011Y112595D01*
X577480Y112378D01*
X577969Y112211D01*
X578472Y112091D01*
X578984Y112018D01*
X579500Y111994D01*
X579502Y111994D01*
Y108000D01*
G37*
G36*
X575007D02*X562000D01*
Y108318D01*
X563529Y109847D01*
X563596Y109904D01*
X563826Y110173D01*
X563826Y110173D01*
X564011Y110475D01*
X564146Y110803D01*
X564229Y111147D01*
X564257Y111500D01*
X564250Y111588D01*
Y125568D01*
X573932Y135250D01*
X574011D01*
X574014Y133265D01*
X574069Y133035D01*
X574159Y132817D01*
X574283Y132616D01*
X574436Y132436D01*
X574616Y132283D01*
X574817Y132159D01*
X575007Y132080D01*
Y120355D01*
X574922Y120319D01*
X574821Y120257D01*
X574731Y120181D01*
X574655Y120091D01*
X574595Y119989D01*
X574378Y119520D01*
X574211Y119031D01*
X574091Y118528D01*
X574018Y118016D01*
X573994Y117500D01*
X574018Y116984D01*
X574091Y116472D01*
X574211Y115969D01*
X574378Y115480D01*
X574590Y115008D01*
X574651Y114907D01*
X574728Y114816D01*
X574818Y114739D01*
X574920Y114677D01*
X575007Y114640D01*
Y108000D01*
G37*
G36*
X562000Y169000D02*X579502D01*
Y163017D01*
X579500Y163017D01*
X578637Y162949D01*
X577795Y162747D01*
X576995Y162416D01*
X576257Y161963D01*
X575599Y161401D01*
X575037Y160743D01*
X574584Y160005D01*
X574253Y159205D01*
X574051Y158363D01*
X573983Y157500D01*
X574051Y156637D01*
X574253Y155795D01*
X574359Y155541D01*
X562000Y143182D01*
Y169000D01*
G37*
G36*
X414473Y106452D02*X411126Y106446D01*
Y110000D01*
X429500D01*
Y97470D01*
X429456Y97542D01*
X429354Y97661D01*
X429235Y97764D01*
X429100Y97846D01*
X428955Y97906D01*
X428802Y97943D01*
X428645Y97952D01*
X423370Y97943D01*
X423217Y97906D01*
X423072Y97846D01*
X422937Y97764D01*
X422818Y97661D01*
X422715Y97542D01*
X422633Y97407D01*
X422573Y97262D01*
X422536Y97109D01*
X422527Y96952D01*
X422529Y95500D01*
X411126D01*
Y98551D01*
X414630Y98557D01*
X414783Y98594D01*
X414928Y98654D01*
X415063Y98736D01*
X415182Y98839D01*
X415285Y98958D01*
X415367Y99093D01*
X415427Y99238D01*
X415464Y99391D01*
X415473Y99548D01*
X415464Y105609D01*
X415427Y105762D01*
X415367Y105907D01*
X415285Y106042D01*
X415182Y106161D01*
X415063Y106264D01*
X414928Y106346D01*
X414783Y106406D01*
X414630Y106443D01*
X414473Y106452D01*
G37*
G36*
X404976Y106449D02*X401370Y106443D01*
X401217Y106406D01*
X401072Y106346D01*
X400937Y106264D01*
X400818Y106161D01*
X400715Y106042D01*
X400633Y105907D01*
X400573Y105762D01*
X400536Y105609D01*
X400527Y105452D01*
X400536Y99391D01*
X400573Y99238D01*
X400633Y99093D01*
X400715Y98958D01*
X400818Y98839D01*
X400937Y98736D01*
X401072Y98654D01*
X401217Y98594D01*
X401370Y98557D01*
X401527Y98548D01*
X404976Y98554D01*
Y95500D01*
X388000D01*
Y107500D01*
X404976D01*
Y106449D01*
G37*
G36*
X411126Y98500D02*X416000D01*
Y89000D01*
X411126D01*
Y90279D01*
X411126Y90279D01*
Y98500D01*
G37*
G36*
X388000Y99500D02*X400536D01*
X400536Y99391D01*
X400573Y99238D01*
X400633Y99093D01*
X400715Y98958D01*
X400818Y98839D01*
X400937Y98736D01*
X401072Y98654D01*
X401217Y98594D01*
X401370Y98557D01*
X401527Y98548D01*
X404976Y98554D01*
Y92024D01*
X404976Y92024D01*
Y89000D01*
X388000D01*
Y99500D01*
G37*
G36*
X412000Y107000D02*X442500D01*
Y91000D01*
X429642D01*
X429645Y91048D01*
X429636Y97109D01*
X429599Y97262D01*
X429539Y97407D01*
X429456Y97542D01*
X429354Y97661D01*
X429235Y97764D01*
X429100Y97846D01*
X428955Y97906D01*
X428802Y97943D01*
X428645Y97952D01*
X423370Y97943D01*
X423217Y97906D01*
X423072Y97846D01*
X422937Y97764D01*
X422818Y97661D01*
X422715Y97542D01*
X422633Y97407D01*
X422573Y97262D01*
X422536Y97109D01*
X422527Y96952D01*
X422536Y91000D01*
X412000D01*
Y98553D01*
X414630Y98557D01*
X414783Y98594D01*
X414928Y98654D01*
X415063Y98736D01*
X415182Y98839D01*
X415285Y98958D01*
X415367Y99093D01*
X415427Y99238D01*
X415464Y99391D01*
X415473Y99548D01*
X415464Y105609D01*
X415427Y105762D01*
X415367Y105907D01*
X415285Y106042D01*
X415182Y106161D01*
X415063Y106264D01*
X414928Y106346D01*
X414783Y106406D01*
X414630Y106443D01*
X414473Y106452D01*
X412000Y106448D01*
Y107000D01*
G37*
G36*
X400500Y136500D02*X440500D01*
Y110000D01*
X411126D01*
Y114505D01*
X413121Y116500D01*
X418116D01*
X418120Y114265D01*
X418175Y114035D01*
X418265Y113817D01*
X418389Y113616D01*
X418542Y113436D01*
X418722Y113283D01*
X418923Y113159D01*
X419141Y113069D01*
X419371Y113014D01*
X419606Y113000D01*
X426841Y113014D01*
X427071Y113069D01*
X427289Y113159D01*
X427490Y113283D01*
X427670Y113436D01*
X427823Y113616D01*
X427947Y113817D01*
X428037Y114035D01*
X428092Y114265D01*
X428106Y114500D01*
X428092Y121735D01*
X428037Y121965D01*
X427947Y122183D01*
X427823Y122384D01*
X427670Y122564D01*
X427490Y122717D01*
X427289Y122841D01*
X427071Y122931D01*
X426841Y122986D01*
X426606Y123000D01*
X419371Y122986D01*
X419141Y122931D01*
X418923Y122841D01*
X418722Y122717D01*
X418542Y122564D01*
X418389Y122384D01*
X418265Y122183D01*
X418175Y121965D01*
X418120Y121735D01*
X418106Y121500D01*
X418110Y119500D01*
X412559D01*
X412500Y119505D01*
X412265Y119486D01*
X412035Y119431D01*
X411817Y119341D01*
X411616Y119217D01*
X411615Y119217D01*
X411436Y119064D01*
X411398Y119019D01*
X408607Y116228D01*
X408562Y116190D01*
X408551Y116177D01*
X408664Y116450D01*
X408848Y117215D01*
X408894Y118000D01*
X408848Y118785D01*
X408664Y119550D01*
X408363Y120277D01*
X407952Y120948D01*
X407440Y121546D01*
X406842Y122058D01*
X406171Y122469D01*
X405444Y122770D01*
X404679Y122954D01*
X403894Y123015D01*
X403109Y122954D01*
X402344Y122770D01*
X401617Y122469D01*
X400946Y122058D01*
X400500Y121677D01*
Y136500D01*
G37*
G36*
X442500Y105000D02*X415465D01*
X415464Y105609D01*
X415427Y105762D01*
X415367Y105907D01*
X415285Y106042D01*
X415182Y106161D01*
X415063Y106264D01*
X414928Y106346D01*
X414783Y106406D01*
X414630Y106443D01*
X414473Y106452D01*
X411126Y106446D01*
Y114505D01*
X413121Y116500D01*
X418116D01*
X418120Y114265D01*
X418175Y114035D01*
X418265Y113817D01*
X418389Y113616D01*
X418542Y113436D01*
X418722Y113283D01*
X418923Y113159D01*
X419141Y113069D01*
X419371Y113014D01*
X419606Y113000D01*
X426841Y113014D01*
X427071Y113069D01*
X427289Y113159D01*
X427490Y113283D01*
X427670Y113436D01*
X427823Y113616D01*
X427947Y113817D01*
X428037Y114035D01*
X428092Y114265D01*
X428106Y114500D01*
X428092Y121735D01*
X428037Y121965D01*
X427947Y122183D01*
X427823Y122384D01*
X427670Y122564D01*
X427490Y122717D01*
X427289Y122841D01*
X427071Y122931D01*
X426841Y122986D01*
X426606Y123000D01*
X419371Y122986D01*
X419141Y122931D01*
X418923Y122841D01*
X418722Y122717D01*
X418542Y122564D01*
X418389Y122384D01*
X418265Y122183D01*
X418175Y121965D01*
X418120Y121735D01*
X418106Y121500D01*
X418110Y119500D01*
X412559D01*
X412500Y119505D01*
X412265Y119486D01*
X412035Y119431D01*
X411817Y119341D01*
X411616Y119217D01*
X411615Y119217D01*
X411436Y119064D01*
X411398Y119019D01*
X408607Y116228D01*
X408562Y116190D01*
X408551Y116177D01*
X408664Y116450D01*
X408848Y117215D01*
X408894Y118000D01*
X408848Y118785D01*
X408664Y119550D01*
X408363Y120277D01*
X407952Y120948D01*
X407440Y121546D01*
X406842Y122058D01*
X406171Y122469D01*
X405444Y122770D01*
X404679Y122954D01*
X403894Y123015D01*
X403109Y122954D01*
X402344Y122770D01*
X401617Y122469D01*
X400946Y122058D01*
X400348Y121546D01*
X399836Y120948D01*
X399425Y120277D01*
X399124Y119550D01*
X398940Y118785D01*
X398879Y118000D01*
X398940Y117215D01*
X399124Y116450D01*
X399425Y115723D01*
X399836Y115052D01*
X400348Y114454D01*
X400946Y113942D01*
X401617Y113531D01*
X402344Y113230D01*
X403109Y113046D01*
X403894Y112985D01*
X404679Y113046D01*
X404976Y113118D01*
Y106449D01*
X401370Y106443D01*
X401217Y106406D01*
X401072Y106346D01*
X400937Y106264D01*
X400818Y106161D01*
X400715Y106042D01*
X400633Y105907D01*
X400573Y105762D01*
X400536Y105609D01*
X400527Y105452D01*
X400528Y105000D01*
X388000D01*
Y119879D01*
X388389Y120267D01*
X388561Y120226D01*
X389000Y120191D01*
X389439Y120226D01*
X389868Y120329D01*
X390275Y120497D01*
X390651Y120728D01*
X390986Y121014D01*
X391272Y121349D01*
X391503Y121725D01*
X391671Y122132D01*
X391774Y122561D01*
X391800Y123000D01*
X391774Y123439D01*
X391671Y123868D01*
X391503Y124275D01*
X391272Y124651D01*
X390986Y124986D01*
X390651Y125272D01*
X390275Y125503D01*
X389868Y125671D01*
X389439Y125774D01*
X389000Y125809D01*
X388561Y125774D01*
X388132Y125671D01*
X388000Y125616D01*
Y130000D01*
X442500D01*
Y105000D01*
G37*
G36*
X450492Y163000D02*X465000D01*
Y147716D01*
X464983Y147500D01*
X465000Y147284D01*
Y108000D01*
X450492D01*
Y141984D01*
X450500Y141983D01*
X451363Y142051D01*
X452205Y142253D01*
X453005Y142584D01*
X453743Y143037D01*
X454401Y143599D01*
X454963Y144257D01*
X455416Y144995D01*
X455747Y145795D01*
X455949Y146637D01*
X456000Y147500D01*
X455949Y148363D01*
X455747Y149205D01*
X455416Y150005D01*
X454963Y150743D01*
X454401Y151401D01*
X453743Y151963D01*
X453005Y152416D01*
X452205Y152747D01*
X451363Y152949D01*
X450500Y153017D01*
X450492Y153016D01*
Y163000D01*
G37*
G36*
X435500Y108000D02*Y145217D01*
X435622Y145480D01*
X435789Y145969D01*
X435909Y146472D01*
X435982Y146984D01*
X436006Y147500D01*
X435982Y148016D01*
X435909Y148528D01*
X435789Y149031D01*
X435622Y149520D01*
X435500Y149792D01*
Y163000D01*
X450492D01*
Y153016D01*
X449637Y152949D01*
X448795Y152747D01*
X447995Y152416D01*
X447257Y151963D01*
X446599Y151401D01*
X446037Y150743D01*
X445584Y150005D01*
X445253Y149205D01*
X445051Y148363D01*
X444983Y147500D01*
X445051Y146637D01*
X445253Y145795D01*
X445584Y144995D01*
X446037Y144257D01*
X446599Y143599D01*
X447257Y143037D01*
X447995Y142584D01*
X448795Y142253D01*
X449637Y142051D01*
X450492Y141984D01*
Y108000D01*
X435500D01*
G37*
G36*
X467500Y142000D02*X470284D01*
X470500Y141983D01*
X470716Y142000D01*
X481000D01*
Y108000D01*
X467500D01*
Y142000D01*
G37*
G54D12*X193500Y112500D02*X150000D01*
X168000Y118500D02*X190500D01*
X192500Y114500D02*X155500D01*
X158000Y118000D02*X159500Y116500D01*
X191500D01*
X195500Y108500D02*X146000D01*
X194500Y110500D02*X147000D01*
X176500Y133500D02*X190500Y147500D01*
Y130500D01*
X193500Y127500D01*
X158000Y140000D02*Y118000D01*
X196500Y106500D02*X143000D01*
X99500Y22500D02*X110500D01*
X144500Y36500D02*X130500Y22500D01*
G54D13*X93000Y36500D02*X97500Y41000D01*
G54D12*X153000Y36500D02*X144500D01*
X158000Y46500D02*Y30000D01*
X168000Y46500D02*Y34000D01*
X150000Y112500D02*X141000Y121500D01*
X155500Y114500D02*X153000Y117000D01*
X146000Y108500D02*X141000Y113500D01*
X143000Y106500D02*X140000Y109500D01*
X137500Y113500D02*X141000D01*
X147000Y110500D02*X140000Y117500D01*
X141000Y121500D02*X137500D01*
X130500Y147500D02*X141500D01*
X168000Y133500D02*X176500D01*
X163000Y140000D02*Y123500D01*
Y140000D02*X170500Y147500D01*
X158000Y140000D02*X150500Y147500D01*
X163000Y123500D02*X168000Y118500D01*
X153000Y136000D02*Y117000D01*
Y136000D02*X141500Y147500D01*
X73000Y36500D02*X64500D01*
X50500Y22500D01*
X78000Y46500D02*Y30000D01*
X70500Y22500D01*
X83000Y36500D02*Y30000D01*
X90500Y22500D01*
X88000Y46500D02*Y34000D01*
X99500Y22500D01*
G54D13*X97500Y41000D02*Y54500D01*
G54D14*X68000Y133500D02*X32500D01*
G54D12*X88000D02*X96500D01*
X110500Y147500D01*
X83000Y140000D02*Y123500D01*
Y140000D02*X90500Y147500D01*
X78000Y140000D02*Y133500D01*
Y140000D02*X70500Y147500D01*
X73000Y136000D02*Y123500D01*
Y136000D02*X61500Y147500D01*
X50500D02*X61500D01*
G54D15*X186500Y66043D02*X186000Y65543D01*
G54D16*X208500Y80595D02*X223405D01*
G54D12*X228426Y70040D02*Y76426D01*
X230394Y73894D02*X233000Y76500D01*
X230394Y70040D02*Y73894D01*
X236300Y70040D02*Y53300D01*
X234331Y70040D02*Y54331D01*
X232363Y70040D02*Y55363D01*
G54D16*X201500Y91000D02*Y107500D01*
X203500Y109500D01*
X208457D01*
X208500Y109543D01*
Y102457D02*Y92405D01*
G54D12*X228426Y76426D02*X228500Y76500D01*
X228426Y99960D02*X228500Y99886D01*
Y93500D01*
X230394Y99960D02*Y96106D01*
X233000Y93500D01*
X203500Y113500D02*X196500Y106500D01*
X202500Y115500D02*X195500Y108500D01*
X201500Y117500D02*X194500Y110500D01*
X200500Y119500D02*X193500Y112500D01*
X232363Y99960D02*Y109637D01*
X228500Y113500D01*
X234331Y110669D02*X229500Y115500D01*
X236300Y111700D02*X230500Y117500D01*
X240237Y110763D02*X231500Y119500D01*
X234331Y99960D02*Y110669D01*
X236300Y99960D02*Y111700D01*
X242205Y111795D02*X232500Y121500D01*
X244174Y112826D02*X233500Y123500D01*
X246142Y113858D02*X234500Y125500D01*
X250079Y112921D02*X235500Y127500D01*
X249000Y120000D02*Y126500D01*
X244000Y122000D02*Y126500D01*
X191500Y116500D02*X198500Y123500D01*
X190500Y118500D02*X197500Y125500D01*
X233500Y123500D02*X198500D01*
X234500Y125500D02*X197500D01*
X235500Y127500D02*X193500D01*
X228500Y113500D02*X203500D01*
X229500Y115500D02*X202500D01*
X230500Y117500D02*X201500D01*
X231500Y119500D02*X200500D01*
X232500Y121500D02*X199500D01*
X192500Y114500D01*
X158000Y30000D02*X150500Y22500D01*
X163000Y36500D02*Y30000D01*
X170500Y22500D01*
G54D13*X173000Y36500D02*X177500Y41000D01*
Y59000D01*
G54D12*X168000Y34000D02*X179500Y22500D01*
X190500D01*
X187500Y33000D02*X186000Y34500D01*
X189000Y35000D02*X186000Y38000D01*
Y34500D02*X182500D01*
X196500Y28500D02*X190500Y22500D01*
X186500Y46000D02*X183000D01*
X192500Y37000D02*X188000Y41500D01*
X183000D01*
X193500Y39000D02*X186500Y46000D01*
X226500Y28500D02*X196500D01*
X226000Y31000D02*X179000D01*
X225000Y33000D02*X187500D01*
X222500Y42500D02*X195000D01*
X224000Y35000D02*X189000D01*
X223000Y37000D02*X192500D01*
X222000Y39000D02*X193500D01*
X223000Y46000D02*X191500D01*
X226500Y28500D02*X250079Y52079D01*
X226000Y31000D02*X246142Y51142D01*
X225000Y33000D02*X244174Y52174D01*
X223000Y37000D02*X240237Y54237D01*
X224000Y35000D02*X242205Y53205D01*
X234331Y54331D02*X222500Y42500D01*
X232363Y55363D02*X223000Y46000D01*
X236300Y53300D02*X222000Y39000D01*
X250500Y30500D02*Y22500D01*
X244000Y43000D02*Y39500D01*
X248500Y44500D02*Y39500D01*
X244000Y40500D02*Y36000D01*
X245500Y34500D01*
G54D14*X586342Y58000D02*X589000D01*
X595500Y51500D02*Y25500D01*
X592500Y22500D01*
X585469D01*
X595500Y50500D02*Y66500D01*
G54D13*X572000Y24500D02*X561000D01*
X550500Y35000D01*
G54D12*X581500Y73000D02*X563000D01*
X561000Y75000D01*
G54D13*X520500Y19000D02*Y48500D01*
X530500D02*Y22500D01*
X550500Y35000D02*Y48500D01*
X549500Y59000D02*X512000D01*
G54D17*X509500Y79500D02*Y73000D01*
G54D12*X515500Y82500D02*Y76500D01*
X518000Y74000D01*
G54D17*X509500Y73000D02*X512500Y70000D01*
X530500D01*
G54D12*X518000Y74000D02*X525000D01*
X527500Y76500D01*
G54D13*X550500Y47500D02*Y62957D01*
G54D14*X540500Y59500D02*Y71000D01*
X530000Y62957D02*Y59457D01*
X540500Y71000D02*X534000Y77500D01*
Y87500D01*
G54D12*X527500Y76500D02*Y80000D01*
X529500Y82000D01*
G54D14*X557000Y60000D02*Y78810D01*
X556310Y79500D01*
G54D17*X550500Y70043D02*X547957D01*
X545000Y73000D01*
Y79000D01*
X544500Y79500D01*
G54D14*X543500Y87000D02*X547500D01*
X550500Y84000D01*
Y80500D01*
X551500Y79500D01*
X556310D01*
G54D12*X561000Y75000D02*Y88957D01*
X345000Y41500D02*X353000D01*
X337000Y49500D02*X345000Y41500D01*
X353000D02*X358000Y46500D01*
X353000Y36500D02*X344500D01*
X368000Y34000D02*Y51000D01*
X363000Y30000D02*Y49500D01*
X305000D02*X337000D01*
X304000Y47500D02*X327500D01*
X330500Y44500D02*Y22500D01*
X299500D02*X310500D01*
X344500Y36500D02*X330500Y22500D01*
G54D14*X314500Y36500D02*X320500Y30500D01*
Y20000D01*
G54D12*X327500Y47500D02*X330500Y44500D01*
X306000Y51500D02*X361000D01*
X308000Y55500D02*X371000D01*
X302000D02*X306000Y51500D01*
X307000Y53500D02*X365500D01*
X340500Y66500D02*X344500Y62500D01*
G54D17*X370000Y65500D02*X361500D01*
X370000D02*Y62500D01*
G54D12*X300000Y51500D02*X304000Y47500D01*
X301000Y53500D02*X305000Y49500D01*
X268000Y55500D02*X302000D01*
X266500Y53500D02*X301000D01*
X263500Y51500D02*X300000D01*
X271000Y59500D02*X304000D01*
X269500Y57500D02*X303000D01*
X304000Y59500D02*X308000Y55500D01*
X303000Y57500D02*X307000Y53500D01*
X275500Y61500D02*X308000D01*
X277000Y63500D02*X305500D01*
X278500Y65500D02*X304500D01*
X358000Y46500D02*Y30000D01*
X350500Y22500D01*
X363000Y30000D02*X370500Y22500D01*
G54D14*X293000Y36500D02*X314500D01*
G54D12*X288000Y34000D02*Y46500D01*
X278000Y30000D02*X270500Y22500D01*
X283000Y30000D02*X290500Y22500D01*
X288000Y34000D02*X299500Y22500D01*
X278000Y30000D02*Y46500D01*
X283000Y30000D02*Y36500D01*
X253000Y46000D02*Y39500D01*
X255500Y28500D02*X264500D01*
X273000Y36500D02*X256500D01*
X250500Y30500D01*
X251500Y34500D02*X253000Y33000D01*
X264500Y28500D02*X270500Y22500D01*
X258000Y48000D02*Y46500D01*
X256500Y45000D01*
X259921Y55079D02*X263500Y51500D01*
X245500Y34500D02*X251500D01*
X350000Y126500D02*X353000Y123500D01*
Y136000D02*Y123500D01*
X376500Y133500D02*X390500Y147500D01*
X363000Y140000D02*X370500Y147500D01*
X358000Y140000D02*X350500Y147500D01*
X353000Y136000D02*X341500Y147500D01*
X358000Y140000D02*Y133500D01*
X336000Y124500D02*X339500Y121000D01*
X329500Y121500D02*X332500Y124500D01*
X336000D01*
X331500Y126500D02*X350000D01*
X332000Y121000D02*X335000D01*
X330500Y119500D02*X332000Y121000D01*
X288000Y133500D02*X296500D01*
X368000D02*X376500D01*
X296500D02*X310500Y147500D01*
X330500D02*X341500D01*
G54D14*X327500Y133500D02*X320500Y140500D01*
Y151000D01*
G54D12*X328500Y123500D02*X331500Y126500D01*
G54D14*X348000Y133500D02*X327500D01*
G54D12*X304500Y117500D02*X365500D01*
X305500Y115500D02*X376500D01*
X306500Y113500D02*X379500D01*
X302500Y121500D02*X329500D01*
X283000Y140000D02*X290500Y147500D01*
X283000Y140000D02*Y124000D01*
X296500Y118500D02*X301500Y123500D01*
X297500Y116500D02*X302500Y121500D01*
X298500Y114500D02*X303500Y119500D01*
X299500Y112500D02*X304500Y117500D01*
X300500Y110500D02*X305500Y115500D01*
X301500Y123500D02*X328500D01*
X303500Y119500D02*X330500D01*
X301500Y108500D02*X306500Y113500D01*
X302500Y106500D02*X306000Y110000D01*
X314500D01*
X303500Y104500D02*X305500Y106500D01*
X316000D01*
X319500Y110000D01*
X304500Y97000D02*X309000D01*
X315000Y91000D01*
G54D17*X355000Y99500D02*X357500Y102000D01*
X350500Y105000D02*X353000Y107500D01*
X357500Y102000D02*X370500D01*
X376000Y107500D01*
G54D12*X366000Y91000D02*X371000D01*
X373000Y93000D01*
Y94957D01*
G54D17*X353000Y107500D02*X366000D01*
G54D12*X261889Y75889D02*X262000Y76000D01*
X261889Y93111D02*X262000Y93000D01*
X261889Y99960D02*Y93111D01*
X248111Y70040D02*Y76389D01*
X248000Y76500D01*
X238268Y70040D02*Y76768D01*
X238500Y77000D01*
X240237Y54237D02*Y70040D01*
X242205Y53205D02*Y70040D01*
X248111Y94111D02*X248000Y94000D01*
X238268Y99960D02*Y93232D01*
X238500Y93000D01*
X271732Y99960D02*Y94732D01*
X271500Y94500D01*
X248111Y99960D02*Y94111D01*
X279606Y95606D02*X277000Y93000D01*
X279606Y99960D02*Y95606D01*
X281574Y99960D02*Y95426D01*
X283500Y93500D01*
X244174Y52174D02*Y70040D01*
X246142Y51142D02*Y70040D01*
X250079Y52079D02*Y70040D01*
X252048D02*Y51048D01*
X244000Y43000D01*
X254016Y70040D02*Y50016D01*
X255984Y70040D02*Y48984D01*
X257952Y70040D02*Y47952D01*
X254016Y50016D02*X248500Y44500D01*
X255984Y48984D02*X253000Y46000D01*
X261889Y70040D02*Y75889D01*
X271732Y70040D02*Y76268D01*
X271500Y76500D01*
G54D14*X294500Y82000D02*X267500D01*
G54D12*X259921Y70040D02*Y55079D01*
X263858Y70040D02*Y56142D01*
X266500Y53500D01*
X265826Y70040D02*Y57674D01*
X268000Y55500D01*
X267795Y70040D02*Y59205D01*
X269500Y57500D01*
X269763Y70040D02*Y60737D01*
X271000Y59500D01*
X273700Y63300D02*X275500Y61500D01*
X273700Y70040D02*Y63300D01*
X275669Y70040D02*Y64831D01*
X277000Y63500D01*
X277637Y70040D02*Y66363D01*
X278500Y65500D01*
X279606Y70040D02*Y75106D01*
X280250Y75750D01*
X281574Y70040D02*Y74926D01*
X280500Y76000D01*
X259000Y117000D02*Y126500D01*
X257952Y115952D02*X259000Y117000D01*
X255984Y116016D02*X254000Y118000D01*
Y126500D01*
X240237Y99960D02*Y110763D01*
X242205Y99960D02*Y111795D01*
X244174Y99960D02*Y112826D01*
X246142Y99960D02*Y113858D01*
X250079Y99960D02*Y112921D01*
X252048Y99960D02*Y113952D01*
X244000Y122000D01*
X254016Y99960D02*Y114984D01*
X249000Y120000D01*
X257952Y99960D02*Y115952D01*
X255984Y99960D02*Y116016D01*
X259921Y114921D02*X263500Y118500D01*
X259921Y99960D02*Y114921D01*
X263858Y113858D02*X266500Y116500D01*
X265826Y112326D02*X268000Y114500D01*
X267795Y110795D02*X269500Y112500D01*
X263858Y99960D02*Y113858D01*
X265826Y99960D02*Y112326D01*
X267795Y99960D02*Y110795D01*
X269763Y99960D02*Y109263D01*
X271000Y110500D01*
X273700Y99960D02*Y106700D01*
X275669Y99960D02*Y105169D01*
X277000Y106500D01*
X277637Y99960D02*Y103637D01*
X278500Y104500D01*
X273700Y106700D02*X275500Y108500D01*
X273000Y136000D02*Y123500D01*
X263500Y118500D02*X296500D01*
X266500Y116500D02*X297500D01*
X268000Y114500D02*X298500D01*
X269500Y112500D02*X299500D01*
X271000Y110500D02*X300500D01*
X275500Y108500D02*X301500D01*
X277000Y106500D02*X302500D01*
X278500Y104500D02*X303500D01*
X365500Y53500D02*X368000Y51000D01*
X305500Y63500D02*X306500Y64500D01*
X304500Y65500D02*X305500Y66500D01*
X306500Y64500D02*X310500D01*
X313500Y61500D01*
X305500Y66500D02*X313500D01*
X318500Y61500D01*
X302000Y69500D02*X320000D01*
X294500Y92000D02*X296500D01*
X299500Y89000D01*
G54D17*X304500Y87000D02*X347500D01*
X350500Y90000D01*
G54D12*X299500Y89000D02*Y72000D01*
X302000Y69500D01*
X320000D02*X324000Y73500D01*
X336500D01*
X340500Y69500D01*
Y66500D01*
X403500Y68500D02*Y78000D01*
X402000Y79500D01*
X398500D01*
X399000D02*X384000D01*
X385000Y59000D02*Y69000D01*
X383500Y70500D01*
X375000D01*
X370000Y75500D01*
G54D17*X361500Y65500D02*X355000Y72000D01*
G54D13*X399500Y49500D02*Y42000D01*
G54D17*X395500D02*X399500D01*
G54D12*X376500Y115500D02*X384000Y123000D01*
X379500Y113500D02*X389000Y123000D01*
X368000Y120000D02*Y133500D01*
X363000Y140000D02*Y124000D01*
X365500Y117500D02*X368000Y120000D01*
X380000Y85500D02*X389914D01*
G54D17*X370000D02*X375500Y91000D01*
X355000Y72000D02*Y99500D01*
X375500Y91000D02*X390500D01*
G54D12*X384000Y79500D02*X383000Y80500D01*
X365500D01*
G54D17*X350500Y90000D02*Y105000D01*
G54D12*X362000Y97000D02*X366957D01*
X367457Y96500D01*
X365500Y80500D02*X363000Y83000D01*
Y88000D01*
X366000Y91000D01*
X361500Y78000D02*X364750Y81250D01*
X278000Y140000D02*X270500Y147500D01*
X278000Y140000D02*Y133500D01*
X273000Y136000D02*X261500Y147500D01*
X250500D02*X261500D01*
G54D14*X268000Y133500D02*X247500D01*
X240500Y140500D01*
Y151000D01*
G54D12*X406476Y84279D02*Y92024D01*
G54D17*X390500Y91000D02*X391000Y91500D01*
G54D12*X389914Y85500D02*X391000Y84414D01*
X390707Y84707D02*X399793D01*
X406000Y78500D01*
X380000Y75500D02*X390000D01*
X406000Y78500D02*X405250Y79250D01*
X368000Y34000D02*X379500Y22500D01*
X390500D01*
G54D14*X373000Y36500D02*X393500D01*
X398500Y31500D01*
Y16500D01*
G54D12*X361000Y51500D02*X363000Y49500D01*
X371000Y55500D02*X378500Y48000D01*
X398721Y54476D02*X383024D01*
X406477Y46721D02*Y54977D01*
X407000Y55500D01*
X383024Y54476D02*X380000Y57500D01*
G54D17*X370000Y62500D02*X390500Y42000D01*
X396000D01*
G54D12*X380000Y57500D02*Y65500D01*
X398721Y57626D02*X386374D01*
X394075Y63925D02*X393500Y64500D01*
X389000D01*
X398721Y60775D02*X392725D01*
X392500Y61000D01*
X386374Y57626D02*X385000Y59000D01*
X398721Y67075D02*X402075D01*
X403500Y68500D01*
X398721Y63925D02*X394075D01*
G54D13*X399500Y42000D02*X403500Y38000D01*
G54D12*X409626Y46721D02*Y38126D01*
X409500Y38000D01*
X419075Y46721D02*Y55425D01*
X419000Y55500D01*
X415925Y46721D02*Y43075D01*
X417000Y42000D01*
X430000Y67000D02*X429000Y66000D01*
X407500D01*
X406000Y67500D01*
X422225Y46721D02*Y50725D01*
X424500Y53000D01*
G54D14*X532500Y97000D02*X536500Y93000D01*
X534000Y87500D02*X526000Y95500D01*
X536500Y93000D02*X536250Y93250D01*
X532500Y97000D02*Y106000D01*
X526000Y95500D02*Y111500D01*
G54D17*X521500Y118000D02*Y79500D01*
G54D12*X529500Y82000D02*X534000D01*
G54D14*X526000Y111500D02*X527500Y113000D01*
G54D17*X516500Y123000D02*X521500Y118000D01*
G54D12*X501000Y113043D02*X512457D01*
X512500Y113000D01*
G54D14*X527500D02*X533000D01*
X542500Y93000D02*X536500D01*
X542500D02*Y88000D01*
X543500Y87000D01*
G54D17*X542500Y103000D02*X545000D01*
X548500Y106500D01*
G54D12*X561000Y88957D02*X555500Y94457D01*
Y101543D02*X550543D01*
X543000Y117500D02*X546500D01*
X548500Y119500D01*
Y123500D01*
X512500Y103000D02*X509000D01*
X506000Y106000D01*
X501043D01*
X507543Y90457D02*X515500Y82500D01*
X501000Y97543D02*X507957D01*
X512500Y93000D01*
X501000Y90457D02*X507543D01*
G54D17*X518000Y97500D02*X521500D01*
G54D12*X501000Y106500D02*X501500Y106000D01*
X406414Y111586D02*X406476Y111524D01*
Y115418D02*X403894Y118000D01*
X409626Y115126D02*X412500Y118000D01*
X423106D01*
X406476Y90279D02*Y115418D01*
X409626Y90279D02*Y115126D01*
X415925Y90279D02*Y97425D01*
X416000Y97500D01*
X415925Y92425D02*Y84279D01*
X419075D02*Y88575D01*
X420000Y89500D01*
X423500D01*
X424500Y90500D01*
Y92414D01*
X426086Y94000D01*
X409626Y91626D02*Y84279D01*
X412775D02*Y76275D01*
X412000Y75500D01*
X422224Y84279D02*Y75776D01*
X422500Y75500D01*
X419075Y84075D02*Y80075D01*
X416500Y77500D02*X419075Y80075D01*
Y82075D01*
X416500Y75500D02*Y77500D01*
G54D14*X412000Y75500D02*X416500D01*
Y73000D01*
X419250Y70250D01*
G54D12*X406000Y67500D02*Y78500D01*
G54D14*X419250Y70250D02*X425250D01*
G54D12*X479500Y68500D02*X493500Y82500D01*
Y94000D01*
X497000Y97500D01*
X460500Y103000D02*X498043D01*
X459500Y105500D02*X489500D01*
X493000Y109000D01*
G54D17*X485957Y111543D02*X486000Y111500D01*
G54D14*X425250Y70250D02*X427000Y72000D01*
X427500Y75500D02*Y72500D01*
X426000Y71000D01*
G54D12*X436279Y70225D02*X448775D01*
X453000Y66000D01*
X436279Y73374D02*X449626D01*
X454500Y68500D01*
X436279Y76524D02*X448024D01*
X449500Y78000D01*
Y92000D01*
X460500Y103000D01*
X447000Y93000D02*X459500Y105500D01*
X444500Y81000D02*Y83000D01*
G54D14*X438500Y86500D02*X427500Y75500D01*
G54D12*X444500Y83000D02*X447000Y85500D01*
Y93000D01*
X550543Y101543D02*X547000Y98000D01*
X539500D01*
X537500Y100000D01*
Y115000D01*
X540000Y117500D02*X543500D01*
G54D17*X542500Y113000D02*X548000D01*
X548500Y106500D02*X557000D01*
G54D12*X497000Y97500D02*X500457D01*
X500500Y97543D01*
X501043Y106000D02*X498043Y103000D01*
X493000Y109000D02*Y122457D01*
G54D15*X485957Y122500D02*Y111543D01*
G54D17*X562000Y126500D02*X573000Y137500D01*
X579500D01*
X557500Y135500D02*X579500Y157500D01*
G54D14*X542457Y123043D02*X542500Y123000D01*
G54D17*X557500Y128000D02*Y135500D01*
Y122500D02*Y129000D01*
G54D12*X548500Y122500D02*Y127500D01*
Y127000D02*Y128500D01*
X545500Y131500D01*
G54D18*X550500Y147500D02*Y137000D01*
G54D17*X548000Y113000D02*X557500Y122500D01*
X557000Y106500D02*X562000Y111500D01*
Y126500D01*
G54D12*X537500Y115000D02*X540000Y117500D01*
G54D14*X532500Y113043D02*Y119000D01*
X536500Y123000D01*
X542500D01*
G54D17*X512500D02*X516500D01*
G54D12*X493000Y122543D02*X493043Y122500D01*
X492500Y129500D02*Y123043D01*
X492772Y122772D01*
X493000Y122457D02*X493043Y122500D01*
X545500Y131500D02*X494500D01*
X492500Y129500D01*
G54D19*X530500Y147500D02*Y137500D01*
G54D13*X502500Y42000D02*Y53500D01*
X508000Y59000D01*
X513000D01*
X498500Y38000D02*X502500Y42000D01*
G54D17*X491543Y62000D02*Y38043D01*
G54D12*X506000Y64500D02*X516500D01*
X468414Y48500D02*Y44414D01*
G54D17*X472000Y57500D02*X475500Y54000D01*
Y38000D01*
G54D13*X403500D02*X498500D01*
G54D12*X467500Y43500D02*X439000D01*
X468414Y44414D02*X467500Y43500D01*
G54D17*X491543Y38043D02*X491500Y38000D01*
G54D12*X480500Y53000D02*X484457D01*
X434500Y49000D02*X430500Y53000D01*
X431250Y52250D01*
X424500Y53000D02*X430500D01*
X438500Y48000D02*X451457D01*
X417000Y42000D02*X432500D01*
X438500Y48000D01*
X441500D01*
X431000Y67000D02*X436204D01*
X436279Y67075D01*
X445500Y64000D02*X436354D01*
X436279Y63925D01*
X436500Y67000D02*X448500D01*
X451500Y64000D01*
X443000D02*X448500D01*
X450500Y62000D01*
X471500D01*
X480500Y53000D01*
X451500Y64000D02*X478500D01*
X480500Y62000D01*
X484457D01*
X453000Y66000D02*X480500D01*
X454500Y68500D02*X479500D01*
X480500Y66000D02*X483000Y68500D01*
X502000D01*
X506000Y64500D01*
X432000Y67000D02*X430000D01*
X436279Y60776D02*X442224D01*
X445500Y57500D01*
X450957D01*
G54D17*X458043D02*X472000D01*
G54D14*X463000Y52500D02*X462543D01*
X458043Y48000D01*
G54D19*X30500Y147500D03*
X10500D03*
X70500D03*
X50500D03*
G54D18*X93000Y123500D03*
X83000D03*
X73000D03*
X88000Y133500D03*
X78000D03*
X68000D03*
G54D20*X100500Y158500D03*
X60500D03*
G54D19*X90500Y147500D03*
X110500Y22500D03*
X130500D03*
X150500D03*
G54D20*X140500Y11500D03*
G54D19*X190500Y22500D03*
X210500D03*
G54D18*X148000Y46500D03*
X153000Y36500D03*
X158000Y46500D03*
X163000Y36500D03*
G54D19*X170500Y22500D03*
G54D18*X168000Y46500D03*
X173000Y36500D03*
G54D20*X180500Y11500D03*
G54D11*G36*
X18500Y99000D02*Y91000D01*
X26500D01*
Y99000D01*
X18500D01*
G37*
G54D21*X57000Y85000D03*
G54D19*X22500Y75000D03*
G54D11*G36*
X46500Y26500D02*Y18500D01*
X54500D01*
Y26500D01*
X46500D01*
G37*
G54D20*X60500Y11500D03*
G54D11*G36*
X66500Y26500D02*Y18500D01*
X74500D01*
Y26500D01*
X66500D01*
G37*
G54D19*X90500Y22500D03*
X10500D03*
X30500D03*
G54D18*X68000Y46500D03*
X73000Y36500D03*
X78000Y46500D03*
X83000Y36500D03*
X88000Y46500D03*
X93000Y36500D03*
G54D20*X100500Y11500D03*
G54D22*X186500Y86500D03*
X176500D03*
G54D11*G36*
X162563Y90437D02*Y82563D01*
X170437D01*
Y90437D01*
X162563D01*
G37*
G54D19*X150500Y147500D03*
X130500D03*
X210500D03*
X190500D03*
X170500D03*
X110500D03*
G54D20*X140500Y158500D03*
G54D18*X173000Y123500D03*
G54D20*X180500Y158500D03*
G54D18*X168000Y133500D03*
X158000D03*
X148000D03*
X163000Y123500D03*
X153000D03*
G54D19*X290500Y22500D03*
X310500D03*
X250500D03*
X270500D03*
X230500D03*
G54D18*X268000Y46500D03*
X273000Y36500D03*
X278000Y46500D03*
X283000Y36500D03*
X288000Y46500D03*
X293000Y36500D03*
G54D20*X260500Y11500D03*
G54D18*X294500Y72000D03*
Y82000D03*
Y92000D03*
X304500Y77000D03*
Y87000D03*
Y97000D03*
G54D20*X329500Y64500D03*
Y104500D03*
G54D19*X230500Y147500D03*
X270500D03*
X250500D03*
G54D20*X260500Y158500D03*
G54D19*X350500Y147500D03*
X330500D03*
X310500D03*
X290500D03*
G54D18*X293000Y123500D03*
X288000Y133500D03*
G54D20*X300500Y158500D03*
G54D18*X283000Y123500D03*
X273000D03*
X278000Y133500D03*
X268000D03*
G54D19*X370500Y22500D03*
X390500D03*
G54D18*X368000Y46500D03*
X373000Y36500D03*
G54D11*G36*
X377000Y68500D02*Y62500D01*
X383000D01*
Y68500D01*
X377000D01*
G37*
G54D23*X380000Y75500D03*
Y85500D03*
X370000Y65500D03*
Y75500D03*
Y85500D03*
G54D19*X430500Y147500D03*
G54D11*G36*
X419606Y121500D02*Y114500D01*
X426606D01*
Y121500D01*
X419606D01*
G37*
G54D19*X410500Y147500D03*
G54D18*X403894Y118000D03*
G54D19*X390500Y147500D03*
X370500D03*
G54D18*X373000Y123500D03*
G54D20*X380500Y158500D03*
G54D11*G36*
X373000Y110500D02*Y104500D01*
X379000D01*
Y110500D01*
X373000D01*
G37*
G54D23*X366000Y107500D03*
G54D18*X368000Y133500D03*
X358000D03*
X348000D03*
G54D20*X340500Y158500D03*
G54D18*X363000Y123500D03*
X353000D03*
G54D20*X300500Y11500D03*
X340500D03*
X380500D03*
G54D18*X348000Y46500D03*
X353000Y36500D03*
X358000Y46500D03*
X363000Y36500D03*
G54D19*X330500Y22500D03*
X350500D03*
X410500D03*
X430500D03*
X510500Y147500D03*
Y22500D03*
G54D11*G36*
X509500Y126000D02*Y120000D01*
X515500D01*
Y126000D01*
X509500D01*
G37*
G54D23*X512500Y113000D03*
Y103000D03*
Y93000D03*
G54D19*X490500Y147500D03*
Y22500D03*
X470500Y147500D03*
X450500D03*
Y22500D03*
X470500D03*
G54D21*X467000Y85000D03*
G54D19*X530500Y22500D03*
X550500D03*
Y147500D03*
X530500D03*
G54D11*G36*
X575500Y141500D02*Y133500D01*
X583500D01*
Y141500D01*
X575500D01*
G37*
G54D19*X579500Y157500D03*
G54D11*G36*
X575500Y101500D02*Y93500D01*
X583500D01*
Y101500D01*
X575500D01*
G37*
G54D19*X579500Y117500D03*
G54D23*X542500Y93000D03*
Y103000D03*
Y113000D03*
Y123000D03*
G54D24*X213700Y68500D02*X217300D01*
G54D25*X228426Y72402D02*Y67678D01*
X230394Y72402D02*Y67678D01*
G54D26*X228426Y70940D02*Y69140D01*
X230394Y70940D02*Y69140D01*
G54D25*X232363Y72402D02*Y67678D01*
X234331Y72402D02*Y67678D01*
G54D26*X232363Y70940D02*Y69140D01*
X234331Y70940D02*Y69140D01*
G54D25*X236300Y72402D02*Y67678D01*
G54D26*Y70940D02*Y69140D01*
G54D25*X238268Y72402D02*Y67678D01*
G54D26*Y70940D02*Y69140D01*
G54D25*X240237Y72402D02*Y67678D01*
G54D26*Y70940D02*Y69140D01*
G54D25*X242205Y72402D02*Y67678D01*
X244174Y72402D02*Y67678D01*
X246142Y72402D02*Y67678D01*
G54D26*X242205Y70940D02*Y69140D01*
X244174Y70940D02*Y69140D01*
X246142Y70940D02*Y69140D01*
G54D27*X208107Y109543D02*X208893D01*
G54D28*X130500Y102500D02*Y93500D01*
G54D27*X207319Y80595D02*X209681D01*
X207319Y92405D02*X209681D01*
X208107Y102457D02*X208893D01*
G54D24*X197700Y68500D02*X201300D01*
X197700Y58500D02*X201300D01*
G54D27*X185607Y65543D02*X186393D01*
X185607Y58457D02*X186393D01*
G54D28*X130500Y77000D02*Y67900D01*
G54D27*X162745Y70405D02*X168255D01*
G54D24*X213700Y58500D02*X217300D01*
G54D27*X162745Y58595D02*X168255D01*
G54D29*X36400Y116100D02*Y114900D01*
X23500Y116100D02*Y114900D01*
G54D28*X92500Y102500D02*Y93500D01*
Y77000D02*Y67900D01*
G54D27*X555107Y101543D02*X555893D01*
X555107Y94457D02*X555893D01*
X556310Y80681D02*Y78319D01*
X544500Y80681D02*Y78319D01*
X500607Y113043D02*X501393D01*
X500607Y105957D02*X501393D01*
X500607Y97543D02*X501393D01*
X500607Y90457D02*X501393D01*
X532107Y113043D02*X532893D01*
X532107Y105957D02*X532893D01*
X521405Y80681D02*Y78319D01*
X509595Y80681D02*Y78319D01*
X557586Y48893D02*Y48107D01*
G54D30*X573094Y25110D02*Y21016D01*
G54D31*X563508Y58000D02*X569807D01*
G54D30*X579000Y32826D02*Y21016D01*
G54D32*Y36450D02*Y34560D01*
G54D11*G36*
X575695Y31255D02*X578535Y28415D01*
X577115Y26995D01*
X574275Y29835D01*
X575695Y31255D01*
G37*
G54D29*X572000Y80100D02*Y78900D01*
G54D11*G36*
X579465Y28415D02*X582305Y31255D01*
X583725Y29835D01*
X580885Y26995D01*
X579465Y28415D01*
G37*
G54D30*X584906Y25110D02*Y21016D01*
G54D31*X583193Y58000D02*X589492D01*
G54D29*X584900Y80100D02*Y78900D01*
G54D27*X550500Y48893D02*Y48107D01*
X550107Y70043D02*X550893D01*
X550107Y62957D02*X550893D01*
G54D24*X530500Y50300D02*Y46700D01*
X520500Y50300D02*Y46700D01*
G54D27*X529607Y70043D02*X530393D01*
X529607Y62957D02*X530393D01*
X484457Y53393D02*Y52607D01*
X491543Y53393D02*Y52607D01*
X484457Y62393D02*Y61607D01*
X491543Y62393D02*Y61607D01*
G54D25*X248111Y72402D02*Y67678D01*
X250079Y72402D02*Y67678D01*
X252048Y72402D02*Y67678D01*
G54D26*X248111Y70940D02*Y69140D01*
X250079Y70940D02*Y69140D01*
X252048Y70940D02*Y69140D01*
G54D25*X254016Y72402D02*Y67678D01*
X255984Y72402D02*Y67678D01*
X257952Y72402D02*Y67678D01*
G54D26*X254016Y70940D02*Y69140D01*
X255984Y70940D02*Y69140D01*
X257952Y70940D02*Y69140D01*
G54D25*X281574Y102322D02*Y97598D01*
X279606Y102322D02*Y97598D01*
G54D26*X281574Y100860D02*Y99060D01*
X279606Y100860D02*Y99060D01*
G54D25*X271732Y102322D02*Y97598D01*
G54D26*Y100860D02*Y99060D01*
G54D25*X269763Y102322D02*Y97598D01*
G54D26*Y100860D02*Y99060D01*
G54D25*X267795Y102322D02*Y97598D01*
X265826Y102322D02*Y97598D01*
X263858Y102322D02*Y97598D01*
G54D26*X267795Y100860D02*Y99060D01*
X265826Y100860D02*Y99060D01*
X263858Y100860D02*Y99060D01*
G54D25*X277637Y102322D02*Y97598D01*
X275669Y102322D02*Y97598D01*
X273700Y102322D02*Y97598D01*
G54D26*X277637Y100860D02*Y99060D01*
X275669Y100860D02*Y99060D01*
X273700Y100860D02*Y99060D01*
G54D25*X261889Y102322D02*Y97598D01*
X259921Y102322D02*Y97598D01*
X257952Y102322D02*Y97598D01*
G54D26*X261889Y100860D02*Y99060D01*
X259921Y100860D02*Y99060D01*
X257952Y100860D02*Y99060D01*
G54D25*X255984Y102322D02*Y97598D01*
X254016Y102322D02*Y97598D01*
X252048Y102322D02*Y97598D01*
G54D26*X255984Y100860D02*Y99060D01*
X254016Y100860D02*Y99060D01*
X252048Y100860D02*Y99060D01*
G54D25*X259921Y72402D02*Y67678D01*
X261889Y72402D02*Y67678D01*
G54D26*X259921Y70940D02*Y69140D01*
X261889Y70940D02*Y69140D01*
G54D25*X267795Y72402D02*Y67678D01*
G54D26*Y70940D02*Y69140D01*
G54D25*X269763Y72402D02*Y67678D01*
G54D26*Y70940D02*Y69140D01*
G54D25*X277637Y72402D02*Y67678D01*
X279606Y72402D02*Y67678D01*
X281574Y72402D02*Y67678D01*
G54D26*X277637Y70940D02*Y69140D01*
X279606Y70940D02*Y69140D01*
X281574Y70940D02*Y69140D01*
G54D25*X263858Y72402D02*Y67678D01*
X265826Y72402D02*Y67678D01*
G54D26*X263858Y70940D02*Y69140D01*
X265826Y70940D02*Y69140D01*
G54D25*X271732Y72402D02*Y67678D01*
X273700Y72402D02*Y67678D01*
X275669Y72402D02*Y67678D01*
G54D26*X271732Y70940D02*Y69140D01*
X273700Y70940D02*Y69140D01*
X275669Y70940D02*Y69140D01*
G54D25*X250079Y102322D02*Y97598D01*
X248111Y102322D02*Y97598D01*
G54D26*X250079Y100860D02*Y99060D01*
X248111Y100860D02*Y99060D01*
G54D25*X242205Y102322D02*Y97598D01*
G54D26*Y100860D02*Y99060D01*
G54D25*X240237Y102322D02*Y97598D01*
G54D26*Y100860D02*Y99060D01*
G54D25*X232363Y102322D02*Y97598D01*
X230394Y102322D02*Y97598D01*
X228426Y102322D02*Y97598D01*
G54D26*X232363Y100860D02*Y99060D01*
X230394Y100860D02*Y99060D01*
X228426Y100860D02*Y99060D01*
G54D25*X246142Y102322D02*Y97598D01*
X244174Y102322D02*Y97598D01*
G54D26*X246142Y100860D02*Y99060D01*
X244174Y100860D02*Y99060D01*
G54D25*X238268Y102322D02*Y97598D01*
X236300Y102322D02*Y97598D01*
X234331Y102322D02*Y97598D01*
G54D26*X238268Y100860D02*Y99060D01*
X236300Y100860D02*Y99060D01*
X234331Y100860D02*Y99060D01*
G54D27*X426086Y94393D02*Y93607D01*
G54D24*X470500Y122800D02*Y119200D01*
X460500Y122800D02*Y119200D01*
G54D27*X485957Y122893D02*Y122107D01*
X493043Y122893D02*Y122107D01*
X439064Y86414D02*X439850D01*
G54D33*X428523Y86492D02*Y82066D01*
G54D27*X439064Y93500D02*X439850D01*
G54D33*X425374Y86492D02*Y82066D01*
X422224Y86492D02*Y82066D01*
X419075Y86492D02*Y82066D01*
X415925Y86492D02*Y82066D01*
X412775Y86492D02*Y82066D01*
G54D27*X419000Y94393D02*Y93607D01*
X411914Y102893D02*Y102107D01*
X419000Y102893D02*Y102107D01*
X404086Y102893D02*Y102107D01*
X397000Y102893D02*Y102107D01*
G54D33*X409626Y86492D02*Y82066D01*
X406476Y86492D02*Y82066D01*
X396508Y76523D02*X400934D01*
G54D27*X367457Y96893D02*Y96107D01*
X374543Y96893D02*Y96107D01*
X390607Y84414D02*X391393D01*
X390607Y91500D02*X391393D01*
G54D33*X396508Y73374D02*X400934D01*
X396508Y70224D02*X400934D01*
X396508Y67075D02*X400934D01*
X396508Y63925D02*X400934D01*
X396508Y60775D02*X400934D01*
X396508Y57626D02*X400934D01*
X396508Y54476D02*X400934D01*
X406477Y48934D02*Y44508D01*
X409626Y48934D02*Y44508D01*
X412776Y48934D02*Y44508D01*
X415925Y48934D02*Y44508D01*
X419075Y48934D02*Y44508D01*
X422225Y48934D02*Y44508D01*
X425374Y48934D02*Y44508D01*
X428524Y48934D02*Y44508D01*
G54D27*X450957Y48393D02*Y47607D01*
X458043Y48393D02*Y47607D01*
X450957Y57893D02*Y57107D01*
X458043Y57893D02*Y57107D01*
X468414Y48893D02*Y48107D01*
X475500Y48893D02*Y48107D01*
G54D33*X434066Y67075D02*X438492D01*
X434066Y70225D02*X438492D01*
X434066Y73374D02*X438492D01*
X434066Y76524D02*X438492D01*
X434066Y54477D02*X438492D01*
X434066Y57626D02*X438492D01*
X434066Y60776D02*X438492D01*
X434066Y63925D02*X438492D01*
G54D34*X255500Y28500D03*
X262000Y76000D03*
X256500Y45000D03*
X248500Y39500D03*
X253000D03*
X254000Y126500D03*
X277000Y93000D03*
X280500Y76000D03*
X283500Y93500D03*
X313500Y61500D03*
X314500Y110000D03*
X319500D03*
X315000Y91000D03*
X308000Y61000D03*
X259000Y126500D03*
X339500Y121000D03*
X335000D03*
X384000Y123000D03*
X389000D03*
X318500Y61500D03*
X344500Y62500D03*
X362000Y97000D03*
X361500Y78000D03*
X378500Y48000D03*
X392500Y61000D03*
X389000Y64500D03*
X390000Y75500D03*
X422500D03*
X407000Y55500D03*
X416500Y75500D03*
X412000D03*
X419000Y55500D03*
X399500Y49500D03*
Y45000D03*
X439000Y43500D03*
X434500Y49000D03*
X439000Y113500D03*
X422500Y125000D03*
X418000D03*
X413500D03*
X409000D03*
X404500D03*
X401000Y110000D03*
X396500D03*
X392000D03*
X192000Y66500D03*
X207500D03*
X192000Y71000D03*
Y75500D03*
X207500Y71000D03*
X186000Y38000D03*
X195000Y42500D03*
X191500Y46000D03*
X179000Y31000D03*
X182500Y34500D03*
X183000Y41500D03*
Y46000D03*
X137500Y121500D03*
X140000Y117500D03*
X137500Y113500D03*
X140000Y109500D03*
X248000Y94000D03*
X228500Y76500D03*
X233000D03*
X228500Y93500D03*
X233000D03*
X244000Y126500D03*
X249000D03*
X588500Y45500D03*
Y41000D03*
X581500Y48000D03*
X577000D03*
X572500D03*
X588500Y36500D03*
X571000Y42000D03*
Y37500D03*
X566500Y42000D03*
Y37500D03*
X565500Y15000D03*
X570000D03*
X574500D03*
X579000D03*
X583500D03*
X588000D03*
X592500D03*
X570000Y164000D03*
Y159500D03*
Y155000D03*
X569000Y124000D03*
Y118000D03*
X564500Y164000D03*
Y159500D03*
Y155000D03*
X445500Y57500D03*
Y63500D03*
X463000Y52500D03*
X444500Y81000D03*
X434500Y105000D03*
X425500D03*
X430000D03*
X439000D03*
Y109500D03*
Y118000D03*
X516500Y64500D03*
X518000Y97500D03*
X486000Y116000D03*
Y111500D03*
X589000Y112000D03*
X569000D03*
X589000Y145500D03*
Y133500D03*
Y124000D03*
Y139500D03*
Y118000D03*
Y152000D03*
Y158500D03*
Y164500D03*
G54D16*G54D35*G54D36*G54D37*G54D35*G54D37*G54D35*G54D36*G54D35*G54D36*G54D37*G54D35*G54D38*G54D35*G54D37*G54D35*G54D36*G54D37*G54D15*G54D35*G54D37*G54D36*G54D37*G54D36*G54D35*G54D36*G54D37*G54D39*G54D37*G54D35*G54D37*G54D35*G54D36*G54D37*G54D36*G54D35*G54D36*G54D40*G54D35*G54D16*G54D35*G54D16*G54D35*G54D36*G54D37*G54D40*G54D36*G54D37*G54D36*G54D37*G54D36*G54D35*G54D41*G54D35*G54D38*G54D35*G54D41*M02*
