G04 start of page 12 for group -3984 idx -3984 *
G04 Title: (unknown), fab *
G04 Creator: pcb 20140316 *
G04 CreationDate: Fri 09 Jan 2015 10:12:06 PM GMT UTC *
G04 For: ndholmes *
G04 Format: Gerber/RS-274X *
G04 PCB-Dimensions (mil): 6000.00 1700.00 *
G04 PCB-Coordinate-Origin: lower left *
%MOIN*%
%FSLAX25Y25*%
%LNFAB*%
%ADD111C,0.0100*%
%ADD110C,0.0060*%
%ADD109R,0.0080X0.0080*%
G54D109*X466200Y85000D02*G75*G03X467800Y85000I800J0D01*G01*
G75*G03X466200Y85000I-800J0D01*G01*
X464600D02*G75*G03X469400Y85000I2400J0D01*G01*
G75*G03X464600Y85000I-2400J0D01*G01*
X56200D02*G75*G03X57800Y85000I800J0D01*G01*
G75*G03X56200Y85000I-800J0D01*G01*
X54600D02*G75*G03X59400Y85000I2400J0D01*G01*
G75*G03X54600Y85000I-2400J0D01*G01*
X14200Y181250D02*G75*G03X15800Y181250I800J0D01*G01*
G75*G03X14200Y181250I-800J0D01*G01*
X12600D02*G75*G03X17400Y181250I2400J0D01*G01*
G75*G03X12600Y181250I-2400J0D01*G01*
G54D110*X135000Y183500D02*Y182750D01*
X136500Y181250D01*
X138000Y182750D01*
Y183500D02*Y182750D01*
X136500Y181250D02*Y177500D01*
X139800Y180500D02*X142050D01*
X139800Y177500D02*X142800D01*
X139800Y183500D02*Y177500D01*
Y183500D02*X142800D01*
X147600D02*X148350Y182750D01*
X145350Y183500D02*X147600D01*
X144600Y182750D02*X145350Y183500D01*
X144600Y182750D02*Y181250D01*
X145350Y180500D01*
X147600D01*
X148350Y179750D01*
Y178250D01*
X147600Y177500D02*X148350Y178250D01*
X145350Y177500D02*X147600D01*
X144600Y178250D02*X145350Y177500D01*
X98000Y182750D02*X98750Y183500D01*
X101000D01*
X101750Y182750D01*
Y181250D01*
X98000Y177500D02*X101750Y181250D01*
X98000Y177500D02*X101750D01*
X45000Y178250D02*X45750Y177500D01*
X45000Y182750D02*Y178250D01*
Y182750D02*X45750Y183500D01*
X47250D01*
X48000Y182750D01*
Y178250D01*
X47250Y177500D02*X48000Y178250D01*
X45750Y177500D02*X47250D01*
X45000Y179000D02*X48000Y182000D01*
X49800Y177500D02*X50550D01*
X53100D02*X54600D01*
X53850Y183500D02*Y177500D01*
X52350Y182000D02*X53850Y183500D01*
X56400Y182750D02*X57150Y183500D01*
X59400D01*
X60150Y182750D01*
Y181250D01*
X56400Y177500D02*X60150Y181250D01*
X56400Y177500D02*X60150D01*
X61950D02*X64950Y180500D01*
Y182750D02*Y180500D01*
X64200Y183500D02*X64950Y182750D01*
X62700Y183500D02*X64200D01*
X61950Y182750D02*X62700Y183500D01*
X61950Y182750D02*Y181250D01*
X62700Y180500D01*
X64950D01*
X98100Y160900D02*X102900Y156100D01*
X98100D02*X102900Y160900D01*
X98900Y160100D02*X102100D01*
X98900D02*Y156900D01*
X102100D01*
Y160100D02*Y156900D01*
X58100Y160900D02*X62900Y156100D01*
X58100D02*X62900Y160900D01*
X58900Y160100D02*X62100D01*
X58900D02*Y156900D01*
X62100D01*
Y160100D02*Y156900D01*
X258100Y13900D02*X262900Y9100D01*
X258100D02*X262900Y13900D01*
X258900Y13100D02*X262100D01*
X258900D02*Y9900D01*
X262100D01*
Y13100D02*Y9900D01*
X298100Y13900D02*X302900Y9100D01*
X298100D02*X302900Y13900D01*
X298900Y13100D02*X302100D01*
X298900D02*Y9900D01*
X302100D01*
Y13100D02*Y9900D01*
X58100Y13900D02*X62900Y9100D01*
X58100D02*X62900Y13900D01*
X58900Y13100D02*X62100D01*
X58900D02*Y9900D01*
X62100D01*
Y13100D02*Y9900D01*
X98100Y13900D02*X102900Y9100D01*
X98100D02*X102900Y13900D01*
X98900Y13100D02*X102100D01*
X98900D02*Y9900D01*
X102100D01*
Y13100D02*Y9900D01*
X338100Y13900D02*X342900Y9100D01*
X338100D02*X342900Y13900D01*
X338900Y13100D02*X342100D01*
X338900D02*Y9900D01*
X342100D01*
Y13100D02*Y9900D01*
X378100Y13900D02*X382900Y9100D01*
X378100D02*X382900Y13900D01*
X378900Y13100D02*X382100D01*
X378900D02*Y9900D01*
X382100D01*
Y13100D02*Y9900D01*
X138100Y13900D02*X142900Y9100D01*
X138100D02*X142900Y13900D01*
X138900Y13100D02*X142100D01*
X138900D02*Y9900D01*
X142100D01*
Y13100D02*Y9900D01*
X178100Y13900D02*X182900Y9100D01*
X178100D02*X182900Y13900D01*
X178900Y13100D02*X182100D01*
X178900D02*Y9900D01*
X182100D01*
Y13100D02*Y9900D01*
X378100Y160900D02*X382900Y156100D01*
X378100D02*X382900Y160900D01*
X378900Y160100D02*X382100D01*
X378900D02*Y156900D01*
X382100D01*
Y160100D02*Y156900D01*
X338100Y160900D02*X342900Y156100D01*
X338100D02*X342900Y160900D01*
X338900Y160100D02*X342100D01*
X338900D02*Y156900D01*
X342100D01*
Y160100D02*Y156900D01*
X298100Y160900D02*X302900Y156100D01*
X298100D02*X302900Y160900D01*
X298900Y160100D02*X302100D01*
X298900D02*Y156900D01*
X302100D01*
Y160100D02*Y156900D01*
X258100Y160900D02*X262900Y156100D01*
X258100D02*X262900Y160900D01*
X258900Y160100D02*X262100D01*
X258900D02*Y156900D01*
X262100D01*
Y160100D02*Y156900D01*
X327100Y66900D02*X331900Y62100D01*
X327100D02*X331900Y66900D01*
X327900Y66100D02*X331100D01*
X327900D02*Y62900D01*
X331100D01*
Y66100D02*Y62900D01*
X327100Y106900D02*X331900Y102100D01*
X327100D02*X331900Y106900D01*
X327900Y106100D02*X331100D01*
X327900D02*Y102900D01*
X331100D01*
Y106100D02*Y102900D01*
X178100Y160900D02*X182900Y156100D01*
X178100D02*X182900Y160900D01*
X178900Y160100D02*X182100D01*
X178900D02*Y156900D01*
X182100D01*
Y160100D02*Y156900D01*
X138100Y160900D02*X142900Y156100D01*
X138100D02*X142900Y160900D01*
X138900Y160100D02*X142100D01*
X138900D02*Y156900D01*
X142100D01*
Y160100D02*Y156900D01*
X12600Y198650D02*X17400Y193850D01*
X12600D02*X17400Y198650D01*
X13400Y197850D02*X16600D01*
X13400D02*Y194650D01*
X16600D01*
Y197850D02*Y194650D01*
X135000Y198500D02*Y197750D01*
X136500Y196250D01*
X138000Y197750D01*
Y198500D02*Y197750D01*
X136500Y196250D02*Y192500D01*
X139800Y195500D02*X142050D01*
X139800Y192500D02*X142800D01*
X139800Y198500D02*Y192500D01*
Y198500D02*X142800D01*
X147600D02*X148350Y197750D01*
X145350Y198500D02*X147600D01*
X144600Y197750D02*X145350Y198500D01*
X144600Y197750D02*Y196250D01*
X145350Y195500D01*
X147600D01*
X148350Y194750D01*
Y193250D01*
X147600Y192500D02*X148350Y193250D01*
X145350Y192500D02*X147600D01*
X144600Y193250D02*X145350Y192500D01*
X98750D02*X100250D01*
X99500Y198500D02*Y192500D01*
X98000Y197000D02*X99500Y198500D01*
X102050Y193250D02*X102800Y192500D01*
X102050Y194750D02*Y193250D01*
Y194750D02*X102800Y195500D01*
X104300D01*
X105050Y194750D01*
Y193250D01*
X104300Y192500D02*X105050Y193250D01*
X102800Y192500D02*X104300D01*
X102050Y196250D02*X102800Y195500D01*
X102050Y197750D02*Y196250D01*
Y197750D02*X102800Y198500D01*
X104300D01*
X105050Y197750D01*
Y196250D01*
X104300Y195500D02*X105050Y196250D01*
X45000Y193250D02*X45750Y192500D01*
X45000Y197750D02*Y193250D01*
Y197750D02*X45750Y198500D01*
X47250D01*
X48000Y197750D01*
Y193250D01*
X47250Y192500D02*X48000Y193250D01*
X45750Y192500D02*X47250D01*
X45000Y194000D02*X48000Y197000D01*
X49800Y192500D02*X50550D01*
X53100D02*X54600D01*
X53850Y198500D02*Y192500D01*
X52350Y197000D02*X53850Y198500D01*
X56400Y197750D02*X57150Y198500D01*
X59400D01*
X60150Y197750D01*
Y196250D01*
X56400Y192500D02*X60150Y196250D01*
X56400Y192500D02*X60150D01*
X61950Y193250D02*X62700Y192500D01*
X61950Y194750D02*Y193250D01*
Y194750D02*X62700Y195500D01*
X64200D01*
X64950Y194750D01*
Y193250D01*
X64200Y192500D02*X64950Y193250D01*
X62700Y192500D02*X64200D01*
X61950Y196250D02*X62700Y195500D01*
X61950Y197750D02*Y196250D01*
Y197750D02*X62700Y198500D01*
X64200D01*
X64950Y197750D01*
Y196250D01*
X64200Y195500D02*X64950Y196250D01*
X290500Y25700D02*Y19300D01*
X287300Y22500D02*X293700D01*
X288900Y24100D02*X292100D01*
X288900D02*Y20900D01*
X292100D01*
Y24100D02*Y20900D01*
X310500Y25700D02*Y19300D01*
X307300Y22500D02*X313700D01*
X308900Y24100D02*X312100D01*
X308900D02*Y20900D01*
X312100D01*
Y24100D02*Y20900D01*
X150500Y150700D02*Y144300D01*
X147300Y147500D02*X153700D01*
X148900Y149100D02*X152100D01*
X148900D02*Y145900D01*
X152100D01*
Y149100D02*Y145900D01*
X130500Y150700D02*Y144300D01*
X127300Y147500D02*X133700D01*
X128900Y149100D02*X132100D01*
X128900D02*Y145900D01*
X132100D01*
Y149100D02*Y145900D01*
X30500Y150700D02*Y144300D01*
X27300Y147500D02*X33700D01*
X28900Y149100D02*X32100D01*
X28900D02*Y145900D01*
X32100D01*
Y149100D02*Y145900D01*
X10500Y150700D02*Y144300D01*
X7300Y147500D02*X13700D01*
X8900Y149100D02*X12100D01*
X8900D02*Y145900D01*
X12100D01*
Y149100D02*Y145900D01*
X470500Y150700D02*Y144300D01*
X467300Y147500D02*X473700D01*
X468900Y149100D02*X472100D01*
X468900D02*Y145900D01*
X472100D01*
Y149100D02*Y145900D01*
X450500Y150700D02*Y144300D01*
X447300Y147500D02*X453700D01*
X448900Y149100D02*X452100D01*
X448900D02*Y145900D01*
X452100D01*
Y149100D02*Y145900D01*
X510500Y150700D02*Y144300D01*
X507300Y147500D02*X513700D01*
X508900Y149100D02*X512100D01*
X508900D02*Y145900D01*
X512100D01*
Y149100D02*Y145900D01*
X490500Y150700D02*Y144300D01*
X487300Y147500D02*X493700D01*
X488900Y149100D02*X492100D01*
X488900D02*Y145900D01*
X492100D01*
Y149100D02*Y145900D01*
X490500Y25700D02*Y19300D01*
X487300Y22500D02*X493700D01*
X488900Y24100D02*X492100D01*
X488900D02*Y20900D01*
X492100D01*
Y24100D02*Y20900D01*
X510500Y25700D02*Y19300D01*
X507300Y22500D02*X513700D01*
X508900Y24100D02*X512100D01*
X508900D02*Y20900D01*
X512100D01*
Y24100D02*Y20900D01*
X50500Y25700D02*Y19300D01*
X47300Y22500D02*X53700D01*
X48900Y24100D02*X52100D01*
X48900D02*Y20900D01*
X52100D01*
Y24100D02*Y20900D01*
X70500Y25700D02*Y19300D01*
X67300Y22500D02*X73700D01*
X68900Y24100D02*X72100D01*
X68900D02*Y20900D01*
X72100D01*
Y24100D02*Y20900D01*
X250500Y25700D02*Y19300D01*
X247300Y22500D02*X253700D01*
X248900Y24100D02*X252100D01*
X248900D02*Y20900D01*
X252100D01*
Y24100D02*Y20900D01*
X270500Y25700D02*Y19300D01*
X267300Y22500D02*X273700D01*
X268900Y24100D02*X272100D01*
X268900D02*Y20900D01*
X272100D01*
Y24100D02*Y20900D01*
X70500Y150700D02*Y144300D01*
X67300Y147500D02*X73700D01*
X68900Y149100D02*X72100D01*
X68900D02*Y145900D01*
X72100D01*
Y149100D02*Y145900D01*
X50500Y150700D02*Y144300D01*
X47300Y147500D02*X53700D01*
X48900Y149100D02*X52100D01*
X48900D02*Y145900D01*
X52100D01*
Y149100D02*Y145900D01*
X370500Y25700D02*Y19300D01*
X367300Y22500D02*X373700D01*
X368900Y24100D02*X372100D01*
X368900D02*Y20900D01*
X372100D01*
Y24100D02*Y20900D01*
X390500Y25700D02*Y19300D01*
X387300Y22500D02*X393700D01*
X388900Y24100D02*X392100D01*
X388900D02*Y20900D01*
X392100D01*
Y24100D02*Y20900D01*
X90500Y25700D02*Y19300D01*
X87300Y22500D02*X93700D01*
X88900Y24100D02*X92100D01*
X88900D02*Y20900D01*
X92100D01*
Y24100D02*Y20900D01*
X110500Y25700D02*Y19300D01*
X107300Y22500D02*X113700D01*
X108900Y24100D02*X112100D01*
X108900D02*Y20900D01*
X112100D01*
Y24100D02*Y20900D01*
X170500Y25700D02*Y19300D01*
X167300Y22500D02*X173700D01*
X168900Y24100D02*X172100D01*
X168900D02*Y20900D01*
X172100D01*
Y24100D02*Y20900D01*
X190500Y25700D02*Y19300D01*
X187300Y22500D02*X193700D01*
X188900Y24100D02*X192100D01*
X188900D02*Y20900D01*
X192100D01*
Y24100D02*Y20900D01*
X130500Y25700D02*Y19300D01*
X127300Y22500D02*X133700D01*
X128900Y24100D02*X132100D01*
X128900D02*Y20900D01*
X132100D01*
Y24100D02*Y20900D01*
X150500Y25700D02*Y19300D01*
X147300Y22500D02*X153700D01*
X148900Y24100D02*X152100D01*
X148900D02*Y20900D01*
X152100D01*
Y24100D02*Y20900D01*
X210500Y25700D02*Y19300D01*
X207300Y22500D02*X213700D01*
X208900Y24100D02*X212100D01*
X208900D02*Y20900D01*
X212100D01*
Y24100D02*Y20900D01*
X230500Y25700D02*Y19300D01*
X227300Y22500D02*X233700D01*
X228900Y24100D02*X232100D01*
X228900D02*Y20900D01*
X232100D01*
Y24100D02*Y20900D01*
X230500Y150700D02*Y144300D01*
X227300Y147500D02*X233700D01*
X228900Y149100D02*X232100D01*
X228900D02*Y145900D01*
X232100D01*
Y149100D02*Y145900D01*
X210500Y150700D02*Y144300D01*
X207300Y147500D02*X213700D01*
X208900Y149100D02*X212100D01*
X208900D02*Y145900D01*
X212100D01*
Y149100D02*Y145900D01*
X330500Y25700D02*Y19300D01*
X327300Y22500D02*X333700D01*
X328900Y24100D02*X332100D01*
X328900D02*Y20900D01*
X332100D01*
Y24100D02*Y20900D01*
X350500Y25700D02*Y19300D01*
X347300Y22500D02*X353700D01*
X348900Y24100D02*X352100D01*
X348900D02*Y20900D01*
X352100D01*
Y24100D02*Y20900D01*
X450500Y25700D02*Y19300D01*
X447300Y22500D02*X453700D01*
X448900Y24100D02*X452100D01*
X448900D02*Y20900D01*
X452100D01*
Y24100D02*Y20900D01*
X470500Y25700D02*Y19300D01*
X467300Y22500D02*X473700D01*
X468900Y24100D02*X472100D01*
X468900D02*Y20900D01*
X472100D01*
Y24100D02*Y20900D01*
X390500Y150700D02*Y144300D01*
X387300Y147500D02*X393700D01*
X388900Y149100D02*X392100D01*
X388900D02*Y145900D01*
X392100D01*
Y149100D02*Y145900D01*
X370500Y150700D02*Y144300D01*
X367300Y147500D02*X373700D01*
X368900Y149100D02*X372100D01*
X368900D02*Y145900D01*
X372100D01*
Y149100D02*Y145900D01*
X270500Y150700D02*Y144300D01*
X267300Y147500D02*X273700D01*
X268900Y149100D02*X272100D01*
X268900D02*Y145900D01*
X272100D01*
Y149100D02*Y145900D01*
X250500Y150700D02*Y144300D01*
X247300Y147500D02*X253700D01*
X248900Y149100D02*X252100D01*
X248900D02*Y145900D01*
X252100D01*
Y149100D02*Y145900D01*
X22500Y98200D02*Y91800D01*
X19300Y95000D02*X25700D01*
X20900Y96600D02*X24100D01*
X20900D02*Y93400D01*
X24100D01*
Y96600D02*Y93400D01*
X22500Y78200D02*Y71800D01*
X19300Y75000D02*X25700D01*
X20900Y76600D02*X24100D01*
X20900D02*Y73400D01*
X24100D01*
Y76600D02*Y73400D01*
X350500Y150700D02*Y144300D01*
X347300Y147500D02*X353700D01*
X348900Y149100D02*X352100D01*
X348900D02*Y145900D01*
X352100D01*
Y149100D02*Y145900D01*
X330500Y150700D02*Y144300D01*
X327300Y147500D02*X333700D01*
X328900Y149100D02*X332100D01*
X328900D02*Y145900D01*
X332100D01*
Y149100D02*Y145900D01*
X310500Y150700D02*Y144300D01*
X307300Y147500D02*X313700D01*
X308900Y149100D02*X312100D01*
X308900D02*Y145900D01*
X312100D01*
Y149100D02*Y145900D01*
X290500Y150700D02*Y144300D01*
X287300Y147500D02*X293700D01*
X288900Y149100D02*X292100D01*
X288900D02*Y145900D01*
X292100D01*
Y149100D02*Y145900D01*
X430500Y150700D02*Y144300D01*
X427300Y147500D02*X433700D01*
X428900Y149100D02*X432100D01*
X428900D02*Y145900D01*
X432100D01*
Y149100D02*Y145900D01*
X410500Y150700D02*Y144300D01*
X407300Y147500D02*X413700D01*
X408900Y149100D02*X412100D01*
X408900D02*Y145900D01*
X412100D01*
Y149100D02*Y145900D01*
X110500Y150700D02*Y144300D01*
X107300Y147500D02*X113700D01*
X108900Y149100D02*X112100D01*
X108900D02*Y145900D01*
X112100D01*
Y149100D02*Y145900D01*
X90500Y150700D02*Y144300D01*
X87300Y147500D02*X93700D01*
X88900Y149100D02*X92100D01*
X88900D02*Y145900D01*
X92100D01*
Y149100D02*Y145900D01*
X190500Y150700D02*Y144300D01*
X187300Y147500D02*X193700D01*
X188900Y149100D02*X192100D01*
X188900D02*Y145900D01*
X192100D01*
Y149100D02*Y145900D01*
X170500Y150700D02*Y144300D01*
X167300Y147500D02*X173700D01*
X168900Y149100D02*X172100D01*
X168900D02*Y145900D01*
X172100D01*
Y149100D02*Y145900D01*
X10500Y25700D02*Y19300D01*
X7300Y22500D02*X13700D01*
X8900Y24100D02*X12100D01*
X8900D02*Y20900D01*
X12100D01*
Y24100D02*Y20900D01*
X30500Y25700D02*Y19300D01*
X27300Y22500D02*X33700D01*
X28900Y24100D02*X32100D01*
X28900D02*Y20900D01*
X32100D01*
Y24100D02*Y20900D01*
X530500Y25700D02*Y19300D01*
X527300Y22500D02*X533700D01*
X528900Y24100D02*X532100D01*
X528900D02*Y20900D01*
X532100D01*
Y24100D02*Y20900D01*
X550500Y25700D02*Y19300D01*
X547300Y22500D02*X553700D01*
X548900Y24100D02*X552100D01*
X548900D02*Y20900D01*
X552100D01*
Y24100D02*Y20900D01*
X550500Y150700D02*Y144300D01*
X547300Y147500D02*X553700D01*
X548900Y149100D02*X552100D01*
X548900D02*Y145900D01*
X552100D01*
Y149100D02*Y145900D01*
X530500Y150700D02*Y144300D01*
X527300Y147500D02*X533700D01*
X528900Y149100D02*X532100D01*
X528900D02*Y145900D01*
X532100D01*
Y149100D02*Y145900D01*
X579500Y140700D02*Y134300D01*
X576300Y137500D02*X582700D01*
X577900Y139100D02*X581100D01*
X577900D02*Y135900D01*
X581100D01*
Y139100D02*Y135900D01*
X579500Y160700D02*Y154300D01*
X576300Y157500D02*X582700D01*
X577900Y159100D02*X581100D01*
X577900D02*Y155900D01*
X581100D01*
Y159100D02*Y155900D01*
X579500Y100700D02*Y94300D01*
X576300Y97500D02*X582700D01*
X577900Y99100D02*X581100D01*
X577900D02*Y95900D01*
X581100D01*
Y99100D02*Y95900D01*
X579500Y120700D02*Y114300D01*
X576300Y117500D02*X582700D01*
X577900Y119100D02*X581100D01*
X577900D02*Y115900D01*
X581100D01*
Y119100D02*Y115900D01*
X410500Y25700D02*Y19300D01*
X407300Y22500D02*X413700D01*
X408900Y24100D02*X412100D01*
X408900D02*Y20900D01*
X412100D01*
Y24100D02*Y20900D01*
X430500Y25700D02*Y19300D01*
X427300Y22500D02*X433700D01*
X428900Y24100D02*X432100D01*
X428900D02*Y20900D01*
X432100D01*
Y24100D02*Y20900D01*
X15000Y214450D02*Y208050D01*
X11800Y211250D02*X18200D01*
X13400Y212850D02*X16600D01*
X13400D02*Y209650D01*
X16600D01*
Y212850D02*Y209650D01*
X135000Y213500D02*Y212750D01*
X136500Y211250D01*
X138000Y212750D01*
Y213500D02*Y212750D01*
X136500Y211250D02*Y207500D01*
X139800Y210500D02*X142050D01*
X139800Y207500D02*X142800D01*
X139800Y213500D02*Y207500D01*
Y213500D02*X142800D01*
X147600D02*X148350Y212750D01*
X145350Y213500D02*X147600D01*
X144600Y212750D02*X145350Y213500D01*
X144600Y212750D02*Y211250D01*
X145350Y210500D01*
X147600D01*
X148350Y209750D01*
Y208250D01*
X147600Y207500D02*X148350Y208250D01*
X145350Y207500D02*X147600D01*
X144600Y208250D02*X145350Y207500D01*
X100250Y213500D02*X101000Y212750D01*
X98750Y213500D02*X100250D01*
X98000Y212750D02*X98750Y213500D01*
X98000Y212750D02*Y208250D01*
X98750Y207500D01*
X100250Y210500D02*X101000Y209750D01*
X98000Y210500D02*X100250D01*
X98750Y207500D02*X100250D01*
X101000Y208250D01*
Y209750D02*Y208250D01*
X102800Y212750D02*X103550Y213500D01*
X105800D01*
X106550Y212750D01*
Y211250D01*
X102800Y207500D02*X106550Y211250D01*
X102800Y207500D02*X106550D01*
X45000Y208250D02*X45750Y207500D01*
X45000Y212750D02*Y208250D01*
Y212750D02*X45750Y213500D01*
X47250D01*
X48000Y212750D01*
Y208250D01*
X47250Y207500D02*X48000Y208250D01*
X45750Y207500D02*X47250D01*
X45000Y209000D02*X48000Y212000D01*
X49800Y207500D02*X50550D01*
X52350Y208250D02*X53100Y207500D01*
X52350Y212750D02*Y208250D01*
Y212750D02*X53100Y213500D01*
X54600D01*
X55350Y212750D01*
Y208250D01*
X54600Y207500D02*X55350Y208250D01*
X53100Y207500D02*X54600D01*
X52350Y209000D02*X55350Y212000D01*
X57150Y210500D02*X60150Y213500D01*
X57150Y210500D02*X60900D01*
X60150Y213500D02*Y207500D01*
X62700Y208250D02*X63450Y207500D01*
X62700Y209750D02*Y208250D01*
Y209750D02*X63450Y210500D01*
X64950D01*
X65700Y209750D01*
Y208250D01*
X64950Y207500D02*X65700Y208250D01*
X63450Y207500D02*X64950D01*
X62700Y211250D02*X63450Y210500D01*
X62700Y212750D02*Y211250D01*
Y212750D02*X63450Y213500D01*
X64950D01*
X65700Y212750D01*
Y211250D01*
X64950Y210500D02*X65700Y211250D01*
X186500Y86500D02*Y83300D01*
Y86500D02*X189273Y88100D01*
X186500Y86500D02*X183727Y88100D01*
X184900Y86500D02*G75*G03X188100Y86500I1600J0D01*G01*
G75*G03X184900Y86500I-1600J0D01*G01*
X176500D02*Y83300D01*
Y86500D02*X179273Y88100D01*
X176500Y86500D02*X173727Y88100D01*
X174900Y86500D02*G75*G03X178100Y86500I1600J0D01*G01*
G75*G03X174900Y86500I-1600J0D01*G01*
X166500D02*Y83300D01*
Y86500D02*X169273Y88100D01*
X166500Y86500D02*X163727Y88100D01*
X164900Y86500D02*G75*G03X168100Y86500I1600J0D01*G01*
G75*G03X164900Y86500I-1600J0D01*G01*
X15000Y226250D02*Y223050D01*
Y226250D02*X17773Y227850D01*
X15000Y226250D02*X12227Y227850D01*
X13400Y226250D02*G75*G03X16600Y226250I1600J0D01*G01*
G75*G03X13400Y226250I-1600J0D01*G01*
X135000Y228500D02*Y227750D01*
X136500Y226250D01*
X138000Y227750D01*
Y228500D02*Y227750D01*
X136500Y226250D02*Y222500D01*
X139800Y225500D02*X142050D01*
X139800Y222500D02*X142800D01*
X139800Y228500D02*Y222500D01*
Y228500D02*X142800D01*
X147600D02*X148350Y227750D01*
X145350Y228500D02*X147600D01*
X144600Y227750D02*X145350Y228500D01*
X144600Y227750D02*Y226250D01*
X145350Y225500D01*
X147600D01*
X148350Y224750D01*
Y223250D01*
X147600Y222500D02*X148350Y223250D01*
X145350Y222500D02*X147600D01*
X144600Y223250D02*X145350Y222500D01*
X98000Y227750D02*X98750Y228500D01*
X100250D01*
X101000Y227750D01*
Y223250D01*
X100250Y222500D02*X101000Y223250D01*
X98750Y222500D02*X100250D01*
X98000Y223250D02*X98750Y222500D01*
Y225500D02*X101000D01*
X45000Y223250D02*X45750Y222500D01*
X45000Y227750D02*Y223250D01*
Y227750D02*X45750Y228500D01*
X47250D01*
X48000Y227750D01*
Y223250D01*
X47250Y222500D02*X48000Y223250D01*
X45750Y222500D02*X47250D01*
X45000Y224000D02*X48000Y227000D01*
X49800Y222500D02*X50550D01*
X52350Y223250D02*X53100Y222500D01*
X52350Y227750D02*Y223250D01*
Y227750D02*X53100Y228500D01*
X54600D01*
X55350Y227750D01*
Y223250D01*
X54600Y222500D02*X55350Y223250D01*
X53100Y222500D02*X54600D01*
X52350Y224000D02*X55350Y227000D01*
X57150Y225500D02*X60150Y228500D01*
X57150Y225500D02*X60900D01*
X60150Y228500D02*Y222500D01*
X62700Y228500D02*X65700D01*
X62700D02*Y225500D01*
X63450Y226250D01*
X64950D01*
X65700Y225500D01*
Y223250D01*
X64950Y222500D02*X65700Y223250D01*
X63450Y222500D02*X64950D01*
X62700Y223250D02*X63450Y222500D01*
X374400Y109100D02*X377600D01*
X374400D02*Y105900D01*
X377600D01*
Y109100D02*Y105900D01*
X364400Y109100D02*X367600D01*
X364400D02*Y105900D01*
X367600D01*
Y109100D02*Y105900D01*
X378400Y67100D02*X381600D01*
X378400D02*Y63900D01*
X381600D01*
Y67100D02*Y63900D01*
X378400Y77100D02*X381600D01*
X378400D02*Y73900D01*
X381600D01*
Y77100D02*Y73900D01*
X378400Y87100D02*X381600D01*
X378400D02*Y83900D01*
X381600D01*
Y87100D02*Y83900D01*
X368400Y67100D02*X371600D01*
X368400D02*Y63900D01*
X371600D01*
Y67100D02*Y63900D01*
X368400Y77100D02*X371600D01*
X368400D02*Y73900D01*
X371600D01*
Y77100D02*Y73900D01*
X368400Y87100D02*X371600D01*
X368400D02*Y83900D01*
X371600D01*
Y87100D02*Y83900D01*
X13400Y242850D02*X16600D01*
X13400D02*Y239650D01*
X16600D01*
Y242850D02*Y239650D01*
X135000Y243500D02*Y242750D01*
X136500Y241250D01*
X138000Y242750D01*
Y243500D02*Y242750D01*
X136500Y241250D02*Y237500D01*
X139800Y240500D02*X142050D01*
X139800Y237500D02*X142800D01*
X139800Y243500D02*Y237500D01*
Y243500D02*X142800D01*
X147600D02*X148350Y242750D01*
X145350Y243500D02*X147600D01*
X144600Y242750D02*X145350Y243500D01*
X144600Y242750D02*Y241250D01*
X145350Y240500D01*
X147600D01*
X148350Y239750D01*
Y238250D01*
X147600Y237500D02*X148350Y238250D01*
X145350Y237500D02*X147600D01*
X144600Y238250D02*X145350Y237500D01*
X98000Y238250D02*X98750Y237500D01*
X98000Y239750D02*Y238250D01*
Y239750D02*X98750Y240500D01*
X100250D01*
X101000Y239750D01*
Y238250D01*
X100250Y237500D02*X101000Y238250D01*
X98750Y237500D02*X100250D01*
X98000Y241250D02*X98750Y240500D01*
X98000Y242750D02*Y241250D01*
Y242750D02*X98750Y243500D01*
X100250D01*
X101000Y242750D01*
Y241250D01*
X100250Y240500D02*X101000Y241250D01*
X45000Y238250D02*X45750Y237500D01*
X45000Y242750D02*Y238250D01*
Y242750D02*X45750Y243500D01*
X47250D01*
X48000Y242750D01*
Y238250D01*
X47250Y237500D02*X48000Y238250D01*
X45750Y237500D02*X47250D01*
X45000Y239000D02*X48000Y242000D01*
X49800Y237500D02*X50550D01*
X52350Y238250D02*X53100Y237500D01*
X52350Y242750D02*Y238250D01*
Y242750D02*X53100Y243500D01*
X54600D01*
X55350Y242750D01*
Y238250D01*
X54600Y237500D02*X55350Y238250D01*
X53100Y237500D02*X54600D01*
X52350Y239000D02*X55350Y242000D01*
X57150Y242750D02*X57900Y243500D01*
X59400D01*
X60150Y242750D01*
Y238250D01*
X59400Y237500D02*X60150Y238250D01*
X57900Y237500D02*X59400D01*
X57150Y238250D02*X57900Y237500D01*
Y240500D02*X60150D01*
X61950Y238250D02*X62700Y237500D01*
X61950Y239750D02*Y238250D01*
Y239750D02*X62700Y240500D01*
X64200D01*
X64950Y239750D01*
Y238250D01*
X64200Y237500D02*X64950Y238250D01*
X62700Y237500D02*X64200D01*
X61950Y241250D02*X62700Y240500D01*
X61950Y242750D02*Y241250D01*
Y242750D02*X62700Y243500D01*
X64200D01*
X64950Y242750D01*
Y241250D01*
X64200Y240500D02*X64950Y241250D01*
X293700Y72000D02*G75*G03X295300Y72000I800J0D01*G01*
G75*G03X293700Y72000I-800J0D01*G01*
X303700Y77000D02*G75*G03X305300Y77000I800J0D01*G01*
G75*G03X303700Y77000I-800J0D01*G01*
X293700Y82000D02*G75*G03X295300Y82000I800J0D01*G01*
G75*G03X293700Y82000I-800J0D01*G01*
X303700Y87000D02*G75*G03X305300Y87000I800J0D01*G01*
G75*G03X303700Y87000I-800J0D01*G01*
X293700Y92000D02*G75*G03X295300Y92000I800J0D01*G01*
G75*G03X293700Y92000I-800J0D01*G01*
X303700Y97000D02*G75*G03X305300Y97000I800J0D01*G01*
G75*G03X303700Y97000I-800J0D01*G01*
X14200Y256250D02*G75*G03X15800Y256250I800J0D01*G01*
G75*G03X14200Y256250I-800J0D01*G01*
X135000Y258500D02*Y257750D01*
X136500Y256250D01*
X138000Y257750D01*
Y258500D02*Y257750D01*
X136500Y256250D02*Y252500D01*
X139800Y255500D02*X142050D01*
X139800Y252500D02*X142800D01*
X139800Y258500D02*Y252500D01*
Y258500D02*X142800D01*
X147600D02*X148350Y257750D01*
X145350Y258500D02*X147600D01*
X144600Y257750D02*X145350Y258500D01*
X144600Y257750D02*Y256250D01*
X145350Y255500D01*
X147600D01*
X148350Y254750D01*
Y253250D01*
X147600Y252500D02*X148350Y253250D01*
X145350Y252500D02*X147600D01*
X144600Y253250D02*X145350Y252500D01*
X100250Y258500D02*X101000Y257750D01*
X98750Y258500D02*X100250D01*
X98000Y257750D02*X98750Y258500D01*
X98000Y257750D02*Y253250D01*
X98750Y252500D01*
X100250Y255500D02*X101000Y254750D01*
X98000Y255500D02*X100250D01*
X98750Y252500D02*X100250D01*
X101000Y253250D01*
Y254750D02*Y253250D01*
X45000D02*X45750Y252500D01*
X45000Y257750D02*Y253250D01*
Y257750D02*X45750Y258500D01*
X47250D01*
X48000Y257750D01*
Y253250D01*
X47250Y252500D02*X48000Y253250D01*
X45750Y252500D02*X47250D01*
X45000Y254000D02*X48000Y257000D01*
X49800Y252500D02*X50550D01*
X52350Y253250D02*X53100Y252500D01*
X52350Y257750D02*Y253250D01*
Y257750D02*X53100Y258500D01*
X54600D01*
X55350Y257750D01*
Y253250D01*
X54600Y252500D02*X55350Y253250D01*
X53100Y252500D02*X54600D01*
X52350Y254000D02*X55350Y257000D01*
X57150Y257750D02*X57900Y258500D01*
X59400D01*
X60150Y257750D01*
Y253250D01*
X59400Y252500D02*X60150Y253250D01*
X57900Y252500D02*X59400D01*
X57150Y253250D02*X57900Y252500D01*
Y255500D02*X60150D01*
X61950Y258500D02*X64950D01*
X61950D02*Y255500D01*
X62700Y256250D01*
X64200D01*
X64950Y255500D01*
Y253250D01*
X64200Y252500D02*X64950Y253250D01*
X62700Y252500D02*X64200D01*
X61950Y253250D02*X62700Y252500D01*
X91800Y124700D02*X94200Y122300D01*
X91800D02*X94200Y124700D01*
X86800Y134700D02*X89200Y132300D01*
X86800D02*X89200Y134700D01*
X81800Y124700D02*X84200Y122300D01*
X81800D02*X84200Y124700D01*
X76800Y134700D02*X79200Y132300D01*
X76800D02*X79200Y134700D01*
X71800Y124700D02*X74200Y122300D01*
X71800D02*X74200Y124700D01*
X66800Y134700D02*X69200Y132300D01*
X66800D02*X69200Y134700D01*
X266800Y47700D02*X269200Y45300D01*
X266800D02*X269200Y47700D01*
X271800Y37700D02*X274200Y35300D01*
X271800D02*X274200Y37700D01*
X276800Y47700D02*X279200Y45300D01*
X276800D02*X279200Y47700D01*
X281800Y37700D02*X284200Y35300D01*
X281800D02*X284200Y37700D01*
X286800Y47700D02*X289200Y45300D01*
X286800D02*X289200Y47700D01*
X291800Y37700D02*X294200Y35300D01*
X291800D02*X294200Y37700D01*
X66800Y47700D02*X69200Y45300D01*
X66800D02*X69200Y47700D01*
X71800Y37700D02*X74200Y35300D01*
X71800D02*X74200Y37700D01*
X76800Y47700D02*X79200Y45300D01*
X76800D02*X79200Y47700D01*
X81800Y37700D02*X84200Y35300D01*
X81800D02*X84200Y37700D01*
X86800Y47700D02*X89200Y45300D01*
X86800D02*X89200Y47700D01*
X91800Y37700D02*X94200Y35300D01*
X91800D02*X94200Y37700D01*
X346800Y47700D02*X349200Y45300D01*
X346800D02*X349200Y47700D01*
X351800Y37700D02*X354200Y35300D01*
X351800D02*X354200Y37700D01*
X356800Y47700D02*X359200Y45300D01*
X356800D02*X359200Y47700D01*
X361800Y37700D02*X364200Y35300D01*
X361800D02*X364200Y37700D01*
X366800Y47700D02*X369200Y45300D01*
X366800D02*X369200Y47700D01*
X371800Y37700D02*X374200Y35300D01*
X371800D02*X374200Y37700D01*
X146800Y47700D02*X149200Y45300D01*
X146800D02*X149200Y47700D01*
X151800Y37700D02*X154200Y35300D01*
X151800D02*X154200Y37700D01*
X156800Y47700D02*X159200Y45300D01*
X156800D02*X159200Y47700D01*
X161800Y37700D02*X164200Y35300D01*
X161800D02*X164200Y37700D01*
X166800Y47700D02*X169200Y45300D01*
X166800D02*X169200Y47700D01*
X171800Y37700D02*X174200Y35300D01*
X171800D02*X174200Y37700D01*
X371800Y124700D02*X374200Y122300D01*
X371800D02*X374200Y124700D01*
X366800Y134700D02*X369200Y132300D01*
X366800D02*X369200Y134700D01*
X361800Y124700D02*X364200Y122300D01*
X361800D02*X364200Y124700D01*
X356800Y134700D02*X359200Y132300D01*
X356800D02*X359200Y134700D01*
X351800Y124700D02*X354200Y122300D01*
X351800D02*X354200Y124700D01*
X346800Y134700D02*X349200Y132300D01*
X346800D02*X349200Y134700D01*
X291800Y124700D02*X294200Y122300D01*
X291800D02*X294200Y124700D01*
X286800Y134700D02*X289200Y132300D01*
X286800D02*X289200Y134700D01*
X281800Y124700D02*X284200Y122300D01*
X281800D02*X284200Y124700D01*
X276800Y134700D02*X279200Y132300D01*
X276800D02*X279200Y134700D01*
X271800Y124700D02*X274200Y122300D01*
X271800D02*X274200Y124700D01*
X266800Y134700D02*X269200Y132300D01*
X266800D02*X269200Y134700D01*
X171800Y124700D02*X174200Y122300D01*
X171800D02*X174200Y124700D01*
X166800Y134700D02*X169200Y132300D01*
X166800D02*X169200Y134700D01*
X161800Y124700D02*X164200Y122300D01*
X161800D02*X164200Y124700D01*
X156800Y134700D02*X159200Y132300D01*
X156800D02*X159200Y134700D01*
X151800Y124700D02*X154200Y122300D01*
X151800D02*X154200Y124700D01*
X146800Y134700D02*X149200Y132300D01*
X146800D02*X149200Y134700D01*
X13800Y272450D02*X16200Y270050D01*
X13800D02*X16200Y272450D01*
X135000Y273500D02*Y272750D01*
X136500Y271250D01*
X138000Y272750D01*
Y273500D02*Y272750D01*
X136500Y271250D02*Y267500D01*
X139800Y270500D02*X142050D01*
X139800Y267500D02*X142800D01*
X139800Y273500D02*Y267500D01*
Y273500D02*X142800D01*
X147600D02*X148350Y272750D01*
X145350Y273500D02*X147600D01*
X144600Y272750D02*X145350Y273500D01*
X144600Y272750D02*Y271250D01*
X145350Y270500D01*
X147600D01*
X148350Y269750D01*
Y268250D01*
X147600Y267500D02*X148350Y268250D01*
X145350Y267500D02*X147600D01*
X144600Y268250D02*X145350Y267500D01*
X98000Y270500D02*X101000Y273500D01*
X98000Y270500D02*X101750D01*
X101000Y273500D02*Y267500D01*
X103550Y268250D02*X104300Y267500D01*
X103550Y269750D02*Y268250D01*
Y269750D02*X104300Y270500D01*
X105800D01*
X106550Y269750D01*
Y268250D01*
X105800Y267500D02*X106550Y268250D01*
X104300Y267500D02*X105800D01*
X103550Y271250D02*X104300Y270500D01*
X103550Y272750D02*Y271250D01*
Y272750D02*X104300Y273500D01*
X105800D01*
X106550Y272750D01*
Y271250D01*
X105800Y270500D02*X106550Y271250D01*
X45000Y268250D02*X45750Y267500D01*
X45000Y272750D02*Y268250D01*
Y272750D02*X45750Y273500D01*
X47250D01*
X48000Y272750D01*
Y268250D01*
X47250Y267500D02*X48000Y268250D01*
X45750Y267500D02*X47250D01*
X45000Y269000D02*X48000Y272000D01*
X49800Y267500D02*X50550D01*
X52350Y268250D02*X53100Y267500D01*
X52350Y272750D02*Y268250D01*
Y272750D02*X53100Y273500D01*
X54600D01*
X55350Y272750D01*
Y268250D01*
X54600Y267500D02*X55350Y268250D01*
X53100Y267500D02*X54600D01*
X52350Y269000D02*X55350Y272000D01*
X57150Y272750D02*X57900Y273500D01*
X59400D01*
X60150Y272750D01*
Y268250D01*
X59400Y267500D02*X60150Y268250D01*
X57900Y267500D02*X59400D01*
X57150Y268250D02*X57900Y267500D01*
Y270500D02*X60150D01*
X61950Y268250D02*X62700Y267500D01*
X61950Y272750D02*Y268250D01*
Y272750D02*X62700Y273500D01*
X64200D01*
X64950Y272750D01*
Y268250D01*
X64200Y267500D02*X64950Y268250D01*
X62700Y267500D02*X64200D01*
X61950Y269000D02*X64950Y272000D01*
X512500Y124600D02*Y121400D01*
X510900Y123000D02*X514100D01*
X512500Y114600D02*Y111400D01*
X510900Y113000D02*X514100D01*
X512500Y104600D02*Y101400D01*
X510900Y103000D02*X514100D01*
X512500Y94600D02*Y91400D01*
X510900Y93000D02*X514100D01*
X542500Y94600D02*Y91400D01*
X540900Y93000D02*X544100D01*
X542500Y104600D02*Y101400D01*
X540900Y103000D02*X544100D01*
X542500Y114600D02*Y111400D01*
X540900Y113000D02*X544100D01*
X542500Y124600D02*Y121400D01*
X540900Y123000D02*X544100D01*
X15000Y287850D02*Y284650D01*
X13400Y286250D02*X16600D01*
X135000Y288500D02*Y287750D01*
X136500Y286250D01*
X138000Y287750D01*
Y288500D02*Y287750D01*
X136500Y286250D02*Y282500D01*
X139800Y285500D02*X142050D01*
X139800Y282500D02*X142800D01*
X139800Y288500D02*Y282500D01*
Y288500D02*X142800D01*
X147600D02*X148350Y287750D01*
X145350Y288500D02*X147600D01*
X144600Y287750D02*X145350Y288500D01*
X144600Y287750D02*Y286250D01*
X145350Y285500D01*
X147600D01*
X148350Y284750D01*
Y283250D01*
X147600Y282500D02*X148350Y283250D01*
X145350Y282500D02*X147600D01*
X144600Y283250D02*X145350Y282500D01*
X98000Y283250D02*X98750Y282500D01*
X98000Y284750D02*Y283250D01*
Y284750D02*X98750Y285500D01*
X100250D01*
X101000Y284750D01*
Y283250D01*
X100250Y282500D02*X101000Y283250D01*
X98750Y282500D02*X100250D01*
X98000Y286250D02*X98750Y285500D01*
X98000Y287750D02*Y286250D01*
Y287750D02*X98750Y288500D01*
X100250D01*
X101000Y287750D01*
Y286250D01*
X100250Y285500D02*X101000Y286250D01*
X45000Y283250D02*X45750Y282500D01*
X45000Y287750D02*Y283250D01*
Y287750D02*X45750Y288500D01*
X47250D01*
X48000Y287750D01*
Y283250D01*
X47250Y282500D02*X48000Y283250D01*
X45750Y282500D02*X47250D01*
X45000Y284000D02*X48000Y287000D01*
X49800Y282500D02*X50550D01*
X52350Y283250D02*X53100Y282500D01*
X52350Y287750D02*Y283250D01*
Y287750D02*X53100Y288500D01*
X54600D01*
X55350Y287750D01*
Y283250D01*
X54600Y282500D02*X55350Y283250D01*
X53100Y282500D02*X54600D01*
X52350Y284000D02*X55350Y287000D01*
X57150Y287750D02*X57900Y288500D01*
X60150D01*
X60900Y287750D01*
Y286250D01*
X57150Y282500D02*X60900Y286250D01*
X57150Y282500D02*X60900D01*
X62700Y283250D02*X63450Y282500D01*
X62700Y284750D02*Y283250D01*
Y284750D02*X63450Y285500D01*
X64950D01*
X65700Y284750D01*
Y283250D01*
X64950Y282500D02*X65700Y283250D01*
X63450Y282500D02*X64950D01*
X62700Y286250D02*X63450Y285500D01*
X62700Y287750D02*Y286250D01*
Y287750D02*X63450Y288500D01*
X64950D01*
X65700Y287750D01*
Y286250D01*
X64950Y285500D02*X65700Y286250D01*
X423106Y118000D02*Y116400D01*
Y118000D02*X424493Y118800D01*
X423106Y118000D02*X421719Y118800D01*
X403894Y118000D02*Y116400D01*
Y118000D02*X405281Y118800D01*
X403894Y118000D02*X402507Y118800D01*
X255500Y28500D02*Y26900D01*
Y28500D02*X256887Y29300D01*
X255500Y28500D02*X254113Y29300D01*
X248000Y94000D02*Y92400D01*
Y94000D02*X249387Y94800D01*
X248000Y94000D02*X246613Y94800D01*
X262000Y76000D02*Y74400D01*
Y76000D02*X263387Y76800D01*
X262000Y76000D02*X260613Y76800D01*
X192000Y66500D02*Y64900D01*
Y66500D02*X193387Y67300D01*
X192000Y66500D02*X190613Y67300D01*
X207500Y66500D02*Y64900D01*
Y66500D02*X208887Y67300D01*
X207500Y66500D02*X206113Y67300D01*
X192000Y71000D02*Y69400D01*
Y71000D02*X193387Y71800D01*
X192000Y71000D02*X190613Y71800D01*
X192000Y75500D02*Y73900D01*
Y75500D02*X193387Y76300D01*
X192000Y75500D02*X190613Y76300D01*
X207500Y71000D02*Y69400D01*
Y71000D02*X208887Y71800D01*
X207500Y71000D02*X206113Y71800D01*
X228500Y76500D02*Y74900D01*
Y76500D02*X229887Y77300D01*
X228500Y76500D02*X227113Y77300D01*
X233000Y76500D02*Y74900D01*
Y76500D02*X234387Y77300D01*
X233000Y76500D02*X231613Y77300D01*
X186000Y38000D02*Y36400D01*
Y38000D02*X187387Y38800D01*
X186000Y38000D02*X184613Y38800D01*
X179000Y31000D02*Y29400D01*
Y31000D02*X180387Y31800D01*
X179000Y31000D02*X177613Y31800D01*
X182500Y34500D02*Y32900D01*
Y34500D02*X183887Y35300D01*
X182500Y34500D02*X181113Y35300D01*
X183000Y41500D02*Y39900D01*
Y41500D02*X184387Y42300D01*
X183000Y41500D02*X181613Y42300D01*
X183000Y46000D02*Y44400D01*
Y46000D02*X184387Y46800D01*
X183000Y46000D02*X181613Y46800D01*
X195000Y42500D02*Y40900D01*
Y42500D02*X196387Y43300D01*
X195000Y42500D02*X193613Y43300D01*
X191500Y46000D02*Y44400D01*
Y46000D02*X192887Y46800D01*
X191500Y46000D02*X190113Y46800D01*
X228500Y93500D02*Y91900D01*
Y93500D02*X229887Y94300D01*
X228500Y93500D02*X227113Y94300D01*
X233000Y93500D02*Y91900D01*
Y93500D02*X234387Y94300D01*
X233000Y93500D02*X231613Y94300D01*
X137500Y121500D02*Y119900D01*
Y121500D02*X138887Y122300D01*
X137500Y121500D02*X136113Y122300D01*
X140000Y117500D02*Y115900D01*
Y117500D02*X141387Y118300D01*
X140000Y117500D02*X138613Y118300D01*
X137500Y113500D02*Y111900D01*
Y113500D02*X138887Y114300D01*
X137500Y113500D02*X136113Y114300D01*
X140000Y109500D02*Y107900D01*
Y109500D02*X141387Y110300D01*
X140000Y109500D02*X138613Y110300D01*
X244000Y126500D02*Y124900D01*
Y126500D02*X245387Y127300D01*
X244000Y126500D02*X242613Y127300D01*
X249000Y126500D02*Y124900D01*
Y126500D02*X250387Y127300D01*
X249000Y126500D02*X247613Y127300D01*
X254000Y126500D02*Y124900D01*
Y126500D02*X255387Y127300D01*
X254000Y126500D02*X252613Y127300D01*
X259000Y126500D02*Y124900D01*
Y126500D02*X260387Y127300D01*
X259000Y126500D02*X257613Y127300D01*
X256500Y45000D02*Y43400D01*
Y45000D02*X257887Y45800D01*
X256500Y45000D02*X255113Y45800D01*
X339500Y121000D02*Y119400D01*
Y121000D02*X340887Y121800D01*
X339500Y121000D02*X338113Y121800D01*
X335000Y121000D02*Y119400D01*
Y121000D02*X336387Y121800D01*
X335000Y121000D02*X333613Y121800D01*
X248500Y39500D02*Y37900D01*
Y39500D02*X249887Y40300D01*
X248500Y39500D02*X247113Y40300D01*
X277000Y93000D02*Y91400D01*
Y93000D02*X278387Y93800D01*
X277000Y93000D02*X275613Y93800D01*
X253000Y39500D02*Y37900D01*
Y39500D02*X254387Y40300D01*
X253000Y39500D02*X251613Y40300D01*
X280500Y76000D02*Y74400D01*
Y76000D02*X281887Y76800D01*
X280500Y76000D02*X279113Y76800D01*
X318500Y61500D02*Y59900D01*
Y61500D02*X319887Y62300D01*
X318500Y61500D02*X317113Y62300D01*
X313500Y61500D02*Y59900D01*
Y61500D02*X314887Y62300D01*
X313500Y61500D02*X312113Y62300D01*
X314500Y110000D02*Y108400D01*
Y110000D02*X315887Y110800D01*
X314500Y110000D02*X313113Y110800D01*
X319500Y110000D02*Y108400D01*
Y110000D02*X320887Y110800D01*
X319500Y110000D02*X318113Y110800D01*
X283500Y93500D02*Y91900D01*
Y93500D02*X284887Y94300D01*
X283500Y93500D02*X282113Y94300D01*
X588500Y45500D02*Y43900D01*
Y45500D02*X589887Y46300D01*
X588500Y45500D02*X587113Y46300D01*
X588500Y41000D02*Y39400D01*
Y41000D02*X589887Y41800D01*
X588500Y41000D02*X587113Y41800D01*
X581500Y48000D02*Y46400D01*
Y48000D02*X582887Y48800D01*
X581500Y48000D02*X580113Y48800D01*
X577000Y48000D02*Y46400D01*
Y48000D02*X578387Y48800D01*
X577000Y48000D02*X575613Y48800D01*
X572500Y48000D02*Y46400D01*
Y48000D02*X573887Y48800D01*
X572500Y48000D02*X571113Y48800D01*
X588500Y36500D02*Y34900D01*
Y36500D02*X589887Y37300D01*
X588500Y36500D02*X587113Y37300D01*
X571000Y42000D02*Y40400D01*
Y42000D02*X572387Y42800D01*
X571000Y42000D02*X569613Y42800D01*
X571000Y37500D02*Y35900D01*
Y37500D02*X572387Y38300D01*
X571000Y37500D02*X569613Y38300D01*
X566500Y42000D02*Y40400D01*
Y42000D02*X567887Y42800D01*
X566500Y42000D02*X565113Y42800D01*
X566500Y37500D02*Y35900D01*
Y37500D02*X567887Y38300D01*
X566500Y37500D02*X565113Y38300D01*
X565500Y15000D02*Y13400D01*
Y15000D02*X566887Y15800D01*
X565500Y15000D02*X564113Y15800D01*
X570000Y15000D02*Y13400D01*
Y15000D02*X571387Y15800D01*
X570000Y15000D02*X568613Y15800D01*
X574500Y15000D02*Y13400D01*
Y15000D02*X575887Y15800D01*
X574500Y15000D02*X573113Y15800D01*
X579000Y15000D02*Y13400D01*
Y15000D02*X580387Y15800D01*
X579000Y15000D02*X577613Y15800D01*
X583500Y15000D02*Y13400D01*
Y15000D02*X584887Y15800D01*
X583500Y15000D02*X582113Y15800D01*
X588000Y15000D02*Y13400D01*
Y15000D02*X589387Y15800D01*
X588000Y15000D02*X586613Y15800D01*
X592500Y15000D02*Y13400D01*
Y15000D02*X593887Y15800D01*
X592500Y15000D02*X591113Y15800D01*
X570000Y164000D02*Y162400D01*
Y164000D02*X571387Y164800D01*
X570000Y164000D02*X568613Y164800D01*
X589000Y145500D02*Y143900D01*
Y145500D02*X590387Y146300D01*
X589000Y145500D02*X587613Y146300D01*
X589000Y152000D02*Y150400D01*
Y152000D02*X590387Y152800D01*
X589000Y152000D02*X587613Y152800D01*
X589000Y133500D02*Y131900D01*
Y133500D02*X590387Y134300D01*
X589000Y133500D02*X587613Y134300D01*
X589000Y124000D02*Y122400D01*
Y124000D02*X590387Y124800D01*
X589000Y124000D02*X587613Y124800D01*
X570000Y159500D02*Y157900D01*
Y159500D02*X571387Y160300D01*
X570000Y159500D02*X568613Y160300D01*
X570000Y155000D02*Y153400D01*
Y155000D02*X571387Y155800D01*
X570000Y155000D02*X568613Y155800D01*
X564500Y164000D02*Y162400D01*
Y164000D02*X565887Y164800D01*
X564500Y164000D02*X563113Y164800D01*
X564500Y159500D02*Y157900D01*
Y159500D02*X565887Y160300D01*
X564500Y159500D02*X563113Y160300D01*
X564500Y155000D02*Y153400D01*
Y155000D02*X565887Y155800D01*
X564500Y155000D02*X563113Y155800D01*
X384000Y123000D02*Y121400D01*
Y123000D02*X385387Y123800D01*
X384000Y123000D02*X382613Y123800D01*
X389000Y123000D02*Y121400D01*
Y123000D02*X390387Y123800D01*
X389000Y123000D02*X387613Y123800D01*
X378500Y48000D02*Y46400D01*
Y48000D02*X379887Y48800D01*
X378500Y48000D02*X377113Y48800D01*
X422500Y75500D02*Y73900D01*
Y75500D02*X423887Y76300D01*
X422500Y75500D02*X421113Y76300D01*
X445500Y57500D02*Y55900D01*
Y57500D02*X446887Y58300D01*
X445500Y57500D02*X444113Y58300D01*
X344500Y62500D02*Y60900D01*
Y62500D02*X345887Y63300D01*
X344500Y62500D02*X343113Y63300D01*
X392500Y61000D02*Y59400D01*
Y61000D02*X393887Y61800D01*
X392500Y61000D02*X391113Y61800D01*
X389000Y64500D02*Y62900D01*
Y64500D02*X390387Y65300D01*
X389000Y64500D02*X387613Y65300D01*
X315000Y91000D02*Y89400D01*
Y91000D02*X316387Y91800D01*
X315000Y91000D02*X313613Y91800D01*
X362000Y97000D02*Y95400D01*
Y97000D02*X363387Y97800D01*
X362000Y97000D02*X360613Y97800D01*
X390000Y75500D02*Y73900D01*
Y75500D02*X391387Y76300D01*
X390000Y75500D02*X388613Y76300D01*
X407000Y55500D02*Y53900D01*
Y55500D02*X408387Y56300D01*
X407000Y55500D02*X405613Y56300D01*
X399500Y49500D02*Y47900D01*
Y49500D02*X400887Y50300D01*
X399500Y49500D02*X398113Y50300D01*
X399500Y45000D02*Y43400D01*
Y45000D02*X400887Y45800D01*
X399500Y45000D02*X398113Y45800D01*
X416500Y75500D02*Y73900D01*
Y75500D02*X417887Y76300D01*
X416500Y75500D02*X415113Y76300D01*
X412000Y75500D02*Y73900D01*
Y75500D02*X413387Y76300D01*
X412000Y75500D02*X410613Y76300D01*
X419000Y55500D02*Y53900D01*
Y55500D02*X420387Y56300D01*
X419000Y55500D02*X417613Y56300D01*
X439000Y43500D02*Y41900D01*
Y43500D02*X440387Y44300D01*
X439000Y43500D02*X437613Y44300D01*
X445500Y63500D02*Y61900D01*
Y63500D02*X446887Y64300D01*
X445500Y63500D02*X444113Y64300D01*
X516500Y64500D02*Y62900D01*
Y64500D02*X517887Y65300D01*
X516500Y64500D02*X515113Y65300D01*
X518000Y97500D02*Y95900D01*
Y97500D02*X519387Y98300D01*
X518000Y97500D02*X516613Y98300D01*
X463000Y52500D02*Y50900D01*
Y52500D02*X464387Y53300D01*
X463000Y52500D02*X461613Y53300D01*
X444500Y81000D02*Y79400D01*
Y81000D02*X445887Y81800D01*
X444500Y81000D02*X443113Y81800D01*
X486000Y116000D02*Y114400D01*
Y116000D02*X487387Y116800D01*
X486000Y116000D02*X484613Y116800D01*
X486000Y111500D02*Y109900D01*
Y111500D02*X487387Y112300D01*
X486000Y111500D02*X484613Y112300D01*
X434500Y49000D02*Y47400D01*
Y49000D02*X435887Y49800D01*
X434500Y49000D02*X433113Y49800D01*
X434500Y105000D02*Y103400D01*
Y105000D02*X435887Y105800D01*
X434500Y105000D02*X433113Y105800D01*
X425500Y105000D02*Y103400D01*
Y105000D02*X426887Y105800D01*
X425500Y105000D02*X424113Y105800D01*
X430000Y105000D02*Y103400D01*
Y105000D02*X431387Y105800D01*
X430000Y105000D02*X428613Y105800D01*
X439000Y105000D02*Y103400D01*
Y105000D02*X440387Y105800D01*
X439000Y105000D02*X437613Y105800D01*
X439000Y109500D02*Y107900D01*
Y109500D02*X440387Y110300D01*
X439000Y109500D02*X437613Y110300D01*
X439000Y118000D02*Y116400D01*
Y118000D02*X440387Y118800D01*
X439000Y118000D02*X437613Y118800D01*
X439000Y113500D02*Y111900D01*
Y113500D02*X440387Y114300D01*
X439000Y113500D02*X437613Y114300D01*
X401000Y110000D02*Y108400D01*
Y110000D02*X402387Y110800D01*
X401000Y110000D02*X399613Y110800D01*
X396500Y110000D02*Y108400D01*
Y110000D02*X397887Y110800D01*
X396500Y110000D02*X395113Y110800D01*
X392000Y110000D02*Y108400D01*
Y110000D02*X393387Y110800D01*
X392000Y110000D02*X390613Y110800D01*
X422500Y125000D02*Y123400D01*
Y125000D02*X423887Y125800D01*
X422500Y125000D02*X421113Y125800D01*
X418000Y125000D02*Y123400D01*
Y125000D02*X419387Y125800D01*
X418000Y125000D02*X416613Y125800D01*
X413500Y125000D02*Y123400D01*
Y125000D02*X414887Y125800D01*
X413500Y125000D02*X412113Y125800D01*
X409000Y125000D02*Y123400D01*
Y125000D02*X410387Y125800D01*
X409000Y125000D02*X407613Y125800D01*
X404500Y125000D02*Y123400D01*
Y125000D02*X405887Y125800D01*
X404500Y125000D02*X403113Y125800D01*
X308000Y61000D02*Y59400D01*
Y61000D02*X309387Y61800D01*
X308000Y61000D02*X306613Y61800D01*
X361500Y78000D02*Y76400D01*
Y78000D02*X362887Y78800D01*
X361500Y78000D02*X360113Y78800D01*
X589000Y118000D02*Y116400D01*
Y118000D02*X590387Y118800D01*
X589000Y118000D02*X587613Y118800D01*
X589000Y112000D02*Y110400D01*
Y112000D02*X590387Y112800D01*
X589000Y112000D02*X587613Y112800D01*
X569000Y124000D02*Y122400D01*
Y124000D02*X570387Y124800D01*
X569000Y124000D02*X567613Y124800D01*
X569000Y118000D02*Y116400D01*
Y118000D02*X570387Y118800D01*
X569000Y118000D02*X567613Y118800D01*
X569000Y112000D02*Y110400D01*
Y112000D02*X570387Y112800D01*
X569000Y112000D02*X567613Y112800D01*
X589000Y139500D02*Y137900D01*
Y139500D02*X590387Y140300D01*
X589000Y139500D02*X587613Y140300D01*
X589000Y158500D02*Y156900D01*
Y158500D02*X590387Y159300D01*
X589000Y158500D02*X587613Y159300D01*
X589000Y164500D02*Y162900D01*
Y164500D02*X590387Y165300D01*
X589000Y164500D02*X587613Y165300D01*
X15000Y301250D02*Y299650D01*
Y301250D02*X16387Y302050D01*
X15000Y301250D02*X13613Y302050D01*
X135000Y303500D02*Y302750D01*
X136500Y301250D01*
X138000Y302750D01*
Y303500D02*Y302750D01*
X136500Y301250D02*Y297500D01*
X139800Y300500D02*X142050D01*
X139800Y297500D02*X142800D01*
X139800Y303500D02*Y297500D01*
Y303500D02*X142800D01*
X147600D02*X148350Y302750D01*
X145350Y303500D02*X147600D01*
X144600Y302750D02*X145350Y303500D01*
X144600Y302750D02*Y301250D01*
X145350Y300500D01*
X147600D01*
X148350Y299750D01*
Y298250D01*
X147600Y297500D02*X148350Y298250D01*
X145350Y297500D02*X147600D01*
X144600Y298250D02*X145350Y297500D01*
X98750D02*X100250D01*
X99500Y303500D02*Y297500D01*
X98000Y302000D02*X99500Y303500D01*
X102800Y297500D02*X104300D01*
X103550Y303500D02*Y297500D01*
X102050Y302000D02*X103550Y303500D01*
X106100Y297500D02*X109100Y300500D01*
Y302750D02*Y300500D01*
X108350Y303500D02*X109100Y302750D01*
X106850Y303500D02*X108350D01*
X106100Y302750D02*X106850Y303500D01*
X106100Y302750D02*Y301250D01*
X106850Y300500D01*
X109100D01*
X45000Y298250D02*X45750Y297500D01*
X45000Y302750D02*Y298250D01*
Y302750D02*X45750Y303500D01*
X47250D01*
X48000Y302750D01*
Y298250D01*
X47250Y297500D02*X48000Y298250D01*
X45750Y297500D02*X47250D01*
X45000Y299000D02*X48000Y302000D01*
X49800Y297500D02*X50550D01*
X52350Y298250D02*X53100Y297500D01*
X52350Y302750D02*Y298250D01*
Y302750D02*X53100Y303500D01*
X54600D01*
X55350Y302750D01*
Y298250D01*
X54600Y297500D02*X55350Y298250D01*
X53100Y297500D02*X54600D01*
X52350Y299000D02*X55350Y302000D01*
X57150Y302750D02*X57900Y303500D01*
X60150D01*
X60900Y302750D01*
Y301250D01*
X57150Y297500D02*X60900Y301250D01*
X57150Y297500D02*X60900D01*
X62700Y298250D02*X63450Y297500D01*
X62700Y302750D02*Y298250D01*
Y302750D02*X63450Y303500D01*
X64950D01*
X65700Y302750D01*
Y298250D01*
X64950Y297500D02*X65700Y298250D01*
X63450Y297500D02*X64950D01*
X62700Y299000D02*X65700Y302000D01*
X3000Y318500D02*X3750Y317750D01*
X750Y318500D02*X3000D01*
X0Y317750D02*X750Y318500D01*
X0Y317750D02*Y316250D01*
X750Y315500D01*
X3000D01*
X3750Y314750D01*
Y313250D01*
X3000Y312500D02*X3750Y313250D01*
X750Y312500D02*X3000D01*
X0Y313250D02*X750Y312500D01*
X5550Y315500D02*Y313250D01*
X6300Y312500D01*
X8550Y315500D02*Y311000D01*
X7800Y310250D02*X8550Y311000D01*
X6300Y310250D02*X7800D01*
X5550Y311000D02*X6300Y310250D01*
Y312500D02*X7800D01*
X8550Y313250D01*
X11100Y314750D02*Y312500D01*
Y314750D02*X11850Y315500D01*
X12600D01*
X13350Y314750D01*
Y312500D01*
Y314750D02*X14100Y315500D01*
X14850D01*
X15600Y314750D01*
Y312500D01*
X10350Y315500D02*X11100Y314750D01*
X17400Y318500D02*Y312500D01*
Y313250D02*X18150Y312500D01*
X19650D01*
X20400Y313250D01*
Y314750D02*Y313250D01*
X19650Y315500D02*X20400Y314750D01*
X18150Y315500D02*X19650D01*
X17400Y314750D02*X18150Y315500D01*
X22200Y314750D02*Y313250D01*
Y314750D02*X22950Y315500D01*
X24450D01*
X25200Y314750D01*
Y313250D01*
X24450Y312500D02*X25200Y313250D01*
X22950Y312500D02*X24450D01*
X22200Y313250D02*X22950Y312500D01*
X27000Y318500D02*Y313250D01*
X27750Y312500D01*
X0Y309250D02*X29250D01*
X41750Y318500D02*Y312500D01*
X44000Y318500D02*X44750Y317750D01*
Y313250D01*
X44000Y312500D02*X44750Y313250D01*
X41000Y312500D02*X44000D01*
X41000Y318500D02*X44000D01*
X46550Y317000D02*Y316250D01*
Y314750D02*Y312500D01*
X50300Y315500D02*X51050Y314750D01*
X48800Y315500D02*X50300D01*
X48050Y314750D02*X48800Y315500D01*
X48050Y314750D02*Y313250D01*
X48800Y312500D01*
X51050Y315500D02*Y313250D01*
X51800Y312500D01*
X48800D02*X50300D01*
X51050Y313250D01*
X54350Y314750D02*Y312500D01*
Y314750D02*X55100Y315500D01*
X55850D01*
X56600Y314750D01*
Y312500D01*
Y314750D02*X57350Y315500D01*
X58100D01*
X58850Y314750D01*
Y312500D01*
X53600Y315500D02*X54350Y314750D01*
X60650Y312500D02*X61400D01*
X65900Y313250D02*X66650Y312500D01*
X65900Y317750D02*X66650Y318500D01*
X65900Y317750D02*Y313250D01*
X68450Y318500D02*X69950D01*
X69200D02*Y312500D01*
X68450D02*X69950D01*
X72500Y314750D02*Y312500D01*
Y314750D02*X73250Y315500D01*
X74000D01*
X74750Y314750D01*
Y312500D01*
X71750Y315500D02*X72500Y314750D01*
X77300Y315500D02*X79550D01*
X76550Y314750D02*X77300Y315500D01*
X76550Y314750D02*Y313250D01*
X77300Y312500D01*
X79550D01*
X81350Y318500D02*Y312500D01*
Y314750D02*X82100Y315500D01*
X83600D01*
X84350Y314750D01*
Y312500D01*
X86150Y318500D02*X86900Y317750D01*
Y313250D01*
X86150Y312500D02*X86900Y313250D01*
X41000Y309250D02*X88700D01*
X95750Y312500D02*X98000D01*
X95000Y313250D02*X95750Y312500D01*
X95000Y317750D02*Y313250D01*
Y317750D02*X95750Y318500D01*
X98000D01*
X99800Y314750D02*Y313250D01*
Y314750D02*X100550Y315500D01*
X102050D01*
X102800Y314750D01*
Y313250D01*
X102050Y312500D02*X102800Y313250D01*
X100550Y312500D02*X102050D01*
X99800Y313250D02*X100550Y312500D01*
X104600Y315500D02*Y313250D01*
X105350Y312500D01*
X106850D01*
X107600Y313250D01*
Y315500D02*Y313250D01*
X110150Y314750D02*Y312500D01*
Y314750D02*X110900Y315500D01*
X111650D01*
X112400Y314750D01*
Y312500D01*
X109400Y315500D02*X110150Y314750D01*
X114950Y318500D02*Y313250D01*
X115700Y312500D01*
X114200Y316250D02*X115700D01*
X95000Y309250D02*X117200D01*
X130750Y318500D02*Y312500D01*
X130000Y318500D02*X133000D01*
X133750Y317750D01*
Y316250D01*
X133000Y315500D02*X133750Y316250D01*
X130750Y315500D02*X133000D01*
X135550Y318500D02*Y313250D01*
X136300Y312500D01*
X140050Y315500D02*X140800Y314750D01*
X138550Y315500D02*X140050D01*
X137800Y314750D02*X138550Y315500D01*
X137800Y314750D02*Y313250D01*
X138550Y312500D01*
X140800Y315500D02*Y313250D01*
X141550Y312500D01*
X138550D02*X140050D01*
X140800Y313250D01*
X144100Y318500D02*Y313250D01*
X144850Y312500D01*
X143350Y316250D02*X144850D01*
X147100Y312500D02*X149350D01*
X146350Y313250D02*X147100Y312500D01*
X146350Y314750D02*Y313250D01*
Y314750D02*X147100Y315500D01*
X148600D01*
X149350Y314750D01*
X146350Y314000D02*X149350D01*
Y314750D02*Y314000D01*
X154150Y318500D02*Y312500D01*
X153400D02*X154150Y313250D01*
X151900Y312500D02*X153400D01*
X151150Y313250D02*X151900Y312500D01*
X151150Y314750D02*Y313250D01*
Y314750D02*X151900Y315500D01*
X153400D01*
X154150Y314750D01*
X157450Y315500D02*Y314750D01*
Y313250D02*Y312500D01*
X155950Y317750D02*Y317000D01*
Y317750D02*X156700Y318500D01*
X158200D01*
X158950Y317750D01*
Y317000D01*
X157450Y315500D02*X158950Y317000D01*
X130000Y309250D02*X160750D01*
X0Y333500D02*X3000D01*
X1500D02*Y327500D01*
X4800Y333500D02*Y327500D01*
Y329750D02*X5550Y330500D01*
X7050D01*
X7800Y329750D01*
Y327500D01*
X10350D02*X12600D01*
X9600Y328250D02*X10350Y327500D01*
X9600Y329750D02*Y328250D01*
Y329750D02*X10350Y330500D01*
X11850D01*
X12600Y329750D01*
X9600Y329000D02*X12600D01*
Y329750D02*Y329000D01*
X15150Y329750D02*Y327500D01*
Y329750D02*X15900Y330500D01*
X17400D01*
X14400D02*X15150Y329750D01*
X19950Y327500D02*X22200D01*
X19200Y328250D02*X19950Y327500D01*
X19200Y329750D02*Y328250D01*
Y329750D02*X19950Y330500D01*
X21450D01*
X22200Y329750D01*
X19200Y329000D02*X22200D01*
Y329750D02*Y329000D01*
X28950Y330500D02*X29700Y329750D01*
X27450Y330500D02*X28950D01*
X26700Y329750D02*X27450Y330500D01*
X26700Y329750D02*Y328250D01*
X27450Y327500D01*
X29700Y330500D02*Y328250D01*
X30450Y327500D01*
X27450D02*X28950D01*
X29700Y328250D01*
X33000Y329750D02*Y327500D01*
Y329750D02*X33750Y330500D01*
X35250D01*
X32250D02*X33000Y329750D01*
X37800Y327500D02*X40050D01*
X37050Y328250D02*X37800Y327500D01*
X37050Y329750D02*Y328250D01*
Y329750D02*X37800Y330500D01*
X39300D01*
X40050Y329750D01*
X37050Y329000D02*X40050D01*
Y329750D02*Y329000D01*
X44550Y327500D02*X47550Y330500D01*
Y332750D02*Y330500D01*
X46800Y333500D02*X47550Y332750D01*
X45300Y333500D02*X46800D01*
X44550Y332750D02*X45300Y333500D01*
X44550Y332750D02*Y331250D01*
X45300Y330500D01*
X47550D01*
X55050Y333500D02*Y327500D01*
X54300D02*X55050Y328250D01*
X52800Y327500D02*X54300D01*
X52050Y328250D02*X52800Y327500D01*
X52050Y329750D02*Y328250D01*
Y329750D02*X52800Y330500D01*
X54300D01*
X55050Y329750D01*
X56850Y332000D02*Y331250D01*
Y329750D02*Y327500D01*
X59100Y332750D02*Y327500D01*
Y332750D02*X59850Y333500D01*
X60600D01*
X58350Y330500D02*X59850D01*
X62850Y332750D02*Y327500D01*
Y332750D02*X63600Y333500D01*
X64350D01*
X62100Y330500D02*X63600D01*
X66600Y327500D02*X68850D01*
X65850Y328250D02*X66600Y327500D01*
X65850Y329750D02*Y328250D01*
Y329750D02*X66600Y330500D01*
X68100D01*
X68850Y329750D01*
X65850Y329000D02*X68850D01*
Y329750D02*Y329000D01*
X71400Y329750D02*Y327500D01*
Y329750D02*X72150Y330500D01*
X73650D01*
X70650D02*X71400Y329750D01*
X76200Y327500D02*X78450D01*
X75450Y328250D02*X76200Y327500D01*
X75450Y329750D02*Y328250D01*
Y329750D02*X76200Y330500D01*
X77700D01*
X78450Y329750D01*
X75450Y329000D02*X78450D01*
Y329750D02*Y329000D01*
X81000Y329750D02*Y327500D01*
Y329750D02*X81750Y330500D01*
X82500D01*
X83250Y329750D01*
Y327500D01*
X80250Y330500D02*X81000Y329750D01*
X85800Y333500D02*Y328250D01*
X86550Y327500D01*
X85050Y331250D02*X86550D01*
X93750Y333500D02*Y327500D01*
X93000D02*X93750Y328250D01*
X91500Y327500D02*X93000D01*
X90750Y328250D02*X91500Y327500D01*
X90750Y329750D02*Y328250D01*
Y329750D02*X91500Y330500D01*
X93000D01*
X93750Y329750D01*
X96300D02*Y327500D01*
Y329750D02*X97050Y330500D01*
X98550D01*
X95550D02*X96300Y329750D01*
X100350Y332000D02*Y331250D01*
Y329750D02*Y327500D01*
X101850Y333500D02*Y328250D01*
X102600Y327500D01*
X104100Y333500D02*Y328250D01*
X104850Y327500D01*
X109800D02*X112050D01*
X112800Y328250D01*
X112050Y329000D02*X112800Y328250D01*
X109800Y329000D02*X112050D01*
X109050Y329750D02*X109800Y329000D01*
X109050Y329750D02*X109800Y330500D01*
X112050D01*
X112800Y329750D01*
X109050Y328250D02*X109800Y327500D01*
X114600Y332000D02*Y331250D01*
Y329750D02*Y327500D01*
X116100Y330500D02*X119100D01*
X116100Y327500D02*X119100Y330500D01*
X116100Y327500D02*X119100D01*
X121650D02*X123900D01*
X120900Y328250D02*X121650Y327500D01*
X120900Y329750D02*Y328250D01*
Y329750D02*X121650Y330500D01*
X123150D01*
X123900Y329750D01*
X120900Y329000D02*X123900D01*
Y329750D02*Y329000D01*
X126450Y327500D02*X128700D01*
X129450Y328250D01*
X128700Y329000D02*X129450Y328250D01*
X126450Y329000D02*X128700D01*
X125700Y329750D02*X126450Y329000D01*
X125700Y329750D02*X126450Y330500D01*
X128700D01*
X129450Y329750D01*
X125700Y328250D02*X126450Y327500D01*
X133950Y330500D02*Y328250D01*
X134700Y327500D01*
X136200D01*
X136950Y328250D01*
Y330500D02*Y328250D01*
X139500Y327500D02*X141750D01*
X142500Y328250D01*
X141750Y329000D02*X142500Y328250D01*
X139500Y329000D02*X141750D01*
X138750Y329750D02*X139500Y329000D01*
X138750Y329750D02*X139500Y330500D01*
X141750D01*
X142500Y329750D01*
X138750Y328250D02*X139500Y327500D01*
X145050D02*X147300D01*
X144300Y328250D02*X145050Y327500D01*
X144300Y329750D02*Y328250D01*
Y329750D02*X145050Y330500D01*
X146550D01*
X147300Y329750D01*
X144300Y329000D02*X147300D01*
Y329750D02*Y329000D01*
X152100Y333500D02*Y327500D01*
X151350D02*X152100Y328250D01*
X149850Y327500D02*X151350D01*
X149100Y328250D02*X149850Y327500D01*
X149100Y329750D02*Y328250D01*
Y329750D02*X149850Y330500D01*
X151350D01*
X152100Y329750D01*
X156600Y332000D02*Y331250D01*
Y329750D02*Y327500D01*
X158850Y329750D02*Y327500D01*
Y329750D02*X159600Y330500D01*
X160350D01*
X161100Y329750D01*
Y327500D01*
X158100Y330500D02*X158850Y329750D01*
X166350Y333500D02*Y328250D01*
X167100Y327500D01*
X165600Y331250D02*X167100D01*
X168600Y333500D02*Y327500D01*
Y329750D02*X169350Y330500D01*
X170850D01*
X171600Y329750D01*
Y327500D01*
X173400Y332000D02*Y331250D01*
Y329750D02*Y327500D01*
X175650D02*X177900D01*
X178650Y328250D01*
X177900Y329000D02*X178650Y328250D01*
X175650Y329000D02*X177900D01*
X174900Y329750D02*X175650Y329000D01*
X174900Y329750D02*X175650Y330500D01*
X177900D01*
X178650Y329750D01*
X174900Y328250D02*X175650Y327500D01*
X183150Y333500D02*Y328250D01*
X183900Y327500D01*
X187650Y330500D02*X188400Y329750D01*
X186150Y330500D02*X187650D01*
X185400Y329750D02*X186150Y330500D01*
X185400Y329750D02*Y328250D01*
X186150Y327500D01*
X188400Y330500D02*Y328250D01*
X189150Y327500D01*
X186150D02*X187650D01*
X188400Y328250D01*
X190950Y330500D02*Y328250D01*
X191700Y327500D01*
X193950Y330500D02*Y326000D01*
X193200Y325250D02*X193950Y326000D01*
X191700Y325250D02*X193200D01*
X190950Y326000D02*X191700Y325250D01*
Y327500D02*X193200D01*
X193950Y328250D01*
X195750Y329750D02*Y328250D01*
Y329750D02*X196500Y330500D01*
X198000D01*
X198750Y329750D01*
Y328250D01*
X198000Y327500D02*X198750Y328250D01*
X196500Y327500D02*X198000D01*
X195750Y328250D02*X196500Y327500D01*
X200550Y330500D02*Y328250D01*
X201300Y327500D01*
X202800D01*
X203550Y328250D01*
Y330500D02*Y328250D01*
X206100Y333500D02*Y328250D01*
X206850Y327500D01*
X205350Y331250D02*X206850D01*
X208350Y326000D02*X209850Y327500D01*
X214350Y332750D02*X215100Y333500D01*
X217350D01*
X218100Y332750D01*
Y331250D01*
X214350Y327500D02*X218100Y331250D01*
X214350Y327500D02*X218100D01*
X219900D02*X223650Y331250D01*
Y333500D02*Y331250D01*
X219900Y333500D02*X223650D01*
X225450Y330500D02*X228450Y333500D01*
X225450Y330500D02*X229200D01*
X228450Y333500D02*Y327500D01*
X233700Y333500D02*Y327500D01*
Y329750D02*X234450Y330500D01*
X235950D01*
X236700Y329750D01*
Y327500D01*
X238500Y329750D02*Y328250D01*
Y329750D02*X239250Y330500D01*
X240750D01*
X241500Y329750D01*
Y328250D01*
X240750Y327500D02*X241500Y328250D01*
X239250Y327500D02*X240750D01*
X238500Y328250D02*X239250Y327500D01*
X243300Y333500D02*Y328250D01*
X244050Y327500D01*
X246300D02*X248550D01*
X245550Y328250D02*X246300Y327500D01*
X245550Y329750D02*Y328250D01*
Y329750D02*X246300Y330500D01*
X247800D01*
X248550Y329750D01*
X245550Y329000D02*X248550D01*
Y329750D02*Y329000D01*
X251100Y327500D02*X253350D01*
X254100Y328250D01*
X253350Y329000D02*X254100Y328250D01*
X251100Y329000D02*X253350D01*
X250350Y329750D02*X251100Y329000D01*
X250350Y329750D02*X251100Y330500D01*
X253350D01*
X254100Y329750D01*
X250350Y328250D02*X251100Y327500D01*
X259350Y333500D02*Y328250D01*
X260100Y327500D01*
X258600Y331250D02*X260100D01*
X261600Y329750D02*Y328250D01*
Y329750D02*X262350Y330500D01*
X263850D01*
X264600Y329750D01*
Y328250D01*
X263850Y327500D02*X264600Y328250D01*
X262350Y327500D02*X263850D01*
X261600Y328250D02*X262350Y327500D01*
X267150Y333500D02*Y328250D01*
X267900Y327500D01*
X266400Y331250D02*X267900D01*
X271650Y330500D02*X272400Y329750D01*
X270150Y330500D02*X271650D01*
X269400Y329750D02*X270150Y330500D01*
X269400Y329750D02*Y328250D01*
X270150Y327500D01*
X272400Y330500D02*Y328250D01*
X273150Y327500D01*
X270150D02*X271650D01*
X272400Y328250D01*
X274950Y333500D02*Y328250D01*
X275700Y327500D01*
G54D111*X0Y0D02*X600000D01*
Y170000D01*
X0D01*
Y0D01*
G54D110*X213675Y-9500D02*X216675D01*
X217425Y-8750D01*
Y-7250D02*Y-8750D01*
X216675Y-6500D02*X217425Y-7250D01*
X214425Y-6500D02*X216675D01*
X214425Y-3500D02*Y-9500D01*
X213675Y-3500D02*X216675D01*
X217425Y-4250D01*
Y-5750D01*
X216675Y-6500D02*X217425Y-5750D01*
X219225Y-7250D02*Y-8750D01*
Y-7250D02*X219975Y-6500D01*
X221475D01*
X222225Y-7250D01*
Y-8750D01*
X221475Y-9500D02*X222225Y-8750D01*
X219975Y-9500D02*X221475D01*
X219225Y-8750D02*X219975Y-9500D01*
X226275Y-6500D02*X227025Y-7250D01*
X224775Y-6500D02*X226275D01*
X224025Y-7250D02*X224775Y-6500D01*
X224025Y-7250D02*Y-8750D01*
X224775Y-9500D01*
X227025Y-6500D02*Y-8750D01*
X227775Y-9500D01*
X224775D02*X226275D01*
X227025Y-8750D01*
X230325Y-7250D02*Y-9500D01*
Y-7250D02*X231075Y-6500D01*
X232575D01*
X229575D02*X230325Y-7250D01*
X237375Y-3500D02*Y-9500D01*
X236625D02*X237375Y-8750D01*
X235125Y-9500D02*X236625D01*
X234375Y-8750D02*X235125Y-9500D01*
X234375Y-7250D02*Y-8750D01*
Y-7250D02*X235125Y-6500D01*
X236625D01*
X237375Y-7250D01*
X241875D02*Y-8750D01*
Y-7250D02*X242625Y-6500D01*
X244125D01*
X244875Y-7250D01*
Y-8750D01*
X244125Y-9500D02*X244875Y-8750D01*
X242625Y-9500D02*X244125D01*
X241875Y-8750D02*X242625Y-9500D01*
X246675Y-6500D02*Y-8750D01*
X247425Y-9500D01*
X248925D01*
X249675Y-8750D01*
Y-6500D02*Y-8750D01*
X252225Y-3500D02*Y-8750D01*
X252975Y-9500D01*
X251475Y-5750D02*X252975D01*
X254475Y-3500D02*Y-8750D01*
X255225Y-9500D01*
X256725Y-5000D02*Y-5750D01*
Y-7250D02*Y-9500D01*
X258975Y-7250D02*Y-9500D01*
Y-7250D02*X259725Y-6500D01*
X260475D01*
X261225Y-7250D01*
Y-9500D01*
X258225Y-6500D02*X258975Y-7250D01*
X263775Y-9500D02*X266025D01*
X263025Y-8750D02*X263775Y-9500D01*
X263025Y-7250D02*Y-8750D01*
Y-7250D02*X263775Y-6500D01*
X265275D01*
X266025Y-7250D01*
X263025Y-8000D02*X266025D01*
Y-7250D02*Y-8000D01*
X270525Y-5000D02*Y-5750D01*
Y-7250D02*Y-9500D01*
X272775D02*X275025D01*
X275775Y-8750D01*
X275025Y-8000D02*X275775Y-8750D01*
X272775Y-8000D02*X275025D01*
X272025Y-7250D02*X272775Y-8000D01*
X272025Y-7250D02*X272775Y-6500D01*
X275025D01*
X275775Y-7250D01*
X272025Y-8750D02*X272775Y-9500D01*
X281025Y-3500D02*Y-8750D01*
X281775Y-9500D01*
X280275Y-5750D02*X281775D01*
X283275Y-3500D02*Y-9500D01*
Y-7250D02*X284025Y-6500D01*
X285525D01*
X286275Y-7250D01*
Y-9500D01*
X288825D02*X291075D01*
X288075Y-8750D02*X288825Y-9500D01*
X288075Y-7250D02*Y-8750D01*
Y-7250D02*X288825Y-6500D01*
X290325D01*
X291075Y-7250D01*
X288075Y-8000D02*X291075D01*
Y-7250D02*Y-8000D01*
X296325Y-6500D02*X298575D01*
X295575Y-7250D02*X296325Y-6500D01*
X295575Y-7250D02*Y-8750D01*
X296325Y-9500D01*
X298575D01*
X301125D02*X303375D01*
X300375Y-8750D02*X301125Y-9500D01*
X300375Y-7250D02*Y-8750D01*
Y-7250D02*X301125Y-6500D01*
X302625D01*
X303375Y-7250D01*
X300375Y-8000D02*X303375D01*
Y-7250D02*Y-8000D01*
X305925Y-7250D02*Y-9500D01*
Y-7250D02*X306675Y-6500D01*
X307425D01*
X308175Y-7250D01*
Y-9500D01*
X305175Y-6500D02*X305925Y-7250D01*
X310725Y-3500D02*Y-8750D01*
X311475Y-9500D01*
X309975Y-5750D02*X311475D01*
X313725Y-9500D02*X315975D01*
X312975Y-8750D02*X313725Y-9500D01*
X312975Y-7250D02*Y-8750D01*
Y-7250D02*X313725Y-6500D01*
X315225D01*
X315975Y-7250D01*
X312975Y-8000D02*X315975D01*
Y-7250D02*Y-8000D01*
X318525Y-7250D02*Y-9500D01*
Y-7250D02*X319275Y-6500D01*
X320775D01*
X317775D02*X318525Y-7250D01*
X322575Y-3500D02*Y-8750D01*
X323325Y-9500D01*
X324825Y-5000D02*Y-5750D01*
Y-7250D02*Y-9500D01*
X327075Y-7250D02*Y-9500D01*
Y-7250D02*X327825Y-6500D01*
X328575D01*
X329325Y-7250D01*
Y-9500D01*
X326325Y-6500D02*X327075Y-7250D01*
X331875Y-9500D02*X334125D01*
X331125Y-8750D02*X331875Y-9500D01*
X331125Y-7250D02*Y-8750D01*
Y-7250D02*X331875Y-6500D01*
X333375D01*
X334125Y-7250D01*
X331125Y-8000D02*X334125D01*
Y-7250D02*Y-8000D01*
X338625Y-7250D02*Y-8750D01*
Y-7250D02*X339375Y-6500D01*
X340875D01*
X341625Y-7250D01*
Y-8750D01*
X340875Y-9500D02*X341625Y-8750D01*
X339375Y-9500D02*X340875D01*
X338625Y-8750D02*X339375Y-9500D01*
X344175Y-4250D02*Y-9500D01*
Y-4250D02*X344925Y-3500D01*
X345675D01*
X343425Y-6500D02*X344925D01*
X350625Y-3500D02*Y-8750D01*
X351375Y-9500D01*
X349875Y-5750D02*X351375D01*
X352875Y-3500D02*Y-9500D01*
Y-7250D02*X353625Y-6500D01*
X355125D01*
X355875Y-7250D01*
Y-9500D01*
X357675Y-5000D02*Y-5750D01*
Y-7250D02*Y-9500D01*
X359925D02*X362175D01*
X362925Y-8750D01*
X362175Y-8000D02*X362925Y-8750D01*
X359925Y-8000D02*X362175D01*
X359175Y-7250D02*X359925Y-8000D01*
X359175Y-7250D02*X359925Y-6500D01*
X362175D01*
X362925Y-7250D01*
X359175Y-8750D02*X359925Y-9500D01*
X368175Y-7250D02*Y-11750D01*
X367425Y-6500D02*X368175Y-7250D01*
X368925Y-6500D01*
X370425D01*
X371175Y-7250D01*
Y-8750D01*
X370425Y-9500D02*X371175Y-8750D01*
X368925Y-9500D02*X370425D01*
X368175Y-8750D02*X368925Y-9500D01*
X375225Y-6500D02*X375975Y-7250D01*
X373725Y-6500D02*X375225D01*
X372975Y-7250D02*X373725Y-6500D01*
X372975Y-7250D02*Y-8750D01*
X373725Y-9500D01*
X375975Y-6500D02*Y-8750D01*
X376725Y-9500D01*
X373725D02*X375225D01*
X375975Y-8750D01*
X379275Y-3500D02*Y-8750D01*
X380025Y-9500D01*
X378525Y-5750D02*X380025D01*
X381525Y-3500D02*Y-9500D01*
Y-7250D02*X382275Y-6500D01*
X383775D01*
X384525Y-7250D01*
Y-9500D01*
X200750Y198500D02*Y192500D01*
X203000Y198500D02*X203750Y197750D01*
Y193250D01*
X203000Y192500D02*X203750Y193250D01*
X200000Y192500D02*X203000D01*
X200000Y198500D02*X203000D01*
X207800Y195500D02*X208550Y194750D01*
X206300Y195500D02*X207800D01*
X205550Y194750D02*X206300Y195500D01*
X205550Y194750D02*Y193250D01*
X206300Y192500D01*
X208550Y195500D02*Y193250D01*
X209300Y192500D01*
X206300D02*X207800D01*
X208550Y193250D01*
X211850Y198500D02*Y193250D01*
X212600Y192500D01*
X211100Y196250D02*X212600D01*
X214850Y192500D02*X217100D01*
X214100Y193250D02*X214850Y192500D01*
X214100Y194750D02*Y193250D01*
Y194750D02*X214850Y195500D01*
X216350D01*
X217100Y194750D01*
X214100Y194000D02*X217100D01*
Y194750D02*Y194000D01*
X218900Y196250D02*X219650D01*
X218900Y194750D02*X219650D01*
X224150Y198500D02*Y192500D01*
Y198500D02*X227150D01*
X224150Y195500D02*X226400D01*
X229700Y194750D02*Y192500D01*
Y194750D02*X230450Y195500D01*
X231950D01*
X228950D02*X229700Y194750D01*
X233750Y197000D02*Y196250D01*
Y194750D02*Y192500D01*
X237950Y193250D02*X238700Y192500D01*
X237950Y197750D02*Y193250D01*
Y197750D02*X238700Y198500D01*
X240200D01*
X240950Y197750D01*
Y193250D01*
X240200Y192500D02*X240950Y193250D01*
X238700Y192500D02*X240200D01*
X237950Y194000D02*X240950Y197000D01*
X242750Y192500D02*X245750Y195500D01*
Y197750D02*Y195500D01*
X245000Y198500D02*X245750Y197750D01*
X243500Y198500D02*X245000D01*
X242750Y197750D02*X243500Y198500D01*
X242750Y197750D02*Y196250D01*
X243500Y195500D01*
X245750D01*
X250250Y198500D02*X252500D01*
Y193250D01*
X251750Y192500D02*X252500Y193250D01*
X251000Y192500D02*X251750D01*
X250250Y193250D02*X251000Y192500D01*
X256550Y195500D02*X257300Y194750D01*
X255050Y195500D02*X256550D01*
X254300Y194750D02*X255050Y195500D01*
X254300Y194750D02*Y193250D01*
X255050Y192500D01*
X257300Y195500D02*Y193250D01*
X258050Y192500D01*
X255050D02*X256550D01*
X257300Y193250D01*
X260600Y194750D02*Y192500D01*
Y194750D02*X261350Y195500D01*
X262100D01*
X262850Y194750D01*
Y192500D01*
X259850Y195500D02*X260600Y194750D01*
X267350Y197750D02*X268100Y198500D01*
X270350D01*
X271100Y197750D01*
Y196250D01*
X267350Y192500D02*X271100Y196250D01*
X267350Y192500D02*X271100D01*
X272900Y193250D02*X273650Y192500D01*
X272900Y197750D02*Y193250D01*
Y197750D02*X273650Y198500D01*
X275150D01*
X275900Y197750D01*
Y193250D01*
X275150Y192500D02*X275900Y193250D01*
X273650Y192500D02*X275150D01*
X272900Y194000D02*X275900Y197000D01*
X278450Y192500D02*X279950D01*
X279200Y198500D02*Y192500D01*
X277700Y197000D02*X279200Y198500D01*
X281750D02*X284750D01*
X281750D02*Y195500D01*
X282500Y196250D01*
X284000D01*
X284750Y195500D01*
Y193250D01*
X284000Y192500D02*X284750Y193250D01*
X282500Y192500D02*X284000D01*
X281750Y193250D02*X282500Y192500D01*
X290000D02*X291500D01*
X290750Y198500D02*Y192500D01*
X289250Y197000D02*X290750Y198500D01*
X293300Y193250D02*X294050Y192500D01*
X293300Y197750D02*Y193250D01*
Y197750D02*X294050Y198500D01*
X295550D01*
X296300Y197750D01*
Y193250D01*
X295550Y192500D02*X296300Y193250D01*
X294050Y192500D02*X295550D01*
X293300Y194000D02*X296300Y197000D01*
X298100Y196250D02*X298850D01*
X298100Y194750D02*X298850D01*
X301400Y192500D02*X302900D01*
X302150Y198500D02*Y192500D01*
X300650Y197000D02*X302150Y198500D01*
X304700Y197750D02*X305450Y198500D01*
X307700D01*
X308450Y197750D01*
Y196250D01*
X304700Y192500D02*X308450Y196250D01*
X304700Y192500D02*X308450D01*
X310250Y196250D02*X311000D01*
X310250Y194750D02*X311000D01*
X312800Y193250D02*X313550Y192500D01*
X312800Y197750D02*Y193250D01*
Y197750D02*X313550Y198500D01*
X315050D01*
X315800Y197750D01*
Y193250D01*
X315050Y192500D02*X315800Y193250D01*
X313550Y192500D02*X315050D01*
X312800Y194000D02*X315800Y197000D01*
X319850Y198500D02*X320600Y197750D01*
X318350Y198500D02*X319850D01*
X317600Y197750D02*X318350Y198500D01*
X317600Y197750D02*Y193250D01*
X318350Y192500D01*
X319850Y195500D02*X320600Y194750D01*
X317600Y195500D02*X319850D01*
X318350Y192500D02*X319850D01*
X320600Y193250D01*
Y194750D02*Y193250D01*
X325850Y198500D02*Y192500D01*
X325100Y198500D02*X328100D01*
X328850Y197750D01*
Y196250D01*
X328100Y195500D02*X328850Y196250D01*
X325850Y195500D02*X328100D01*
X330650Y198500D02*Y192500D01*
Y198500D02*X332900Y196250D01*
X335150Y198500D01*
Y192500D01*
X342650Y198500D02*X343400Y197750D01*
X340400Y198500D02*X342650D01*
X339650Y197750D02*X340400Y198500D01*
X339650Y197750D02*Y193250D01*
X340400Y192500D01*
X342650D01*
X343400Y193250D01*
Y194750D02*Y193250D01*
X342650Y195500D02*X343400Y194750D01*
X341150Y195500D02*X342650D01*
X345200Y198500D02*Y192500D01*
Y198500D02*X347450Y196250D01*
X349700Y198500D01*
Y192500D01*
X351500Y198500D02*X354500D01*
X353000D02*Y192500D01*
X359000Y198500D02*Y193250D01*
X359750Y192500D01*
X361250D01*
X362000Y193250D01*
Y198500D02*Y193250D01*
X363800Y198500D02*X366800D01*
X365300D02*Y192500D01*
X369350D02*X371600D01*
X368600Y193250D02*X369350Y192500D01*
X368600Y197750D02*Y193250D01*
Y197750D02*X369350Y198500D01*
X371600D01*
X200000Y212750D02*Y207500D01*
Y212750D02*X200750Y213500D01*
X203000D01*
X203750Y212750D01*
Y207500D01*
X200000Y210500D02*X203750D01*
X205550D02*Y208250D01*
X206300Y207500D01*
X207800D01*
X208550Y208250D01*
Y210500D02*Y208250D01*
X211100Y213500D02*Y208250D01*
X211850Y207500D01*
X210350Y211250D02*X211850D01*
X213350Y213500D02*Y207500D01*
Y209750D02*X214100Y210500D01*
X215600D01*
X216350Y209750D01*
Y207500D01*
X218150Y209750D02*Y208250D01*
Y209750D02*X218900Y210500D01*
X220400D01*
X221150Y209750D01*
Y208250D01*
X220400Y207500D02*X221150Y208250D01*
X218900Y207500D02*X220400D01*
X218150Y208250D02*X218900Y207500D01*
X223700Y209750D02*Y207500D01*
Y209750D02*X224450Y210500D01*
X225950D01*
X222950D02*X223700Y209750D01*
X227750Y211250D02*X228500D01*
X227750Y209750D02*X228500D01*
X233000Y213500D02*Y207500D01*
Y213500D02*Y212750D01*
X236750Y209000D01*
Y213500D02*Y207500D01*
X240800Y210500D02*X241550Y209750D01*
X239300Y210500D02*X240800D01*
X238550Y209750D02*X239300Y210500D01*
X238550Y209750D02*Y208250D01*
X239300Y207500D01*
X241550Y210500D02*Y208250D01*
X242300Y207500D01*
X239300D02*X240800D01*
X241550Y208250D01*
X244850Y213500D02*Y208250D01*
X245600Y207500D01*
X244100Y211250D02*X245600D01*
X247100Y213500D02*Y207500D01*
Y209750D02*X247850Y210500D01*
X249350D01*
X250100Y209750D01*
Y207500D01*
X254150Y210500D02*X254900Y209750D01*
X252650Y210500D02*X254150D01*
X251900Y209750D02*X252650Y210500D01*
X251900Y209750D02*Y208250D01*
X252650Y207500D01*
X254900Y210500D02*Y208250D01*
X255650Y207500D01*
X252650D02*X254150D01*
X254900Y208250D01*
X258200Y209750D02*Y207500D01*
Y209750D02*X258950Y210500D01*
X259700D01*
X260450Y209750D01*
Y207500D01*
X257450Y210500D02*X258200Y209750D01*
X265700Y213500D02*Y207500D01*
X267950Y213500D02*X268700Y212750D01*
Y208250D01*
X267950Y207500D02*X268700Y208250D01*
X264950Y207500D02*X267950D01*
X264950Y213500D02*X267950D01*
X270500Y207500D02*X271250D01*
X275750Y213500D02*Y207500D01*
X279500Y213500D02*Y207500D01*
X275750Y210500D02*X279500D01*
X281300Y209750D02*Y208250D01*
Y209750D02*X282050Y210500D01*
X283550D01*
X284300Y209750D01*
Y208250D01*
X283550Y207500D02*X284300Y208250D01*
X282050Y207500D02*X283550D01*
X281300Y208250D02*X282050Y207500D01*
X286100Y213500D02*Y208250D01*
X286850Y207500D01*
X289100Y209750D02*Y207500D01*
Y209750D02*X289850Y210500D01*
X290600D01*
X291350Y209750D01*
Y207500D01*
Y209750D02*X292100Y210500D01*
X292850D01*
X293600Y209750D01*
Y207500D01*
X288350Y210500D02*X289100Y209750D01*
X296150Y207500D02*X298400D01*
X295400Y208250D02*X296150Y207500D01*
X295400Y209750D02*Y208250D01*
Y209750D02*X296150Y210500D01*
X297650D01*
X298400Y209750D01*
X295400Y209000D02*X298400D01*
Y209750D02*Y209000D01*
X300950Y207500D02*X303200D01*
X303950Y208250D01*
X303200Y209000D02*X303950Y208250D01*
X300950Y209000D02*X303200D01*
X300200Y209750D02*X300950Y209000D01*
X300200Y209750D02*X300950Y210500D01*
X303200D01*
X303950Y209750D01*
X300200Y208250D02*X300950Y207500D01*
X200000Y228500D02*X203000D01*
X201500D02*Y222500D01*
X204800Y227000D02*Y226250D01*
Y224750D02*Y222500D01*
X207050Y228500D02*Y223250D01*
X207800Y222500D01*
X206300Y226250D02*X207800D01*
X209300Y228500D02*Y223250D01*
X210050Y222500D01*
X212300D02*X214550D01*
X211550Y223250D02*X212300Y222500D01*
X211550Y224750D02*Y223250D01*
Y224750D02*X212300Y225500D01*
X213800D01*
X214550Y224750D01*
X211550Y224000D02*X214550D01*
Y224750D02*Y224000D01*
X216350Y226250D02*X217100D01*
X216350Y224750D02*X217100D01*
X221600Y223250D02*X222350Y222500D01*
X221600Y227750D02*X222350Y228500D01*
X221600Y227750D02*Y223250D01*
X224150Y225500D02*Y223250D01*
X224900Y222500D01*
X226400D01*
X227150Y223250D01*
Y225500D02*Y223250D01*
X229700Y224750D02*Y222500D01*
Y224750D02*X230450Y225500D01*
X231200D01*
X231950Y224750D01*
Y222500D01*
X228950Y225500D02*X229700Y224750D01*
X233750Y228500D02*Y222500D01*
Y224750D02*X236000Y222500D01*
X233750Y224750D02*X235250Y226250D01*
X238550Y224750D02*Y222500D01*
Y224750D02*X239300Y225500D01*
X240050D01*
X240800Y224750D01*
Y222500D01*
X237800Y225500D02*X238550Y224750D01*
X242600D02*Y223250D01*
Y224750D02*X243350Y225500D01*
X244850D01*
X245600Y224750D01*
Y223250D01*
X244850Y222500D02*X245600Y223250D01*
X243350Y222500D02*X244850D01*
X242600Y223250D02*X243350Y222500D01*
X247400Y225500D02*Y223250D01*
X248150Y222500D01*
X248900D01*
X249650Y223250D01*
Y225500D02*Y223250D01*
X250400Y222500D01*
X251150D01*
X251900Y223250D01*
Y225500D02*Y223250D01*
X254450Y224750D02*Y222500D01*
Y224750D02*X255200Y225500D01*
X255950D01*
X256700Y224750D01*
Y222500D01*
X253700Y225500D02*X254450Y224750D01*
X258500Y228500D02*X259250Y227750D01*
Y223250D01*
X258500Y222500D02*X259250Y223250D01*
X263750Y225500D02*X266750D01*
X271250Y228500D02*Y222500D01*
Y228500D02*X274250D01*
X271250Y225500D02*X273500D01*
X278300D02*X279050Y224750D01*
X276800Y225500D02*X278300D01*
X276050Y224750D02*X276800Y225500D01*
X276050Y224750D02*Y223250D01*
X276800Y222500D01*
X279050Y225500D02*Y223250D01*
X279800Y222500D01*
X276800D02*X278300D01*
X279050Y223250D01*
X281600Y228500D02*Y222500D01*
Y223250D02*X282350Y222500D01*
X283850D01*
X284600Y223250D01*
Y224750D02*Y223250D01*
X283850Y225500D02*X284600Y224750D01*
X282350Y225500D02*X283850D01*
X281600Y224750D02*X282350Y225500D01*
X287150Y224750D02*Y222500D01*
Y224750D02*X287900Y225500D01*
X289400D01*
X286400D02*X287150Y224750D01*
X291200Y227000D02*Y226250D01*
Y224750D02*Y222500D01*
X293450Y225500D02*X295700D01*
X292700Y224750D02*X293450Y225500D01*
X292700Y224750D02*Y223250D01*
X293450Y222500D01*
X295700D01*
X299750Y225500D02*X300500Y224750D01*
X298250Y225500D02*X299750D01*
X297500Y224750D02*X298250Y225500D01*
X297500Y224750D02*Y223250D01*
X298250Y222500D01*
X300500Y225500D02*Y223250D01*
X301250Y222500D01*
X298250D02*X299750D01*
X300500Y223250D01*
X303800Y228500D02*Y223250D01*
X304550Y222500D01*
X303050Y226250D02*X304550D01*
X306050Y227000D02*Y226250D01*
Y224750D02*Y222500D01*
X307550Y224750D02*Y223250D01*
Y224750D02*X308300Y225500D01*
X309800D01*
X310550Y224750D01*
Y223250D01*
X309800Y222500D02*X310550Y223250D01*
X308300Y222500D02*X309800D01*
X307550Y223250D02*X308300Y222500D01*
X313100Y224750D02*Y222500D01*
Y224750D02*X313850Y225500D01*
X314600D01*
X315350Y224750D01*
Y222500D01*
X312350Y225500D02*X313100Y224750D01*
X320600Y228500D02*Y222500D01*
X322850Y228500D02*X323600Y227750D01*
Y223250D01*
X322850Y222500D02*X323600Y223250D01*
X319850Y222500D02*X322850D01*
X319850Y228500D02*X322850D01*
X326150Y224750D02*Y222500D01*
Y224750D02*X326900Y225500D01*
X328400D01*
X325400D02*X326150Y224750D01*
X332450Y225500D02*X333200Y224750D01*
X330950Y225500D02*X332450D01*
X330200Y224750D02*X330950Y225500D01*
X330200Y224750D02*Y223250D01*
X330950Y222500D01*
X333200Y225500D02*Y223250D01*
X333950Y222500D01*
X330950D02*X332450D01*
X333200Y223250D01*
X335750Y225500D02*Y223250D01*
X336500Y222500D01*
X337250D01*
X338000Y223250D01*
Y225500D02*Y223250D01*
X338750Y222500D01*
X339500D01*
X340250Y223250D01*
Y225500D02*Y223250D01*
X342050Y227000D02*Y226250D01*
Y224750D02*Y222500D01*
X344300Y224750D02*Y222500D01*
Y224750D02*X345050Y225500D01*
X345800D01*
X346550Y224750D01*
Y222500D01*
X343550Y225500D02*X344300Y224750D01*
X350600Y225500D02*X351350Y224750D01*
X349100Y225500D02*X350600D01*
X348350Y224750D02*X349100Y225500D01*
X348350Y224750D02*Y223250D01*
X349100Y222500D01*
X350600D01*
X351350Y223250D01*
X348350Y221000D02*X349100Y220250D01*
X350600D01*
X351350Y221000D01*
Y225500D02*Y221000D01*
M02*
